%FSLAX45Y45*%
G04 Gerber Fmt 4.5, Leading zero omitted, Abs format (unit mm)*
G04 Created by KiCad (PCBNEW 5.99.0+really5.1.10+dfsg1-1) date 2022-02-16 20:00:36*
%MOMM*%
%LPD*%
G01*
G04 APERTURE LIST*
%TA.AperFunction,Profile*%
%ADD10C,0.050000*%
%TD*%
%ADD11C,0.200000*%
%ADD12C,0.300000*%
G04 APERTURE END LIST*
D10*
X2540000Y-7620000D02*
X2540000Y-2540000D01*
X12446000Y-7620000D02*
X2540000Y-7620000D01*
X12446000Y-2540000D02*
X12446000Y-7620000D01*
X2540000Y-2540000D02*
X12446000Y-2540000D01*
D11*
X4933000Y-6330000D02*
X4973000Y-6370000D01*
X4973000Y-6330000D02*
X4933000Y-6370000D01*
X5187000Y-6330000D02*
X5227000Y-6370000D01*
X5227000Y-6330000D02*
X5187000Y-6370000D01*
X6584000Y-3917000D02*
X6624000Y-3957000D01*
X6624000Y-3917000D02*
X6584000Y-3957000D01*
X6738064Y-7075001D02*
X6778064Y-7115001D01*
X6778064Y-7075001D02*
X6738064Y-7115001D01*
X9480000Y-3330000D02*
X9520000Y-3370000D01*
X9520000Y-3330000D02*
X9480000Y-3370000D01*
X9632000Y-5695000D02*
X9672000Y-5735000D01*
X9672000Y-5695000D02*
X9632000Y-5735000D01*
X9886000Y-4425000D02*
X9926000Y-4465000D01*
X9926000Y-4425000D02*
X9886000Y-4465000D01*
X9886000Y-4679000D02*
X9926000Y-4719000D01*
X9926000Y-4679000D02*
X9886000Y-4719000D01*
X10345000Y-3315000D02*
X10385000Y-3355000D01*
X10385000Y-3315000D02*
X10345000Y-3355000D01*
X10775000Y-6838000D02*
X10815000Y-6878000D01*
X10815000Y-6838000D02*
X10775000Y-6878000D01*
X11029000Y-6838000D02*
X11069000Y-6878000D01*
X11069000Y-6838000D02*
X11029000Y-6878000D01*
X2819000Y-4699000D02*
G75*
G03*
X2819000Y-4699000I-25000J0D01*
G01*
X2833000Y-3048000D02*
G75*
G03*
X2833000Y-3048000I-25000J0D01*
G01*
X2833000Y-7112000D02*
G75*
G03*
X2833000Y-7112000I-25000J0D01*
G01*
X2903294Y-2878294D02*
G75*
G03*
X2903294Y-2878294I-25000J0D01*
G01*
X2903294Y-3217706D02*
G75*
G03*
X2903294Y-3217706I-25000J0D01*
G01*
X2903294Y-6942294D02*
G75*
G03*
X2903294Y-6942294I-25000J0D01*
G01*
X2903294Y-7281706D02*
G75*
G03*
X2903294Y-7281706I-25000J0D01*
G01*
X3073000Y-2808000D02*
G75*
G03*
X3073000Y-2808000I-25000J0D01*
G01*
X3073000Y-3288000D02*
G75*
G03*
X3073000Y-3288000I-25000J0D01*
G01*
X3073000Y-6872000D02*
G75*
G03*
X3073000Y-6872000I-25000J0D01*
G01*
X3073000Y-7352000D02*
G75*
G03*
X3073000Y-7352000I-25000J0D01*
G01*
X3242706Y-2878294D02*
G75*
G03*
X3242706Y-2878294I-25000J0D01*
G01*
X3242706Y-3217706D02*
G75*
G03*
X3242706Y-3217706I-25000J0D01*
G01*
X3242706Y-6942294D02*
G75*
G03*
X3242706Y-6942294I-25000J0D01*
G01*
X3242706Y-7281706D02*
G75*
G03*
X3242706Y-7281706I-25000J0D01*
G01*
X3313000Y-3048000D02*
G75*
G03*
X3313000Y-3048000I-25000J0D01*
G01*
X3313000Y-7112000D02*
G75*
G03*
X3313000Y-7112000I-25000J0D01*
G01*
X3581000Y-3175000D02*
G75*
G03*
X3581000Y-3175000I-25000J0D01*
G01*
X4343000Y-5969000D02*
G75*
G03*
X4343000Y-5969000I-25000J0D01*
G01*
X9804000Y-6477000D02*
G75*
G03*
X9804000Y-6477000I-25000J0D01*
G01*
X11723000Y-3048000D02*
G75*
G03*
X11723000Y-3048000I-25000J0D01*
G01*
X11723000Y-7112000D02*
G75*
G03*
X11723000Y-7112000I-25000J0D01*
G01*
X11793294Y-2878294D02*
G75*
G03*
X11793294Y-2878294I-25000J0D01*
G01*
X11793294Y-3217706D02*
G75*
G03*
X11793294Y-3217706I-25000J0D01*
G01*
X11793294Y-6942294D02*
G75*
G03*
X11793294Y-6942294I-25000J0D01*
G01*
X11793294Y-7281706D02*
G75*
G03*
X11793294Y-7281706I-25000J0D01*
G01*
X11963000Y-2808000D02*
G75*
G03*
X11963000Y-2808000I-25000J0D01*
G01*
X11963000Y-3288000D02*
G75*
G03*
X11963000Y-3288000I-25000J0D01*
G01*
X11963000Y-6872000D02*
G75*
G03*
X11963000Y-6872000I-25000J0D01*
G01*
X11963000Y-7352000D02*
G75*
G03*
X11963000Y-7352000I-25000J0D01*
G01*
X12132706Y-2878294D02*
G75*
G03*
X12132706Y-2878294I-25000J0D01*
G01*
X12132706Y-3217706D02*
G75*
G03*
X12132706Y-3217706I-25000J0D01*
G01*
X12132706Y-6942294D02*
G75*
G03*
X12132706Y-6942294I-25000J0D01*
G01*
X12132706Y-7281706D02*
G75*
G03*
X12132706Y-7281706I-25000J0D01*
G01*
X12203000Y-3048000D02*
G75*
G03*
X12203000Y-3048000I-25000J0D01*
G01*
X12203000Y-7112000D02*
G75*
G03*
X12203000Y-7112000I-25000J0D01*
G01*
X3513000Y-3987900D02*
X3513000Y-4064100D01*
X3474900Y-4026000D02*
X3551100Y-4026000D01*
X3513000Y-4187900D02*
X3513000Y-4264100D01*
X3474900Y-4226000D02*
X3551100Y-4226000D01*
X3513000Y-4387900D02*
X3513000Y-4464100D01*
X3474900Y-4426000D02*
X3551100Y-4426000D01*
X3513000Y-4587900D02*
X3513000Y-4664100D01*
X3474900Y-4626000D02*
X3551100Y-4626000D01*
X3513000Y-4787900D02*
X3513000Y-4864100D01*
X3474900Y-4826000D02*
X3551100Y-4826000D01*
X3513000Y-4987900D02*
X3513000Y-5064100D01*
X3474900Y-5026000D02*
X3551100Y-5026000D01*
X3513000Y-5187900D02*
X3513000Y-5264100D01*
X3474900Y-5226000D02*
X3551100Y-5226000D01*
X3513000Y-5387900D02*
X3513000Y-5464100D01*
X3474900Y-5426000D02*
X3551100Y-5426000D01*
X3513000Y-5587900D02*
X3513000Y-5664100D01*
X3474900Y-5626000D02*
X3551100Y-5626000D01*
X3824000Y-2787900D02*
X3824000Y-2864100D01*
X3785900Y-2826000D02*
X3862100Y-2826000D01*
X3824000Y-6787900D02*
X3824000Y-6864100D01*
X3785900Y-6826000D02*
X3862100Y-6826000D01*
X5574000Y-2787900D02*
X5574000Y-2864100D01*
X5535900Y-2826000D02*
X5612100Y-2826000D01*
X5574000Y-6787900D02*
X5574000Y-6864100D01*
X5535900Y-6826000D02*
X5612100Y-6826000D01*
X6223000Y-3009900D02*
X6223000Y-3086100D01*
X6184900Y-3048000D02*
X6261100Y-3048000D01*
X6223000Y-3263900D02*
X6223000Y-3340100D01*
X6184900Y-3302000D02*
X6261100Y-3302000D01*
X6223000Y-3517900D02*
X6223000Y-3594100D01*
X6184900Y-3556000D02*
X6261100Y-3556000D01*
X6223000Y-3771900D02*
X6223000Y-3848100D01*
X6184900Y-3810000D02*
X6261100Y-3810000D01*
X6223000Y-4025900D02*
X6223000Y-4102100D01*
X6184900Y-4064000D02*
X6261100Y-4064000D01*
X6223000Y-4279900D02*
X6223000Y-4356100D01*
X6184900Y-4318000D02*
X6261100Y-4318000D01*
X6223000Y-4533900D02*
X6223000Y-4610100D01*
X6184900Y-4572000D02*
X6261100Y-4572000D01*
X6223000Y-4787900D02*
X6223000Y-4864100D01*
X6184900Y-4826000D02*
X6261100Y-4826000D01*
X6223000Y-5041900D02*
X6223000Y-5118100D01*
X6184900Y-5080000D02*
X6261100Y-5080000D01*
X6223000Y-5295900D02*
X6223000Y-5372100D01*
X6184900Y-5334000D02*
X6261100Y-5334000D01*
X6223000Y-5549900D02*
X6223000Y-5626100D01*
X6184900Y-5588000D02*
X6261100Y-5588000D01*
X6223000Y-5803900D02*
X6223000Y-5880100D01*
X6184900Y-5842000D02*
X6261100Y-5842000D01*
X6223000Y-6057900D02*
X6223000Y-6134100D01*
X6184900Y-6096000D02*
X6261100Y-6096000D01*
X6223000Y-6311900D02*
X6223000Y-6388100D01*
X6184900Y-6350000D02*
X6261100Y-6350000D01*
X6223000Y-6565900D02*
X6223000Y-6642100D01*
X6184900Y-6604000D02*
X6261100Y-6604000D01*
X8763000Y-3009900D02*
X8763000Y-3086100D01*
X8724900Y-3048000D02*
X8801100Y-3048000D01*
X8763000Y-3263900D02*
X8763000Y-3340100D01*
X8724900Y-3302000D02*
X8801100Y-3302000D01*
X8763000Y-3517900D02*
X8763000Y-3594100D01*
X8724900Y-3556000D02*
X8801100Y-3556000D01*
X8763000Y-3771900D02*
X8763000Y-3848100D01*
X8724900Y-3810000D02*
X8801100Y-3810000D01*
X8763000Y-4025900D02*
X8763000Y-4102100D01*
X8724900Y-4064000D02*
X8801100Y-4064000D01*
X8763000Y-4279900D02*
X8763000Y-4356100D01*
X8724900Y-4318000D02*
X8801100Y-4318000D01*
X8763000Y-4533900D02*
X8763000Y-4610100D01*
X8724900Y-4572000D02*
X8801100Y-4572000D01*
X8763000Y-4787900D02*
X8763000Y-4864100D01*
X8724900Y-4826000D02*
X8801100Y-4826000D01*
X8763000Y-5041900D02*
X8763000Y-5118100D01*
X8724900Y-5080000D02*
X8801100Y-5080000D01*
X8763000Y-5295900D02*
X8763000Y-5372100D01*
X8724900Y-5334000D02*
X8801100Y-5334000D01*
X8763000Y-5549900D02*
X8763000Y-5626100D01*
X8724900Y-5588000D02*
X8801100Y-5588000D01*
X8763000Y-5803900D02*
X8763000Y-5880100D01*
X8724900Y-5842000D02*
X8801100Y-5842000D01*
X8763000Y-6057900D02*
X8763000Y-6134100D01*
X8724900Y-6096000D02*
X8801100Y-6096000D01*
X8763000Y-6311900D02*
X8763000Y-6388100D01*
X8724900Y-6350000D02*
X8801100Y-6350000D01*
X8763000Y-6565900D02*
X8763000Y-6642100D01*
X8724900Y-6604000D02*
X8801100Y-6604000D01*
X11473000Y-3987900D02*
X11473000Y-4064100D01*
X11434900Y-4026000D02*
X11511100Y-4026000D01*
X11473000Y-4187900D02*
X11473000Y-4264100D01*
X11434900Y-4226000D02*
X11511100Y-4226000D01*
X11473000Y-4387900D02*
X11473000Y-4464100D01*
X11434900Y-4426000D02*
X11511100Y-4426000D01*
X11473000Y-4587900D02*
X11473000Y-4664100D01*
X11434900Y-4626000D02*
X11511100Y-4626000D01*
X11473000Y-4787900D02*
X11473000Y-4864100D01*
X11434900Y-4826000D02*
X11511100Y-4826000D01*
X11473000Y-4987900D02*
X11473000Y-5064100D01*
X11434900Y-5026000D02*
X11511100Y-5026000D01*
X11473000Y-5187900D02*
X11473000Y-5264100D01*
X11434900Y-5226000D02*
X11511100Y-5226000D01*
X11473000Y-5387900D02*
X11473000Y-5464100D01*
X11434900Y-5426000D02*
X11511100Y-5426000D01*
X11473000Y-5587900D02*
X11473000Y-5664100D01*
X11434900Y-5626000D02*
X11511100Y-5626000D01*
X10438285Y-2918284D02*
X10438285Y-2861715D01*
X10381716Y-2861715D01*
X10381716Y-2918284D01*
X10438285Y-2918284D01*
X10778285Y-2918284D02*
X10778285Y-2861715D01*
X10721716Y-2861715D01*
X10721716Y-2918284D01*
X10778285Y-2918284D01*
X2921000Y-5003000D02*
X2971000Y-4953000D01*
X2921000Y-4903000D01*
X2871000Y-4953000D01*
X2921000Y-5003000D01*
X2921000Y-5257000D02*
X2971000Y-5207000D01*
X2921000Y-5157000D01*
X2871000Y-5207000D01*
X2921000Y-5257000D01*
X3683000Y-7289000D02*
X3733000Y-7239000D01*
X3683000Y-7189000D01*
X3633000Y-7239000D01*
X3683000Y-7289000D01*
X3937000Y-7289000D02*
X3987000Y-7239000D01*
X3937000Y-7189000D01*
X3887000Y-7239000D01*
X3937000Y-7289000D01*
X4191000Y-7289000D02*
X4241000Y-7239000D01*
X4191000Y-7189000D01*
X4141000Y-7239000D01*
X4191000Y-7289000D01*
X4445000Y-7289000D02*
X4495000Y-7239000D01*
X4445000Y-7189000D01*
X4395000Y-7239000D01*
X4445000Y-7289000D01*
X6096000Y-7289000D02*
X6146000Y-7239000D01*
X6096000Y-7189000D01*
X6046000Y-7239000D01*
X6096000Y-7289000D01*
X6350000Y-7289000D02*
X6400000Y-7239000D01*
X6350000Y-7189000D01*
X6300000Y-7239000D01*
X6350000Y-7289000D01*
X6604000Y-7289000D02*
X6654000Y-7239000D01*
X6604000Y-7189000D01*
X6554000Y-7239000D01*
X6604000Y-7289000D01*
X6858000Y-7289000D02*
X6908000Y-7239000D01*
X6858000Y-7189000D01*
X6808000Y-7239000D01*
X6858000Y-7289000D01*
X7112000Y-7289000D02*
X7162000Y-7239000D01*
X7112000Y-7189000D01*
X7062000Y-7239000D01*
X7112000Y-7289000D01*
X7366000Y-7289000D02*
X7416000Y-7239000D01*
X7366000Y-7189000D01*
X7316000Y-7239000D01*
X7366000Y-7289000D01*
X7620000Y-7289000D02*
X7670000Y-7239000D01*
X7620000Y-7189000D01*
X7570000Y-7239000D01*
X7620000Y-7289000D01*
X7874000Y-7289000D02*
X7924000Y-7239000D01*
X7874000Y-7189000D01*
X7824000Y-7239000D01*
X7874000Y-7289000D01*
X8128000Y-7289000D02*
X8178000Y-7239000D01*
X8128000Y-7189000D01*
X8078000Y-7239000D01*
X8128000Y-7289000D01*
X8382000Y-7289000D02*
X8432000Y-7239000D01*
X8382000Y-7189000D01*
X8332000Y-7239000D01*
X8382000Y-7289000D01*
X8636000Y-7289000D02*
X8686000Y-7239000D01*
X8636000Y-7189000D01*
X8586000Y-7239000D01*
X8636000Y-7289000D01*
X8890000Y-7289000D02*
X8940000Y-7239000D01*
X8890000Y-7189000D01*
X8840000Y-7239000D01*
X8890000Y-7289000D01*
X10541000Y-7289000D02*
X10591000Y-7239000D01*
X10541000Y-7189000D01*
X10491000Y-7239000D01*
X10541000Y-7289000D01*
X10795000Y-7289000D02*
X10845000Y-7239000D01*
X10795000Y-7189000D01*
X10745000Y-7239000D01*
X10795000Y-7289000D01*
X11049000Y-7289000D02*
X11099000Y-7239000D01*
X11049000Y-7189000D01*
X10999000Y-7239000D01*
X11049000Y-7289000D01*
X11056000Y-2940000D02*
X11106000Y-2890000D01*
X11056000Y-2840000D01*
X11006000Y-2890000D01*
X11056000Y-2940000D01*
X11303000Y-7289000D02*
X11353000Y-7239000D01*
X11303000Y-7189000D01*
X11253000Y-7239000D01*
X11303000Y-7289000D01*
X11310000Y-2940000D02*
X11360000Y-2890000D01*
X11310000Y-2840000D01*
X11260000Y-2890000D01*
X11310000Y-2940000D01*
X2888000Y-2888000D02*
X3208000Y-3208000D01*
X3208000Y-2888000D02*
X2888000Y-3208000D01*
X3208000Y-3048000D02*
G75*
G03*
X3208000Y-3048000I-160000J0D01*
G01*
X2888000Y-6952000D02*
X3208000Y-7272000D01*
X3208000Y-6952000D02*
X2888000Y-7272000D01*
X3208000Y-7112000D02*
G75*
G03*
X3208000Y-7112000I-160000J0D01*
G01*
X11778000Y-2888000D02*
X12098000Y-3208000D01*
X12098000Y-2888000D02*
X11778000Y-3208000D01*
X12098000Y-3048000D02*
G75*
G03*
X12098000Y-3048000I-160000J0D01*
G01*
X11778000Y-6952000D02*
X12098000Y-7272000D01*
X12098000Y-6952000D02*
X11778000Y-7272000D01*
X12098000Y-7112000D02*
G75*
G03*
X12098000Y-7112000I-160000J0D01*
G01*
D12*
X2823928Y-8088214D02*
X2823928Y-7788214D01*
X2895357Y-7788214D01*
X2938214Y-7802500D01*
X2966786Y-7831071D01*
X2981071Y-7859643D01*
X2995357Y-7916786D01*
X2995357Y-7959643D01*
X2981071Y-8016786D01*
X2966786Y-8045357D01*
X2938214Y-8073929D01*
X2895357Y-8088214D01*
X2823928Y-8088214D01*
X3123928Y-8088214D02*
X3123928Y-7888214D01*
X3123928Y-7945357D02*
X3138214Y-7916786D01*
X3152500Y-7902500D01*
X3181071Y-7888214D01*
X3209643Y-7888214D01*
X3309643Y-8088214D02*
X3309643Y-7888214D01*
X3309643Y-7788214D02*
X3295357Y-7802500D01*
X3309643Y-7816786D01*
X3323928Y-7802500D01*
X3309643Y-7788214D01*
X3309643Y-7816786D01*
X3495357Y-8088214D02*
X3466786Y-8073929D01*
X3452500Y-8045357D01*
X3452500Y-7788214D01*
X3652500Y-8088214D02*
X3623928Y-8073929D01*
X3609643Y-8045357D01*
X3609643Y-7788214D01*
X3995357Y-8088214D02*
X3995357Y-7788214D01*
X4095357Y-8002500D01*
X4195357Y-7788214D01*
X4195357Y-8088214D01*
X4466786Y-8088214D02*
X4466786Y-7931071D01*
X4452500Y-7902500D01*
X4423928Y-7888214D01*
X4366786Y-7888214D01*
X4338214Y-7902500D01*
X4466786Y-8073929D02*
X4438214Y-8088214D01*
X4366786Y-8088214D01*
X4338214Y-8073929D01*
X4323928Y-8045357D01*
X4323928Y-8016786D01*
X4338214Y-7988214D01*
X4366786Y-7973929D01*
X4438214Y-7973929D01*
X4466786Y-7959643D01*
X4609643Y-7888214D02*
X4609643Y-8188214D01*
X4609643Y-7902500D02*
X4638214Y-7888214D01*
X4695357Y-7888214D01*
X4723928Y-7902500D01*
X4738214Y-7916786D01*
X4752500Y-7945357D01*
X4752500Y-8031071D01*
X4738214Y-8059643D01*
X4723928Y-8073929D01*
X4695357Y-8088214D01*
X4638214Y-8088214D01*
X4609643Y-8073929D01*
X4881071Y-8059643D02*
X4895357Y-8073929D01*
X4881071Y-8088214D01*
X4866786Y-8073929D01*
X4881071Y-8059643D01*
X4881071Y-8088214D01*
X4881071Y-7902500D02*
X4895357Y-7916786D01*
X4881071Y-7931071D01*
X4866786Y-7916786D01*
X4881071Y-7902500D01*
X4881071Y-7931071D01*
X2497500Y-8562500D02*
X2537500Y-8602500D01*
X2537500Y-8562500D02*
X2497500Y-8602500D01*
X2881071Y-8418214D02*
X2909643Y-8418214D01*
X2938214Y-8432500D01*
X2952500Y-8446786D01*
X2966786Y-8475357D01*
X2981071Y-8532500D01*
X2981071Y-8603929D01*
X2966786Y-8661072D01*
X2952500Y-8689643D01*
X2938214Y-8703929D01*
X2909643Y-8718214D01*
X2881071Y-8718214D01*
X2852500Y-8703929D01*
X2838214Y-8689643D01*
X2823928Y-8661072D01*
X2809643Y-8603929D01*
X2809643Y-8532500D01*
X2823928Y-8475357D01*
X2838214Y-8446786D01*
X2852500Y-8432500D01*
X2881071Y-8418214D01*
X3109643Y-8689643D02*
X3123928Y-8703929D01*
X3109643Y-8718214D01*
X3095357Y-8703929D01*
X3109643Y-8689643D01*
X3109643Y-8718214D01*
X3381071Y-8518214D02*
X3381071Y-8718214D01*
X3309643Y-8403929D02*
X3238214Y-8618214D01*
X3423928Y-8618214D01*
X3595357Y-8418214D02*
X3623928Y-8418214D01*
X3652500Y-8432500D01*
X3666786Y-8446786D01*
X3681071Y-8475357D01*
X3695357Y-8532500D01*
X3695357Y-8603929D01*
X3681071Y-8661072D01*
X3666786Y-8689643D01*
X3652500Y-8703929D01*
X3623928Y-8718214D01*
X3595357Y-8718214D01*
X3566786Y-8703929D01*
X3552500Y-8689643D01*
X3538214Y-8661072D01*
X3523928Y-8603929D01*
X3523928Y-8532500D01*
X3538214Y-8475357D01*
X3552500Y-8446786D01*
X3566786Y-8432500D01*
X3595357Y-8418214D01*
X3881071Y-8418214D02*
X3909643Y-8418214D01*
X3938214Y-8432500D01*
X3952500Y-8446786D01*
X3966786Y-8475357D01*
X3981071Y-8532500D01*
X3981071Y-8603929D01*
X3966786Y-8661072D01*
X3952500Y-8689643D01*
X3938214Y-8703929D01*
X3909643Y-8718214D01*
X3881071Y-8718214D01*
X3852500Y-8703929D01*
X3838214Y-8689643D01*
X3823928Y-8661072D01*
X3809643Y-8603929D01*
X3809643Y-8532500D01*
X3823928Y-8475357D01*
X3838214Y-8446786D01*
X3852500Y-8432500D01*
X3881071Y-8418214D01*
X4109643Y-8718214D02*
X4109643Y-8518214D01*
X4109643Y-8546786D02*
X4123928Y-8532500D01*
X4152500Y-8518214D01*
X4195357Y-8518214D01*
X4223928Y-8532500D01*
X4238214Y-8561072D01*
X4238214Y-8718214D01*
X4238214Y-8561072D02*
X4252500Y-8532500D01*
X4281071Y-8518214D01*
X4323928Y-8518214D01*
X4352500Y-8532500D01*
X4366786Y-8561072D01*
X4366786Y-8718214D01*
X4509643Y-8718214D02*
X4509643Y-8518214D01*
X4509643Y-8546786D02*
X4523928Y-8532500D01*
X4552500Y-8518214D01*
X4595357Y-8518214D01*
X4623928Y-8532500D01*
X4638214Y-8561072D01*
X4638214Y-8718214D01*
X4638214Y-8561072D02*
X4652500Y-8532500D01*
X4681071Y-8518214D01*
X4723928Y-8518214D01*
X4752500Y-8532500D01*
X4766786Y-8561072D01*
X4766786Y-8718214D01*
X5352500Y-8403929D02*
X5095357Y-8789643D01*
X5738214Y-8418214D02*
X5766786Y-8418214D01*
X5795357Y-8432500D01*
X5809643Y-8446786D01*
X5823928Y-8475357D01*
X5838214Y-8532500D01*
X5838214Y-8603929D01*
X5823928Y-8661072D01*
X5809643Y-8689643D01*
X5795357Y-8703929D01*
X5766786Y-8718214D01*
X5738214Y-8718214D01*
X5709643Y-8703929D01*
X5695357Y-8689643D01*
X5681071Y-8661072D01*
X5666786Y-8603929D01*
X5666786Y-8532500D01*
X5681071Y-8475357D01*
X5695357Y-8446786D01*
X5709643Y-8432500D01*
X5738214Y-8418214D01*
X5966786Y-8689643D02*
X5981071Y-8703929D01*
X5966786Y-8718214D01*
X5952500Y-8703929D01*
X5966786Y-8689643D01*
X5966786Y-8718214D01*
X6166786Y-8418214D02*
X6195357Y-8418214D01*
X6223928Y-8432500D01*
X6238214Y-8446786D01*
X6252500Y-8475357D01*
X6266786Y-8532500D01*
X6266786Y-8603929D01*
X6252500Y-8661072D01*
X6238214Y-8689643D01*
X6223928Y-8703929D01*
X6195357Y-8718214D01*
X6166786Y-8718214D01*
X6138214Y-8703929D01*
X6123928Y-8689643D01*
X6109643Y-8661072D01*
X6095357Y-8603929D01*
X6095357Y-8532500D01*
X6109643Y-8475357D01*
X6123928Y-8446786D01*
X6138214Y-8432500D01*
X6166786Y-8418214D01*
X6552500Y-8718214D02*
X6381071Y-8718214D01*
X6466786Y-8718214D02*
X6466786Y-8418214D01*
X6438214Y-8461072D01*
X6409643Y-8489643D01*
X6381071Y-8503929D01*
X6823928Y-8418214D02*
X6681071Y-8418214D01*
X6666786Y-8561072D01*
X6681071Y-8546786D01*
X6709643Y-8532500D01*
X6781071Y-8532500D01*
X6809643Y-8546786D01*
X6823928Y-8561072D01*
X6838214Y-8589643D01*
X6838214Y-8661072D01*
X6823928Y-8689643D01*
X6809643Y-8703929D01*
X6781071Y-8718214D01*
X6709643Y-8718214D01*
X6681071Y-8703929D01*
X6666786Y-8689643D01*
X6938214Y-8418214D02*
X7138214Y-8418214D01*
X7009643Y-8718214D01*
X7238214Y-8418214D02*
X7238214Y-8475357D01*
X7352500Y-8418214D02*
X7352500Y-8475357D01*
X7795357Y-8832500D02*
X7781071Y-8818214D01*
X7752500Y-8775357D01*
X7738214Y-8746786D01*
X7723928Y-8703929D01*
X7709643Y-8632500D01*
X7709643Y-8575357D01*
X7723928Y-8503929D01*
X7738214Y-8461072D01*
X7752500Y-8432500D01*
X7781071Y-8389643D01*
X7795357Y-8375357D01*
X8066786Y-8718214D02*
X7895357Y-8718214D01*
X7981071Y-8718214D02*
X7981071Y-8418214D01*
X7952500Y-8461072D01*
X7923928Y-8489643D01*
X7895357Y-8503929D01*
X8352500Y-8718214D02*
X8181071Y-8718214D01*
X8266786Y-8718214D02*
X8266786Y-8418214D01*
X8238214Y-8461072D01*
X8209643Y-8489643D01*
X8181071Y-8503929D01*
X8709643Y-8718214D02*
X8709643Y-8418214D01*
X8838214Y-8718214D02*
X8838214Y-8561072D01*
X8823928Y-8532500D01*
X8795357Y-8518214D01*
X8752500Y-8518214D01*
X8723928Y-8532500D01*
X8709643Y-8546786D01*
X9023928Y-8718214D02*
X8995357Y-8703929D01*
X8981071Y-8689643D01*
X8966786Y-8661072D01*
X8966786Y-8575357D01*
X8981071Y-8546786D01*
X8995357Y-8532500D01*
X9023928Y-8518214D01*
X9066786Y-8518214D01*
X9095357Y-8532500D01*
X9109643Y-8546786D01*
X9123928Y-8575357D01*
X9123928Y-8661072D01*
X9109643Y-8689643D01*
X9095357Y-8703929D01*
X9066786Y-8718214D01*
X9023928Y-8718214D01*
X9295357Y-8718214D02*
X9266786Y-8703929D01*
X9252500Y-8675357D01*
X9252500Y-8418214D01*
X9523928Y-8703929D02*
X9495357Y-8718214D01*
X9438214Y-8718214D01*
X9409643Y-8703929D01*
X9395357Y-8675357D01*
X9395357Y-8561072D01*
X9409643Y-8532500D01*
X9438214Y-8518214D01*
X9495357Y-8518214D01*
X9523928Y-8532500D01*
X9538214Y-8561072D01*
X9538214Y-8589643D01*
X9395357Y-8618214D01*
X9652500Y-8703929D02*
X9681071Y-8718214D01*
X9738214Y-8718214D01*
X9766786Y-8703929D01*
X9781071Y-8675357D01*
X9781071Y-8661072D01*
X9766786Y-8632500D01*
X9738214Y-8618214D01*
X9695357Y-8618214D01*
X9666786Y-8603929D01*
X9652500Y-8575357D01*
X9652500Y-8561072D01*
X9666786Y-8532500D01*
X9695357Y-8518214D01*
X9738214Y-8518214D01*
X9766786Y-8532500D01*
X9881071Y-8832500D02*
X9895357Y-8818214D01*
X9923928Y-8775357D01*
X9938214Y-8746786D01*
X9952500Y-8703929D01*
X9966786Y-8632500D01*
X9966786Y-8575357D01*
X9952500Y-8503929D01*
X9938214Y-8461072D01*
X9923928Y-8432500D01*
X9895357Y-8389643D01*
X9881071Y-8375357D01*
X2537500Y-8978500D02*
G75*
G03*
X2537500Y-8978500I-25000J0D01*
G01*
X2881071Y-8814214D02*
X2909643Y-8814214D01*
X2938214Y-8828500D01*
X2952500Y-8842786D01*
X2966786Y-8871357D01*
X2981071Y-8928500D01*
X2981071Y-8999929D01*
X2966786Y-9057072D01*
X2952500Y-9085643D01*
X2938214Y-9099929D01*
X2909643Y-9114214D01*
X2881071Y-9114214D01*
X2852500Y-9099929D01*
X2838214Y-9085643D01*
X2823928Y-9057072D01*
X2809643Y-8999929D01*
X2809643Y-8928500D01*
X2823928Y-8871357D01*
X2838214Y-8842786D01*
X2852500Y-8828500D01*
X2881071Y-8814214D01*
X3109643Y-9085643D02*
X3123928Y-9099929D01*
X3109643Y-9114214D01*
X3095357Y-9099929D01*
X3109643Y-9085643D01*
X3109643Y-9114214D01*
X3395357Y-8814214D02*
X3252500Y-8814214D01*
X3238214Y-8957072D01*
X3252500Y-8942786D01*
X3281071Y-8928500D01*
X3352500Y-8928500D01*
X3381071Y-8942786D01*
X3395357Y-8957072D01*
X3409643Y-8985643D01*
X3409643Y-9057072D01*
X3395357Y-9085643D01*
X3381071Y-9099929D01*
X3352500Y-9114214D01*
X3281071Y-9114214D01*
X3252500Y-9099929D01*
X3238214Y-9085643D01*
X3595357Y-8814214D02*
X3623928Y-8814214D01*
X3652500Y-8828500D01*
X3666786Y-8842786D01*
X3681071Y-8871357D01*
X3695357Y-8928500D01*
X3695357Y-8999929D01*
X3681071Y-9057072D01*
X3666786Y-9085643D01*
X3652500Y-9099929D01*
X3623928Y-9114214D01*
X3595357Y-9114214D01*
X3566786Y-9099929D01*
X3552500Y-9085643D01*
X3538214Y-9057072D01*
X3523928Y-8999929D01*
X3523928Y-8928500D01*
X3538214Y-8871357D01*
X3552500Y-8842786D01*
X3566786Y-8828500D01*
X3595357Y-8814214D01*
X3881071Y-8814214D02*
X3909643Y-8814214D01*
X3938214Y-8828500D01*
X3952500Y-8842786D01*
X3966786Y-8871357D01*
X3981071Y-8928500D01*
X3981071Y-8999929D01*
X3966786Y-9057072D01*
X3952500Y-9085643D01*
X3938214Y-9099929D01*
X3909643Y-9114214D01*
X3881071Y-9114214D01*
X3852500Y-9099929D01*
X3838214Y-9085643D01*
X3823928Y-9057072D01*
X3809643Y-8999929D01*
X3809643Y-8928500D01*
X3823928Y-8871357D01*
X3838214Y-8842786D01*
X3852500Y-8828500D01*
X3881071Y-8814214D01*
X4109643Y-9114214D02*
X4109643Y-8914214D01*
X4109643Y-8942786D02*
X4123928Y-8928500D01*
X4152500Y-8914214D01*
X4195357Y-8914214D01*
X4223928Y-8928500D01*
X4238214Y-8957072D01*
X4238214Y-9114214D01*
X4238214Y-8957072D02*
X4252500Y-8928500D01*
X4281071Y-8914214D01*
X4323928Y-8914214D01*
X4352500Y-8928500D01*
X4366786Y-8957072D01*
X4366786Y-9114214D01*
X4509643Y-9114214D02*
X4509643Y-8914214D01*
X4509643Y-8942786D02*
X4523928Y-8928500D01*
X4552500Y-8914214D01*
X4595357Y-8914214D01*
X4623928Y-8928500D01*
X4638214Y-8957072D01*
X4638214Y-9114214D01*
X4638214Y-8957072D02*
X4652500Y-8928500D01*
X4681071Y-8914214D01*
X4723928Y-8914214D01*
X4752500Y-8928500D01*
X4766786Y-8957072D01*
X4766786Y-9114214D01*
X5352500Y-8799929D02*
X5095357Y-9185643D01*
X5738214Y-8814214D02*
X5766786Y-8814214D01*
X5795357Y-8828500D01*
X5809643Y-8842786D01*
X5823928Y-8871357D01*
X5838214Y-8928500D01*
X5838214Y-8999929D01*
X5823928Y-9057072D01*
X5809643Y-9085643D01*
X5795357Y-9099929D01*
X5766786Y-9114214D01*
X5738214Y-9114214D01*
X5709643Y-9099929D01*
X5695357Y-9085643D01*
X5681071Y-9057072D01*
X5666786Y-8999929D01*
X5666786Y-8928500D01*
X5681071Y-8871357D01*
X5695357Y-8842786D01*
X5709643Y-8828500D01*
X5738214Y-8814214D01*
X5966786Y-9085643D02*
X5981071Y-9099929D01*
X5966786Y-9114214D01*
X5952500Y-9099929D01*
X5966786Y-9085643D01*
X5966786Y-9114214D01*
X6166786Y-8814214D02*
X6195357Y-8814214D01*
X6223928Y-8828500D01*
X6238214Y-8842786D01*
X6252500Y-8871357D01*
X6266786Y-8928500D01*
X6266786Y-8999929D01*
X6252500Y-9057072D01*
X6238214Y-9085643D01*
X6223928Y-9099929D01*
X6195357Y-9114214D01*
X6166786Y-9114214D01*
X6138214Y-9099929D01*
X6123928Y-9085643D01*
X6109643Y-9057072D01*
X6095357Y-8999929D01*
X6095357Y-8928500D01*
X6109643Y-8871357D01*
X6123928Y-8842786D01*
X6138214Y-8828500D01*
X6166786Y-8814214D01*
X6552500Y-9114214D02*
X6381071Y-9114214D01*
X6466786Y-9114214D02*
X6466786Y-8814214D01*
X6438214Y-8857072D01*
X6409643Y-8885643D01*
X6381071Y-8899929D01*
X6695357Y-9114214D02*
X6752500Y-9114214D01*
X6781071Y-9099929D01*
X6795357Y-9085643D01*
X6823928Y-9042786D01*
X6838214Y-8985643D01*
X6838214Y-8871357D01*
X6823928Y-8842786D01*
X6809643Y-8828500D01*
X6781071Y-8814214D01*
X6723928Y-8814214D01*
X6695357Y-8828500D01*
X6681071Y-8842786D01*
X6666786Y-8871357D01*
X6666786Y-8942786D01*
X6681071Y-8971357D01*
X6695357Y-8985643D01*
X6723928Y-8999929D01*
X6781071Y-8999929D01*
X6809643Y-8985643D01*
X6823928Y-8971357D01*
X6838214Y-8942786D01*
X6938214Y-8814214D02*
X7138214Y-8814214D01*
X7009643Y-9114214D01*
X7238214Y-8814214D02*
X7238214Y-8871357D01*
X7352500Y-8814214D02*
X7352500Y-8871357D01*
X7795357Y-9228500D02*
X7781071Y-9214214D01*
X7752500Y-9171357D01*
X7738214Y-9142786D01*
X7723928Y-9099929D01*
X7709643Y-9028500D01*
X7709643Y-8971357D01*
X7723928Y-8899929D01*
X7738214Y-8857072D01*
X7752500Y-8828500D01*
X7781071Y-8785643D01*
X7795357Y-8771357D01*
X7881071Y-8814214D02*
X8066786Y-8814214D01*
X7966786Y-8928500D01*
X8009643Y-8928500D01*
X8038214Y-8942786D01*
X8052500Y-8957072D01*
X8066786Y-8985643D01*
X8066786Y-9057072D01*
X8052500Y-9085643D01*
X8038214Y-9099929D01*
X8009643Y-9114214D01*
X7923928Y-9114214D01*
X7895357Y-9099929D01*
X7881071Y-9085643D01*
X8323928Y-8814214D02*
X8266786Y-8814214D01*
X8238214Y-8828500D01*
X8223928Y-8842786D01*
X8195357Y-8885643D01*
X8181071Y-8942786D01*
X8181071Y-9057072D01*
X8195357Y-9085643D01*
X8209643Y-9099929D01*
X8238214Y-9114214D01*
X8295357Y-9114214D01*
X8323928Y-9099929D01*
X8338214Y-9085643D01*
X8352500Y-9057072D01*
X8352500Y-8985643D01*
X8338214Y-8957072D01*
X8323928Y-8942786D01*
X8295357Y-8928500D01*
X8238214Y-8928500D01*
X8209643Y-8942786D01*
X8195357Y-8957072D01*
X8181071Y-8985643D01*
X8709643Y-9114214D02*
X8709643Y-8814214D01*
X8838214Y-9114214D02*
X8838214Y-8957072D01*
X8823928Y-8928500D01*
X8795357Y-8914214D01*
X8752500Y-8914214D01*
X8723928Y-8928500D01*
X8709643Y-8942786D01*
X9023928Y-9114214D02*
X8995357Y-9099929D01*
X8981071Y-9085643D01*
X8966786Y-9057072D01*
X8966786Y-8971357D01*
X8981071Y-8942786D01*
X8995357Y-8928500D01*
X9023928Y-8914214D01*
X9066786Y-8914214D01*
X9095357Y-8928500D01*
X9109643Y-8942786D01*
X9123928Y-8971357D01*
X9123928Y-9057072D01*
X9109643Y-9085643D01*
X9095357Y-9099929D01*
X9066786Y-9114214D01*
X9023928Y-9114214D01*
X9295357Y-9114214D02*
X9266786Y-9099929D01*
X9252500Y-9071357D01*
X9252500Y-8814214D01*
X9523928Y-9099929D02*
X9495357Y-9114214D01*
X9438214Y-9114214D01*
X9409643Y-9099929D01*
X9395357Y-9071357D01*
X9395357Y-8957072D01*
X9409643Y-8928500D01*
X9438214Y-8914214D01*
X9495357Y-8914214D01*
X9523928Y-8928500D01*
X9538214Y-8957072D01*
X9538214Y-8985643D01*
X9395357Y-9014214D01*
X9652500Y-9099929D02*
X9681071Y-9114214D01*
X9738214Y-9114214D01*
X9766786Y-9099929D01*
X9781071Y-9071357D01*
X9781071Y-9057072D01*
X9766786Y-9028500D01*
X9738214Y-9014214D01*
X9695357Y-9014214D01*
X9666786Y-8999929D01*
X9652500Y-8971357D01*
X9652500Y-8957072D01*
X9666786Y-8928500D01*
X9695357Y-8914214D01*
X9738214Y-8914214D01*
X9766786Y-8928500D01*
X9881071Y-9228500D02*
X9895357Y-9214214D01*
X9923928Y-9171357D01*
X9938214Y-9142786D01*
X9952500Y-9099929D01*
X9966786Y-9028500D01*
X9966786Y-8971357D01*
X9952500Y-8899929D01*
X9938214Y-8857072D01*
X9923928Y-8828500D01*
X9895357Y-8785643D01*
X9881071Y-8771357D01*
X2499400Y-9336400D02*
X2499400Y-9412600D01*
X2461300Y-9374500D02*
X2537500Y-9374500D01*
X2881071Y-9210214D02*
X2909643Y-9210214D01*
X2938214Y-9224500D01*
X2952500Y-9238786D01*
X2966786Y-9267357D01*
X2981071Y-9324500D01*
X2981071Y-9395929D01*
X2966786Y-9453072D01*
X2952500Y-9481643D01*
X2938214Y-9495929D01*
X2909643Y-9510214D01*
X2881071Y-9510214D01*
X2852500Y-9495929D01*
X2838214Y-9481643D01*
X2823928Y-9453072D01*
X2809643Y-9395929D01*
X2809643Y-9324500D01*
X2823928Y-9267357D01*
X2838214Y-9238786D01*
X2852500Y-9224500D01*
X2881071Y-9210214D01*
X3109643Y-9481643D02*
X3123928Y-9495929D01*
X3109643Y-9510214D01*
X3095357Y-9495929D01*
X3109643Y-9481643D01*
X3109643Y-9510214D01*
X3223928Y-9210214D02*
X3423928Y-9210214D01*
X3295357Y-9510214D01*
X3666786Y-9210214D02*
X3609643Y-9210214D01*
X3581071Y-9224500D01*
X3566786Y-9238786D01*
X3538214Y-9281643D01*
X3523928Y-9338786D01*
X3523928Y-9453072D01*
X3538214Y-9481643D01*
X3552500Y-9495929D01*
X3581071Y-9510214D01*
X3638214Y-9510214D01*
X3666786Y-9495929D01*
X3681071Y-9481643D01*
X3695357Y-9453072D01*
X3695357Y-9381643D01*
X3681071Y-9353072D01*
X3666786Y-9338786D01*
X3638214Y-9324500D01*
X3581071Y-9324500D01*
X3552500Y-9338786D01*
X3538214Y-9353072D01*
X3523928Y-9381643D01*
X3809643Y-9238786D02*
X3823928Y-9224500D01*
X3852500Y-9210214D01*
X3923928Y-9210214D01*
X3952500Y-9224500D01*
X3966786Y-9238786D01*
X3981071Y-9267357D01*
X3981071Y-9295929D01*
X3966786Y-9338786D01*
X3795357Y-9510214D01*
X3981071Y-9510214D01*
X4109643Y-9510214D02*
X4109643Y-9310214D01*
X4109643Y-9338786D02*
X4123928Y-9324500D01*
X4152500Y-9310214D01*
X4195357Y-9310214D01*
X4223928Y-9324500D01*
X4238214Y-9353072D01*
X4238214Y-9510214D01*
X4238214Y-9353072D02*
X4252500Y-9324500D01*
X4281071Y-9310214D01*
X4323928Y-9310214D01*
X4352500Y-9324500D01*
X4366786Y-9353072D01*
X4366786Y-9510214D01*
X4509643Y-9510214D02*
X4509643Y-9310214D01*
X4509643Y-9338786D02*
X4523928Y-9324500D01*
X4552500Y-9310214D01*
X4595357Y-9310214D01*
X4623928Y-9324500D01*
X4638214Y-9353072D01*
X4638214Y-9510214D01*
X4638214Y-9353072D02*
X4652500Y-9324500D01*
X4681071Y-9310214D01*
X4723928Y-9310214D01*
X4752500Y-9324500D01*
X4766786Y-9353072D01*
X4766786Y-9510214D01*
X5352500Y-9195929D02*
X5095357Y-9581643D01*
X5738214Y-9210214D02*
X5766786Y-9210214D01*
X5795357Y-9224500D01*
X5809643Y-9238786D01*
X5823928Y-9267357D01*
X5838214Y-9324500D01*
X5838214Y-9395929D01*
X5823928Y-9453072D01*
X5809643Y-9481643D01*
X5795357Y-9495929D01*
X5766786Y-9510214D01*
X5738214Y-9510214D01*
X5709643Y-9495929D01*
X5695357Y-9481643D01*
X5681071Y-9453072D01*
X5666786Y-9395929D01*
X5666786Y-9324500D01*
X5681071Y-9267357D01*
X5695357Y-9238786D01*
X5709643Y-9224500D01*
X5738214Y-9210214D01*
X5966786Y-9481643D02*
X5981071Y-9495929D01*
X5966786Y-9510214D01*
X5952500Y-9495929D01*
X5966786Y-9481643D01*
X5966786Y-9510214D01*
X6166786Y-9210214D02*
X6195357Y-9210214D01*
X6223928Y-9224500D01*
X6238214Y-9238786D01*
X6252500Y-9267357D01*
X6266786Y-9324500D01*
X6266786Y-9395929D01*
X6252500Y-9453072D01*
X6238214Y-9481643D01*
X6223928Y-9495929D01*
X6195357Y-9510214D01*
X6166786Y-9510214D01*
X6138214Y-9495929D01*
X6123928Y-9481643D01*
X6109643Y-9453072D01*
X6095357Y-9395929D01*
X6095357Y-9324500D01*
X6109643Y-9267357D01*
X6123928Y-9238786D01*
X6138214Y-9224500D01*
X6166786Y-9210214D01*
X6366786Y-9210214D02*
X6552500Y-9210214D01*
X6452500Y-9324500D01*
X6495357Y-9324500D01*
X6523928Y-9338786D01*
X6538214Y-9353072D01*
X6552500Y-9381643D01*
X6552500Y-9453072D01*
X6538214Y-9481643D01*
X6523928Y-9495929D01*
X6495357Y-9510214D01*
X6409643Y-9510214D01*
X6381071Y-9495929D01*
X6366786Y-9481643D01*
X6738214Y-9210214D02*
X6766786Y-9210214D01*
X6795357Y-9224500D01*
X6809643Y-9238786D01*
X6823928Y-9267357D01*
X6838214Y-9324500D01*
X6838214Y-9395929D01*
X6823928Y-9453072D01*
X6809643Y-9481643D01*
X6795357Y-9495929D01*
X6766786Y-9510214D01*
X6738214Y-9510214D01*
X6709643Y-9495929D01*
X6695357Y-9481643D01*
X6681071Y-9453072D01*
X6666786Y-9395929D01*
X6666786Y-9324500D01*
X6681071Y-9267357D01*
X6695357Y-9238786D01*
X6709643Y-9224500D01*
X6738214Y-9210214D01*
X7023928Y-9210214D02*
X7052500Y-9210214D01*
X7081071Y-9224500D01*
X7095357Y-9238786D01*
X7109643Y-9267357D01*
X7123928Y-9324500D01*
X7123928Y-9395929D01*
X7109643Y-9453072D01*
X7095357Y-9481643D01*
X7081071Y-9495929D01*
X7052500Y-9510214D01*
X7023928Y-9510214D01*
X6995357Y-9495929D01*
X6981071Y-9481643D01*
X6966786Y-9453072D01*
X6952500Y-9395929D01*
X6952500Y-9324500D01*
X6966786Y-9267357D01*
X6981071Y-9238786D01*
X6995357Y-9224500D01*
X7023928Y-9210214D01*
X7238214Y-9210214D02*
X7238214Y-9267357D01*
X7352500Y-9210214D02*
X7352500Y-9267357D01*
X7795357Y-9624500D02*
X7781071Y-9610214D01*
X7752500Y-9567357D01*
X7738214Y-9538786D01*
X7723928Y-9495929D01*
X7709643Y-9424500D01*
X7709643Y-9367357D01*
X7723928Y-9295929D01*
X7738214Y-9253072D01*
X7752500Y-9224500D01*
X7781071Y-9181643D01*
X7795357Y-9167357D01*
X8052500Y-9210214D02*
X7909643Y-9210214D01*
X7895357Y-9353072D01*
X7909643Y-9338786D01*
X7938214Y-9324500D01*
X8009643Y-9324500D01*
X8038214Y-9338786D01*
X8052500Y-9353072D01*
X8066786Y-9381643D01*
X8066786Y-9453072D01*
X8052500Y-9481643D01*
X8038214Y-9495929D01*
X8009643Y-9510214D01*
X7938214Y-9510214D01*
X7909643Y-9495929D01*
X7895357Y-9481643D01*
X8181071Y-9238786D02*
X8195357Y-9224500D01*
X8223928Y-9210214D01*
X8295357Y-9210214D01*
X8323928Y-9224500D01*
X8338214Y-9238786D01*
X8352500Y-9267357D01*
X8352500Y-9295929D01*
X8338214Y-9338786D01*
X8166786Y-9510214D01*
X8352500Y-9510214D01*
X8709643Y-9510214D02*
X8709643Y-9210214D01*
X8838214Y-9510214D02*
X8838214Y-9353072D01*
X8823928Y-9324500D01*
X8795357Y-9310214D01*
X8752500Y-9310214D01*
X8723928Y-9324500D01*
X8709643Y-9338786D01*
X9023928Y-9510214D02*
X8995357Y-9495929D01*
X8981071Y-9481643D01*
X8966786Y-9453072D01*
X8966786Y-9367357D01*
X8981071Y-9338786D01*
X8995357Y-9324500D01*
X9023928Y-9310214D01*
X9066786Y-9310214D01*
X9095357Y-9324500D01*
X9109643Y-9338786D01*
X9123928Y-9367357D01*
X9123928Y-9453072D01*
X9109643Y-9481643D01*
X9095357Y-9495929D01*
X9066786Y-9510214D01*
X9023928Y-9510214D01*
X9295357Y-9510214D02*
X9266786Y-9495929D01*
X9252500Y-9467357D01*
X9252500Y-9210214D01*
X9523928Y-9495929D02*
X9495357Y-9510214D01*
X9438214Y-9510214D01*
X9409643Y-9495929D01*
X9395357Y-9467357D01*
X9395357Y-9353072D01*
X9409643Y-9324500D01*
X9438214Y-9310214D01*
X9495357Y-9310214D01*
X9523928Y-9324500D01*
X9538214Y-9353072D01*
X9538214Y-9381643D01*
X9395357Y-9410214D01*
X9652500Y-9495929D02*
X9681071Y-9510214D01*
X9738214Y-9510214D01*
X9766786Y-9495929D01*
X9781071Y-9467357D01*
X9781071Y-9453072D01*
X9766786Y-9424500D01*
X9738214Y-9410214D01*
X9695357Y-9410214D01*
X9666786Y-9395929D01*
X9652500Y-9367357D01*
X9652500Y-9353072D01*
X9666786Y-9324500D01*
X9695357Y-9310214D01*
X9738214Y-9310214D01*
X9766786Y-9324500D01*
X9881071Y-9624500D02*
X9895357Y-9610214D01*
X9923928Y-9567357D01*
X9938214Y-9538786D01*
X9952500Y-9495929D01*
X9966786Y-9424500D01*
X9966786Y-9367357D01*
X9952500Y-9295929D01*
X9938214Y-9253072D01*
X9923928Y-9224500D01*
X9895357Y-9181643D01*
X9881071Y-9167357D01*
X2525784Y-9798785D02*
X2525784Y-9742216D01*
X2469215Y-9742216D01*
X2469215Y-9798785D01*
X2525784Y-9798785D01*
X2881071Y-9606214D02*
X2909643Y-9606214D01*
X2938214Y-9620500D01*
X2952500Y-9634786D01*
X2966786Y-9663357D01*
X2981071Y-9720500D01*
X2981071Y-9791929D01*
X2966786Y-9849072D01*
X2952500Y-9877643D01*
X2938214Y-9891929D01*
X2909643Y-9906214D01*
X2881071Y-9906214D01*
X2852500Y-9891929D01*
X2838214Y-9877643D01*
X2823928Y-9849072D01*
X2809643Y-9791929D01*
X2809643Y-9720500D01*
X2823928Y-9663357D01*
X2838214Y-9634786D01*
X2852500Y-9620500D01*
X2881071Y-9606214D01*
X3109643Y-9877643D02*
X3123928Y-9891929D01*
X3109643Y-9906214D01*
X3095357Y-9891929D01*
X3109643Y-9877643D01*
X3109643Y-9906214D01*
X3295357Y-9734786D02*
X3266786Y-9720500D01*
X3252500Y-9706214D01*
X3238214Y-9677643D01*
X3238214Y-9663357D01*
X3252500Y-9634786D01*
X3266786Y-9620500D01*
X3295357Y-9606214D01*
X3352500Y-9606214D01*
X3381071Y-9620500D01*
X3395357Y-9634786D01*
X3409643Y-9663357D01*
X3409643Y-9677643D01*
X3395357Y-9706214D01*
X3381071Y-9720500D01*
X3352500Y-9734786D01*
X3295357Y-9734786D01*
X3266786Y-9749072D01*
X3252500Y-9763357D01*
X3238214Y-9791929D01*
X3238214Y-9849072D01*
X3252500Y-9877643D01*
X3266786Y-9891929D01*
X3295357Y-9906214D01*
X3352500Y-9906214D01*
X3381071Y-9891929D01*
X3395357Y-9877643D01*
X3409643Y-9849072D01*
X3409643Y-9791929D01*
X3395357Y-9763357D01*
X3381071Y-9749072D01*
X3352500Y-9734786D01*
X3595357Y-9606214D02*
X3623928Y-9606214D01*
X3652500Y-9620500D01*
X3666786Y-9634786D01*
X3681071Y-9663357D01*
X3695357Y-9720500D01*
X3695357Y-9791929D01*
X3681071Y-9849072D01*
X3666786Y-9877643D01*
X3652500Y-9891929D01*
X3623928Y-9906214D01*
X3595357Y-9906214D01*
X3566786Y-9891929D01*
X3552500Y-9877643D01*
X3538214Y-9849072D01*
X3523928Y-9791929D01*
X3523928Y-9720500D01*
X3538214Y-9663357D01*
X3552500Y-9634786D01*
X3566786Y-9620500D01*
X3595357Y-9606214D01*
X3881071Y-9606214D02*
X3909643Y-9606214D01*
X3938214Y-9620500D01*
X3952500Y-9634786D01*
X3966786Y-9663357D01*
X3981071Y-9720500D01*
X3981071Y-9791929D01*
X3966786Y-9849072D01*
X3952500Y-9877643D01*
X3938214Y-9891929D01*
X3909643Y-9906214D01*
X3881071Y-9906214D01*
X3852500Y-9891929D01*
X3838214Y-9877643D01*
X3823928Y-9849072D01*
X3809643Y-9791929D01*
X3809643Y-9720500D01*
X3823928Y-9663357D01*
X3838214Y-9634786D01*
X3852500Y-9620500D01*
X3881071Y-9606214D01*
X4109643Y-9906214D02*
X4109643Y-9706214D01*
X4109643Y-9734786D02*
X4123928Y-9720500D01*
X4152500Y-9706214D01*
X4195357Y-9706214D01*
X4223928Y-9720500D01*
X4238214Y-9749072D01*
X4238214Y-9906214D01*
X4238214Y-9749072D02*
X4252500Y-9720500D01*
X4281071Y-9706214D01*
X4323928Y-9706214D01*
X4352500Y-9720500D01*
X4366786Y-9749072D01*
X4366786Y-9906214D01*
X4509643Y-9906214D02*
X4509643Y-9706214D01*
X4509643Y-9734786D02*
X4523928Y-9720500D01*
X4552500Y-9706214D01*
X4595357Y-9706214D01*
X4623928Y-9720500D01*
X4638214Y-9749072D01*
X4638214Y-9906214D01*
X4638214Y-9749072D02*
X4652500Y-9720500D01*
X4681071Y-9706214D01*
X4723928Y-9706214D01*
X4752500Y-9720500D01*
X4766786Y-9749072D01*
X4766786Y-9906214D01*
X5352500Y-9591929D02*
X5095357Y-9977643D01*
X5738214Y-9606214D02*
X5766786Y-9606214D01*
X5795357Y-9620500D01*
X5809643Y-9634786D01*
X5823928Y-9663357D01*
X5838214Y-9720500D01*
X5838214Y-9791929D01*
X5823928Y-9849072D01*
X5809643Y-9877643D01*
X5795357Y-9891929D01*
X5766786Y-9906214D01*
X5738214Y-9906214D01*
X5709643Y-9891929D01*
X5695357Y-9877643D01*
X5681071Y-9849072D01*
X5666786Y-9791929D01*
X5666786Y-9720500D01*
X5681071Y-9663357D01*
X5695357Y-9634786D01*
X5709643Y-9620500D01*
X5738214Y-9606214D01*
X5966786Y-9877643D02*
X5981071Y-9891929D01*
X5966786Y-9906214D01*
X5952500Y-9891929D01*
X5966786Y-9877643D01*
X5966786Y-9906214D01*
X6166786Y-9606214D02*
X6195357Y-9606214D01*
X6223928Y-9620500D01*
X6238214Y-9634786D01*
X6252500Y-9663357D01*
X6266786Y-9720500D01*
X6266786Y-9791929D01*
X6252500Y-9849072D01*
X6238214Y-9877643D01*
X6223928Y-9891929D01*
X6195357Y-9906214D01*
X6166786Y-9906214D01*
X6138214Y-9891929D01*
X6123928Y-9877643D01*
X6109643Y-9849072D01*
X6095357Y-9791929D01*
X6095357Y-9720500D01*
X6109643Y-9663357D01*
X6123928Y-9634786D01*
X6138214Y-9620500D01*
X6166786Y-9606214D01*
X6366786Y-9606214D02*
X6552500Y-9606214D01*
X6452500Y-9720500D01*
X6495357Y-9720500D01*
X6523928Y-9734786D01*
X6538214Y-9749072D01*
X6552500Y-9777643D01*
X6552500Y-9849072D01*
X6538214Y-9877643D01*
X6523928Y-9891929D01*
X6495357Y-9906214D01*
X6409643Y-9906214D01*
X6381071Y-9891929D01*
X6366786Y-9877643D01*
X6838214Y-9906214D02*
X6666786Y-9906214D01*
X6752500Y-9906214D02*
X6752500Y-9606214D01*
X6723928Y-9649072D01*
X6695357Y-9677643D01*
X6666786Y-9691929D01*
X7109643Y-9606214D02*
X6966786Y-9606214D01*
X6952500Y-9749072D01*
X6966786Y-9734786D01*
X6995357Y-9720500D01*
X7066786Y-9720500D01*
X7095357Y-9734786D01*
X7109643Y-9749072D01*
X7123928Y-9777643D01*
X7123928Y-9849072D01*
X7109643Y-9877643D01*
X7095357Y-9891929D01*
X7066786Y-9906214D01*
X6995357Y-9906214D01*
X6966786Y-9891929D01*
X6952500Y-9877643D01*
X7238214Y-9606214D02*
X7238214Y-9663357D01*
X7352500Y-9606214D02*
X7352500Y-9663357D01*
X7795357Y-10020500D02*
X7781071Y-10006214D01*
X7752500Y-9963357D01*
X7738214Y-9934786D01*
X7723928Y-9891929D01*
X7709643Y-9820500D01*
X7709643Y-9763357D01*
X7723928Y-9691929D01*
X7738214Y-9649072D01*
X7752500Y-9620500D01*
X7781071Y-9577643D01*
X7795357Y-9563357D01*
X7895357Y-9634786D02*
X7909643Y-9620500D01*
X7938214Y-9606214D01*
X8009643Y-9606214D01*
X8038214Y-9620500D01*
X8052500Y-9634786D01*
X8066786Y-9663357D01*
X8066786Y-9691929D01*
X8052500Y-9734786D01*
X7881071Y-9906214D01*
X8066786Y-9906214D01*
X8423928Y-9906214D02*
X8423928Y-9606214D01*
X8552500Y-9906214D02*
X8552500Y-9749072D01*
X8538214Y-9720500D01*
X8509643Y-9706214D01*
X8466786Y-9706214D01*
X8438214Y-9720500D01*
X8423928Y-9734786D01*
X8738214Y-9906214D02*
X8709643Y-9891929D01*
X8695357Y-9877643D01*
X8681071Y-9849072D01*
X8681071Y-9763357D01*
X8695357Y-9734786D01*
X8709643Y-9720500D01*
X8738214Y-9706214D01*
X8781071Y-9706214D01*
X8809643Y-9720500D01*
X8823928Y-9734786D01*
X8838214Y-9763357D01*
X8838214Y-9849072D01*
X8823928Y-9877643D01*
X8809643Y-9891929D01*
X8781071Y-9906214D01*
X8738214Y-9906214D01*
X9009643Y-9906214D02*
X8981071Y-9891929D01*
X8966786Y-9863357D01*
X8966786Y-9606214D01*
X9238214Y-9891929D02*
X9209643Y-9906214D01*
X9152500Y-9906214D01*
X9123928Y-9891929D01*
X9109643Y-9863357D01*
X9109643Y-9749072D01*
X9123928Y-9720500D01*
X9152500Y-9706214D01*
X9209643Y-9706214D01*
X9238214Y-9720500D01*
X9252500Y-9749072D01*
X9252500Y-9777643D01*
X9109643Y-9806214D01*
X9366786Y-9891929D02*
X9395357Y-9906214D01*
X9452500Y-9906214D01*
X9481071Y-9891929D01*
X9495357Y-9863357D01*
X9495357Y-9849072D01*
X9481071Y-9820500D01*
X9452500Y-9806214D01*
X9409643Y-9806214D01*
X9381071Y-9791929D01*
X9366786Y-9763357D01*
X9366786Y-9749072D01*
X9381071Y-9720500D01*
X9409643Y-9706214D01*
X9452500Y-9706214D01*
X9481071Y-9720500D01*
X9595357Y-10020500D02*
X9609643Y-10006214D01*
X9638214Y-9963357D01*
X9652500Y-9934786D01*
X9666786Y-9891929D01*
X9681071Y-9820500D01*
X9681071Y-9763357D01*
X9666786Y-9691929D01*
X9652500Y-9649072D01*
X9638214Y-9620500D01*
X9609643Y-9577643D01*
X9595357Y-9563357D01*
X2487500Y-10216500D02*
X2537500Y-10166500D01*
X2487500Y-10116500D01*
X2437500Y-10166500D01*
X2487500Y-10216500D01*
X2981071Y-10302214D02*
X2809643Y-10302214D01*
X2895357Y-10302214D02*
X2895357Y-10002214D01*
X2866786Y-10045072D01*
X2838214Y-10073643D01*
X2809643Y-10087929D01*
X3109643Y-10273643D02*
X3123928Y-10287929D01*
X3109643Y-10302214D01*
X3095357Y-10287929D01*
X3109643Y-10273643D01*
X3109643Y-10302214D01*
X3309643Y-10002214D02*
X3338214Y-10002214D01*
X3366786Y-10016500D01*
X3381071Y-10030786D01*
X3395357Y-10059357D01*
X3409643Y-10116500D01*
X3409643Y-10187929D01*
X3395357Y-10245072D01*
X3381071Y-10273643D01*
X3366786Y-10287929D01*
X3338214Y-10302214D01*
X3309643Y-10302214D01*
X3281071Y-10287929D01*
X3266786Y-10273643D01*
X3252500Y-10245072D01*
X3238214Y-10187929D01*
X3238214Y-10116500D01*
X3252500Y-10059357D01*
X3266786Y-10030786D01*
X3281071Y-10016500D01*
X3309643Y-10002214D01*
X3595357Y-10002214D02*
X3623928Y-10002214D01*
X3652500Y-10016500D01*
X3666786Y-10030786D01*
X3681071Y-10059357D01*
X3695357Y-10116500D01*
X3695357Y-10187929D01*
X3681071Y-10245072D01*
X3666786Y-10273643D01*
X3652500Y-10287929D01*
X3623928Y-10302214D01*
X3595357Y-10302214D01*
X3566786Y-10287929D01*
X3552500Y-10273643D01*
X3538214Y-10245072D01*
X3523928Y-10187929D01*
X3523928Y-10116500D01*
X3538214Y-10059357D01*
X3552500Y-10030786D01*
X3566786Y-10016500D01*
X3595357Y-10002214D01*
X3881071Y-10002214D02*
X3909643Y-10002214D01*
X3938214Y-10016500D01*
X3952500Y-10030786D01*
X3966786Y-10059357D01*
X3981071Y-10116500D01*
X3981071Y-10187929D01*
X3966786Y-10245072D01*
X3952500Y-10273643D01*
X3938214Y-10287929D01*
X3909643Y-10302214D01*
X3881071Y-10302214D01*
X3852500Y-10287929D01*
X3838214Y-10273643D01*
X3823928Y-10245072D01*
X3809643Y-10187929D01*
X3809643Y-10116500D01*
X3823928Y-10059357D01*
X3838214Y-10030786D01*
X3852500Y-10016500D01*
X3881071Y-10002214D01*
X4109643Y-10302214D02*
X4109643Y-10102214D01*
X4109643Y-10130786D02*
X4123928Y-10116500D01*
X4152500Y-10102214D01*
X4195357Y-10102214D01*
X4223928Y-10116500D01*
X4238214Y-10145072D01*
X4238214Y-10302214D01*
X4238214Y-10145072D02*
X4252500Y-10116500D01*
X4281071Y-10102214D01*
X4323928Y-10102214D01*
X4352500Y-10116500D01*
X4366786Y-10145072D01*
X4366786Y-10302214D01*
X4509643Y-10302214D02*
X4509643Y-10102214D01*
X4509643Y-10130786D02*
X4523928Y-10116500D01*
X4552500Y-10102214D01*
X4595357Y-10102214D01*
X4623928Y-10116500D01*
X4638214Y-10145072D01*
X4638214Y-10302214D01*
X4638214Y-10145072D02*
X4652500Y-10116500D01*
X4681071Y-10102214D01*
X4723928Y-10102214D01*
X4752500Y-10116500D01*
X4766786Y-10145072D01*
X4766786Y-10302214D01*
X5352500Y-9987929D02*
X5095357Y-10373643D01*
X5738214Y-10002214D02*
X5766786Y-10002214D01*
X5795357Y-10016500D01*
X5809643Y-10030786D01*
X5823928Y-10059357D01*
X5838214Y-10116500D01*
X5838214Y-10187929D01*
X5823928Y-10245072D01*
X5809643Y-10273643D01*
X5795357Y-10287929D01*
X5766786Y-10302214D01*
X5738214Y-10302214D01*
X5709643Y-10287929D01*
X5695357Y-10273643D01*
X5681071Y-10245072D01*
X5666786Y-10187929D01*
X5666786Y-10116500D01*
X5681071Y-10059357D01*
X5695357Y-10030786D01*
X5709643Y-10016500D01*
X5738214Y-10002214D01*
X5966786Y-10273643D02*
X5981071Y-10287929D01*
X5966786Y-10302214D01*
X5952500Y-10287929D01*
X5966786Y-10273643D01*
X5966786Y-10302214D01*
X6166786Y-10002214D02*
X6195357Y-10002214D01*
X6223928Y-10016500D01*
X6238214Y-10030786D01*
X6252500Y-10059357D01*
X6266786Y-10116500D01*
X6266786Y-10187929D01*
X6252500Y-10245072D01*
X6238214Y-10273643D01*
X6223928Y-10287929D01*
X6195357Y-10302214D01*
X6166786Y-10302214D01*
X6138214Y-10287929D01*
X6123928Y-10273643D01*
X6109643Y-10245072D01*
X6095357Y-10187929D01*
X6095357Y-10116500D01*
X6109643Y-10059357D01*
X6123928Y-10030786D01*
X6138214Y-10016500D01*
X6166786Y-10002214D01*
X6366786Y-10002214D02*
X6552500Y-10002214D01*
X6452500Y-10116500D01*
X6495357Y-10116500D01*
X6523928Y-10130786D01*
X6538214Y-10145072D01*
X6552500Y-10173643D01*
X6552500Y-10245072D01*
X6538214Y-10273643D01*
X6523928Y-10287929D01*
X6495357Y-10302214D01*
X6409643Y-10302214D01*
X6381071Y-10287929D01*
X6366786Y-10273643D01*
X6695357Y-10302214D02*
X6752500Y-10302214D01*
X6781071Y-10287929D01*
X6795357Y-10273643D01*
X6823928Y-10230786D01*
X6838214Y-10173643D01*
X6838214Y-10059357D01*
X6823928Y-10030786D01*
X6809643Y-10016500D01*
X6781071Y-10002214D01*
X6723928Y-10002214D01*
X6695357Y-10016500D01*
X6681071Y-10030786D01*
X6666786Y-10059357D01*
X6666786Y-10130786D01*
X6681071Y-10159357D01*
X6695357Y-10173643D01*
X6723928Y-10187929D01*
X6781071Y-10187929D01*
X6809643Y-10173643D01*
X6823928Y-10159357D01*
X6838214Y-10130786D01*
X7095357Y-10102214D02*
X7095357Y-10302214D01*
X7023928Y-9987929D02*
X6952500Y-10202214D01*
X7138214Y-10202214D01*
X7238214Y-10002214D02*
X7238214Y-10059357D01*
X7352500Y-10002214D02*
X7352500Y-10059357D01*
X7795357Y-10416500D02*
X7781071Y-10402214D01*
X7752500Y-10359357D01*
X7738214Y-10330786D01*
X7723928Y-10287929D01*
X7709643Y-10216500D01*
X7709643Y-10159357D01*
X7723928Y-10087929D01*
X7738214Y-10045072D01*
X7752500Y-10016500D01*
X7781071Y-9973643D01*
X7795357Y-9959357D01*
X7895357Y-10030786D02*
X7909643Y-10016500D01*
X7938214Y-10002214D01*
X8009643Y-10002214D01*
X8038214Y-10016500D01*
X8052500Y-10030786D01*
X8066786Y-10059357D01*
X8066786Y-10087929D01*
X8052500Y-10130786D01*
X7881071Y-10302214D01*
X8066786Y-10302214D01*
X8323928Y-10102214D02*
X8323928Y-10302214D01*
X8252500Y-9987929D02*
X8181071Y-10202214D01*
X8366786Y-10202214D01*
X8709643Y-10302214D02*
X8709643Y-10002214D01*
X8838214Y-10302214D02*
X8838214Y-10145072D01*
X8823928Y-10116500D01*
X8795357Y-10102214D01*
X8752500Y-10102214D01*
X8723928Y-10116500D01*
X8709643Y-10130786D01*
X9023928Y-10302214D02*
X8995357Y-10287929D01*
X8981071Y-10273643D01*
X8966786Y-10245072D01*
X8966786Y-10159357D01*
X8981071Y-10130786D01*
X8995357Y-10116500D01*
X9023928Y-10102214D01*
X9066786Y-10102214D01*
X9095357Y-10116500D01*
X9109643Y-10130786D01*
X9123928Y-10159357D01*
X9123928Y-10245072D01*
X9109643Y-10273643D01*
X9095357Y-10287929D01*
X9066786Y-10302214D01*
X9023928Y-10302214D01*
X9295357Y-10302214D02*
X9266786Y-10287929D01*
X9252500Y-10259357D01*
X9252500Y-10002214D01*
X9523928Y-10287929D02*
X9495357Y-10302214D01*
X9438214Y-10302214D01*
X9409643Y-10287929D01*
X9395357Y-10259357D01*
X9395357Y-10145072D01*
X9409643Y-10116500D01*
X9438214Y-10102214D01*
X9495357Y-10102214D01*
X9523928Y-10116500D01*
X9538214Y-10145072D01*
X9538214Y-10173643D01*
X9395357Y-10202214D01*
X9652500Y-10287929D02*
X9681071Y-10302214D01*
X9738214Y-10302214D01*
X9766786Y-10287929D01*
X9781071Y-10259357D01*
X9781071Y-10245072D01*
X9766786Y-10216500D01*
X9738214Y-10202214D01*
X9695357Y-10202214D01*
X9666786Y-10187929D01*
X9652500Y-10159357D01*
X9652500Y-10145072D01*
X9666786Y-10116500D01*
X9695357Y-10102214D01*
X9738214Y-10102214D01*
X9766786Y-10116500D01*
X9881071Y-10416500D02*
X9895357Y-10402214D01*
X9923928Y-10359357D01*
X9938214Y-10330786D01*
X9952500Y-10287929D01*
X9966786Y-10216500D01*
X9966786Y-10159357D01*
X9952500Y-10087929D01*
X9938214Y-10045072D01*
X9923928Y-10016500D01*
X9895357Y-9973643D01*
X9881071Y-9959357D01*
X2217500Y-10402500D02*
X2537500Y-10722500D01*
X2537500Y-10402500D02*
X2217500Y-10722500D01*
X2537500Y-10562500D02*
G75*
G03*
X2537500Y-10562500I-160000J0D01*
G01*
X2795357Y-10398214D02*
X2981071Y-10398214D01*
X2881071Y-10512500D01*
X2923928Y-10512500D01*
X2952500Y-10526786D01*
X2966786Y-10541072D01*
X2981071Y-10569643D01*
X2981071Y-10641072D01*
X2966786Y-10669643D01*
X2952500Y-10683929D01*
X2923928Y-10698214D01*
X2838214Y-10698214D01*
X2809643Y-10683929D01*
X2795357Y-10669643D01*
X3109643Y-10669643D02*
X3123928Y-10683929D01*
X3109643Y-10698214D01*
X3095357Y-10683929D01*
X3109643Y-10669643D01*
X3109643Y-10698214D01*
X3238214Y-10426786D02*
X3252500Y-10412500D01*
X3281071Y-10398214D01*
X3352500Y-10398214D01*
X3381071Y-10412500D01*
X3395357Y-10426786D01*
X3409643Y-10455357D01*
X3409643Y-10483929D01*
X3395357Y-10526786D01*
X3223928Y-10698214D01*
X3409643Y-10698214D01*
X3595357Y-10398214D02*
X3623928Y-10398214D01*
X3652500Y-10412500D01*
X3666786Y-10426786D01*
X3681071Y-10455357D01*
X3695357Y-10512500D01*
X3695357Y-10583929D01*
X3681071Y-10641072D01*
X3666786Y-10669643D01*
X3652500Y-10683929D01*
X3623928Y-10698214D01*
X3595357Y-10698214D01*
X3566786Y-10683929D01*
X3552500Y-10669643D01*
X3538214Y-10641072D01*
X3523928Y-10583929D01*
X3523928Y-10512500D01*
X3538214Y-10455357D01*
X3552500Y-10426786D01*
X3566786Y-10412500D01*
X3595357Y-10398214D01*
X3881071Y-10398214D02*
X3909643Y-10398214D01*
X3938214Y-10412500D01*
X3952500Y-10426786D01*
X3966786Y-10455357D01*
X3981071Y-10512500D01*
X3981071Y-10583929D01*
X3966786Y-10641072D01*
X3952500Y-10669643D01*
X3938214Y-10683929D01*
X3909643Y-10698214D01*
X3881071Y-10698214D01*
X3852500Y-10683929D01*
X3838214Y-10669643D01*
X3823928Y-10641072D01*
X3809643Y-10583929D01*
X3809643Y-10512500D01*
X3823928Y-10455357D01*
X3838214Y-10426786D01*
X3852500Y-10412500D01*
X3881071Y-10398214D01*
X4109643Y-10698214D02*
X4109643Y-10498214D01*
X4109643Y-10526786D02*
X4123928Y-10512500D01*
X4152500Y-10498214D01*
X4195357Y-10498214D01*
X4223928Y-10512500D01*
X4238214Y-10541072D01*
X4238214Y-10698214D01*
X4238214Y-10541072D02*
X4252500Y-10512500D01*
X4281071Y-10498214D01*
X4323928Y-10498214D01*
X4352500Y-10512500D01*
X4366786Y-10541072D01*
X4366786Y-10698214D01*
X4509643Y-10698214D02*
X4509643Y-10498214D01*
X4509643Y-10526786D02*
X4523928Y-10512500D01*
X4552500Y-10498214D01*
X4595357Y-10498214D01*
X4623928Y-10512500D01*
X4638214Y-10541072D01*
X4638214Y-10698214D01*
X4638214Y-10541072D02*
X4652500Y-10512500D01*
X4681071Y-10498214D01*
X4723928Y-10498214D01*
X4752500Y-10512500D01*
X4766786Y-10541072D01*
X4766786Y-10698214D01*
X5352500Y-10383929D02*
X5095357Y-10769643D01*
X5738214Y-10398214D02*
X5766786Y-10398214D01*
X5795357Y-10412500D01*
X5809643Y-10426786D01*
X5823928Y-10455357D01*
X5838214Y-10512500D01*
X5838214Y-10583929D01*
X5823928Y-10641072D01*
X5809643Y-10669643D01*
X5795357Y-10683929D01*
X5766786Y-10698214D01*
X5738214Y-10698214D01*
X5709643Y-10683929D01*
X5695357Y-10669643D01*
X5681071Y-10641072D01*
X5666786Y-10583929D01*
X5666786Y-10512500D01*
X5681071Y-10455357D01*
X5695357Y-10426786D01*
X5709643Y-10412500D01*
X5738214Y-10398214D01*
X5966786Y-10669643D02*
X5981071Y-10683929D01*
X5966786Y-10698214D01*
X5952500Y-10683929D01*
X5966786Y-10669643D01*
X5966786Y-10698214D01*
X6266786Y-10698214D02*
X6095357Y-10698214D01*
X6181071Y-10698214D02*
X6181071Y-10398214D01*
X6152500Y-10441072D01*
X6123928Y-10469643D01*
X6095357Y-10483929D01*
X6381071Y-10426786D02*
X6395357Y-10412500D01*
X6423928Y-10398214D01*
X6495357Y-10398214D01*
X6523928Y-10412500D01*
X6538214Y-10426786D01*
X6552500Y-10455357D01*
X6552500Y-10483929D01*
X6538214Y-10526786D01*
X6366786Y-10698214D01*
X6552500Y-10698214D01*
X6809643Y-10398214D02*
X6752500Y-10398214D01*
X6723928Y-10412500D01*
X6709643Y-10426786D01*
X6681071Y-10469643D01*
X6666786Y-10526786D01*
X6666786Y-10641072D01*
X6681071Y-10669643D01*
X6695357Y-10683929D01*
X6723928Y-10698214D01*
X6781071Y-10698214D01*
X6809643Y-10683929D01*
X6823928Y-10669643D01*
X6838214Y-10641072D01*
X6838214Y-10569643D01*
X6823928Y-10541072D01*
X6809643Y-10526786D01*
X6781071Y-10512500D01*
X6723928Y-10512500D01*
X6695357Y-10526786D01*
X6681071Y-10541072D01*
X6666786Y-10569643D01*
X7023928Y-10398214D02*
X7052500Y-10398214D01*
X7081071Y-10412500D01*
X7095357Y-10426786D01*
X7109643Y-10455357D01*
X7123928Y-10512500D01*
X7123928Y-10583929D01*
X7109643Y-10641072D01*
X7095357Y-10669643D01*
X7081071Y-10683929D01*
X7052500Y-10698214D01*
X7023928Y-10698214D01*
X6995357Y-10683929D01*
X6981071Y-10669643D01*
X6966786Y-10641072D01*
X6952500Y-10583929D01*
X6952500Y-10512500D01*
X6966786Y-10455357D01*
X6981071Y-10426786D01*
X6995357Y-10412500D01*
X7023928Y-10398214D01*
X7238214Y-10398214D02*
X7238214Y-10455357D01*
X7352500Y-10398214D02*
X7352500Y-10455357D01*
X7795357Y-10812500D02*
X7781071Y-10798214D01*
X7752500Y-10755357D01*
X7738214Y-10726786D01*
X7723928Y-10683929D01*
X7709643Y-10612500D01*
X7709643Y-10555357D01*
X7723928Y-10483929D01*
X7738214Y-10441072D01*
X7752500Y-10412500D01*
X7781071Y-10369643D01*
X7795357Y-10355357D01*
X8038214Y-10498214D02*
X8038214Y-10698214D01*
X7966786Y-10383929D02*
X7895357Y-10598214D01*
X8081071Y-10598214D01*
X8423928Y-10698214D02*
X8423928Y-10398214D01*
X8552500Y-10698214D02*
X8552500Y-10541072D01*
X8538214Y-10512500D01*
X8509643Y-10498214D01*
X8466786Y-10498214D01*
X8438214Y-10512500D01*
X8423928Y-10526786D01*
X8738214Y-10698214D02*
X8709643Y-10683929D01*
X8695357Y-10669643D01*
X8681071Y-10641072D01*
X8681071Y-10555357D01*
X8695357Y-10526786D01*
X8709643Y-10512500D01*
X8738214Y-10498214D01*
X8781071Y-10498214D01*
X8809643Y-10512500D01*
X8823928Y-10526786D01*
X8838214Y-10555357D01*
X8838214Y-10641072D01*
X8823928Y-10669643D01*
X8809643Y-10683929D01*
X8781071Y-10698214D01*
X8738214Y-10698214D01*
X9009643Y-10698214D02*
X8981071Y-10683929D01*
X8966786Y-10655357D01*
X8966786Y-10398214D01*
X9238214Y-10683929D02*
X9209643Y-10698214D01*
X9152500Y-10698214D01*
X9123928Y-10683929D01*
X9109643Y-10655357D01*
X9109643Y-10541072D01*
X9123928Y-10512500D01*
X9152500Y-10498214D01*
X9209643Y-10498214D01*
X9238214Y-10512500D01*
X9252500Y-10541072D01*
X9252500Y-10569643D01*
X9109643Y-10598214D01*
X9366786Y-10683929D02*
X9395357Y-10698214D01*
X9452500Y-10698214D01*
X9481071Y-10683929D01*
X9495357Y-10655357D01*
X9495357Y-10641072D01*
X9481071Y-10612500D01*
X9452500Y-10598214D01*
X9409643Y-10598214D01*
X9381071Y-10583929D01*
X9366786Y-10555357D01*
X9366786Y-10541072D01*
X9381071Y-10512500D01*
X9409643Y-10498214D01*
X9452500Y-10498214D01*
X9481071Y-10512500D01*
X9595357Y-10812500D02*
X9609643Y-10798214D01*
X9638214Y-10755357D01*
X9652500Y-10726786D01*
X9666786Y-10683929D01*
X9681071Y-10612500D01*
X9681071Y-10555357D01*
X9666786Y-10483929D01*
X9652500Y-10441072D01*
X9638214Y-10412500D01*
X9609643Y-10369643D01*
X9595357Y-10355357D01*
M02*
