%FSLAX45Y45*%
G04 Gerber Fmt 4.5, Leading zero omitted, Abs format (unit mm)*
G04 Created by KiCad (PCBNEW 5.99.0+really5.1.10+dfsg1-1) date 2022-02-16 20:00:36*
%MOMM*%
%LPD*%
G01*
G04 APERTURE LIST*
%TA.AperFunction,Profile*%
%ADD10C,0.050000*%
%TD*%
%ADD11C,0.200000*%
%ADD12C,0.300000*%
G04 APERTURE END LIST*
D10*
X2540000Y-7620000D02*
X2540000Y-2540000D01*
X12446000Y-7620000D02*
X2540000Y-7620000D01*
X12446000Y-2540000D02*
X12446000Y-7620000D01*
X2540000Y-2540000D02*
X12446000Y-2540000D01*
D11*
D12*
X2823928Y-8088214D02*
X2823928Y-7788214D01*
X2895357Y-7788214D01*
X2938214Y-7802500D01*
X2966786Y-7831071D01*
X2981071Y-7859643D01*
X2995357Y-7916786D01*
X2995357Y-7959643D01*
X2981071Y-8016786D01*
X2966786Y-8045357D01*
X2938214Y-8073929D01*
X2895357Y-8088214D01*
X2823928Y-8088214D01*
X3123928Y-8088214D02*
X3123928Y-7888214D01*
X3123928Y-7945357D02*
X3138214Y-7916786D01*
X3152500Y-7902500D01*
X3181071Y-7888214D01*
X3209643Y-7888214D01*
X3309643Y-8088214D02*
X3309643Y-7888214D01*
X3309643Y-7788214D02*
X3295357Y-7802500D01*
X3309643Y-7816786D01*
X3323928Y-7802500D01*
X3309643Y-7788214D01*
X3309643Y-7816786D01*
X3495357Y-8088214D02*
X3466786Y-8073929D01*
X3452500Y-8045357D01*
X3452500Y-7788214D01*
X3652500Y-8088214D02*
X3623928Y-8073929D01*
X3609643Y-8045357D01*
X3609643Y-7788214D01*
X3995357Y-8088214D02*
X3995357Y-7788214D01*
X4095357Y-8002500D01*
X4195357Y-7788214D01*
X4195357Y-8088214D01*
X4466786Y-8088214D02*
X4466786Y-7931071D01*
X4452500Y-7902500D01*
X4423928Y-7888214D01*
X4366786Y-7888214D01*
X4338214Y-7902500D01*
X4466786Y-8073929D02*
X4438214Y-8088214D01*
X4366786Y-8088214D01*
X4338214Y-8073929D01*
X4323928Y-8045357D01*
X4323928Y-8016786D01*
X4338214Y-7988214D01*
X4366786Y-7973929D01*
X4438214Y-7973929D01*
X4466786Y-7959643D01*
X4609643Y-7888214D02*
X4609643Y-8188214D01*
X4609643Y-7902500D02*
X4638214Y-7888214D01*
X4695357Y-7888214D01*
X4723928Y-7902500D01*
X4738214Y-7916786D01*
X4752500Y-7945357D01*
X4752500Y-8031071D01*
X4738214Y-8059643D01*
X4723928Y-8073929D01*
X4695357Y-8088214D01*
X4638214Y-8088214D01*
X4609643Y-8073929D01*
X4881071Y-8059643D02*
X4895357Y-8073929D01*
X4881071Y-8088214D01*
X4866786Y-8073929D01*
X4881071Y-8059643D01*
X4881071Y-8088214D01*
X4881071Y-7902500D02*
X4895357Y-7916786D01*
X4881071Y-7931071D01*
X4866786Y-7916786D01*
X4881071Y-7902500D01*
X4881071Y-7931071D01*
M02*
