%TF.GenerationSoftware,KiCad,Pcbnew,5.99.0+really5.1.10+dfsg1-1*%
%TF.CreationDate,2022-02-16T20:05:08+00:00*%
%TF.ProjectId,lcd,6c63642e-6b69-4636-9164-5f7063625858,rev?*%
%TF.SameCoordinates,Original*%
%TF.FileFunction,Copper,L2,Bot*%
%TF.FilePolarity,Positive*%
%FSLAX46Y46*%
G04 Gerber Fmt 4.6, Leading zero omitted, Abs format (unit mm)*
G04 Created by KiCad (PCBNEW 5.99.0+really5.1.10+dfsg1-1) date 2022-02-16 20:05:08*
%MOMM*%
%LPD*%
G01*
G04 APERTURE LIST*
%TA.AperFunction,EtchedComponent*%
%ADD10C,0.100000*%
%TD*%
%TA.AperFunction,ComponentPad*%
%ADD11C,1.500000*%
%TD*%
%TA.AperFunction,ComponentPad*%
%ADD12C,1.524000*%
%TD*%
%TA.AperFunction,ComponentPad*%
%ADD13C,0.800000*%
%TD*%
%TA.AperFunction,ComponentPad*%
%ADD14C,6.400000*%
%TD*%
%TA.AperFunction,ComponentPad*%
%ADD15R,1.700000X1.700000*%
%TD*%
%TA.AperFunction,ComponentPad*%
%ADD16O,1.700000X1.700000*%
%TD*%
%TA.AperFunction,SMDPad,CuDef*%
%ADD17R,1.000000X1.500000*%
%TD*%
%TA.AperFunction,ViaPad*%
%ADD18C,0.800000*%
%TD*%
%TA.AperFunction,ViaPad*%
%ADD19C,1.000000*%
%TD*%
%TA.AperFunction,Conductor*%
%ADD20C,0.250000*%
%TD*%
%TA.AperFunction,Conductor*%
%ADD21C,1.000000*%
%TD*%
%TA.AperFunction,Conductor*%
%ADD22C,0.254000*%
%TD*%
%TA.AperFunction,Conductor*%
%ADD23C,0.100000*%
%TD*%
G04 APERTURE END LIST*
D10*
%TO.C,JP1*%
G36*
X96890000Y-63800000D02*
G01*
X97390000Y-63800000D01*
X97390000Y-63200000D01*
X96890000Y-63200000D01*
X96890000Y-63800000D01*
G37*
%TD*%
D11*
%TO.P,R2,1*%
%TO.N,AMBIENT_LIGHT*%
X107500000Y-28900000D03*
%TO.P,R2,2*%
%TO.N,GND*%
X104100000Y-28900000D03*
%TD*%
D12*
%TO.P,U2,14*%
%TO.N,D25*%
X87630000Y-48260000D03*
%TO.P,U2,13*%
%TO.N,D33*%
X87630000Y-45720000D03*
%TO.P,U2,12*%
%TO.N,D32*%
X87630000Y-43180000D03*
%TO.P,U2,11*%
%TO.N,Net-(U2-Pad11)*%
X87630000Y-40640000D03*
%TO.P,U2,10*%
%TO.N,AMBIENT_LIGHT*%
X87630000Y-38100000D03*
%TO.P,U2,8*%
%TO.N,Net-(U2-Pad8)*%
X87630000Y-35560000D03*
%TO.P,U2,5*%
%TO.N,Net-(U2-Pad5)*%
X87630000Y-33020000D03*
%TO.P,U2,15*%
%TO.N,D26*%
X87630000Y-50800000D03*
%TO.P,U2,16*%
%TO.N,D27*%
X87630000Y-53340000D03*
%TO.P,U2,17*%
%TO.N,D14*%
X87630000Y-55880000D03*
%TO.P,U2,18*%
%TO.N,LED_DATA*%
X87630000Y-58420000D03*
%TO.P,U2,20*%
%TO.N,D13*%
X87630000Y-60960000D03*
%TO.P,U2,49*%
%TO.N,GND*%
X87630000Y-63500000D03*
%TO.P,U2,9*%
%TO.N,Net-(U2-Pad9)*%
X87630000Y-30480000D03*
%TO.P,U2,50*%
%TO.N,+5V*%
X87630000Y-66040000D03*
%TO.P,U2,43*%
%TO.N,+3V3*%
X62230000Y-66040000D03*
%TO.P,U2,49*%
%TO.N,GND*%
X62230000Y-63500000D03*
%TO.P,U2,21*%
%TO.N,LCD_PWM*%
X62230000Y-60960000D03*
%TO.P,U2,22*%
%TO.N,~LCD_RESET*%
X62230000Y-58420000D03*
%TO.P,U2,24*%
%TO.N,LCD_RS*%
X62230000Y-55880000D03*
%TO.P,U2,25*%
%TO.N,RXDI*%
X62230000Y-53340000D03*
%TO.P,U2,27*%
%TO.N,TXDO*%
X62230000Y-50800000D03*
%TO.P,U2,34*%
%TO.N,~LCD_CS*%
X62230000Y-48260000D03*
%TO.P,U2,35*%
%TO.N,LCD_CLK*%
X62230000Y-45720000D03*
%TO.P,U2,38*%
%TO.N,D19*%
X62230000Y-43180000D03*
%TO.P,U2,42*%
%TO.N,I2C_DATA*%
X62230000Y-40640000D03*
%TO.P,U2,40*%
%TO.N,Net-(U2-Pad40)*%
X62230000Y-38100000D03*
%TO.P,U2,41*%
%TO.N,Net-(U2-Pad41)*%
X62230000Y-35560000D03*
%TO.P,U2,39*%
%TO.N,I2C_CLK*%
X62230000Y-33020000D03*
%TO.P,U2,36*%
%TO.N,LCD_DATA*%
X62230000Y-30480000D03*
%TD*%
%TO.P,U3,1*%
%TO.N,+3V3*%
X114730000Y-40260000D03*
%TO.P,U3,2*%
%TO.N,GND*%
X114730000Y-42260000D03*
%TO.P,U3,3*%
X114730000Y-44260000D03*
%TO.P,U3,4*%
%TO.N,LCD_DATA*%
X114730000Y-46260000D03*
%TO.P,U3,5*%
%TO.N,LCD_CLK*%
X114730000Y-48260000D03*
%TO.P,U3,6*%
%TO.N,Net-(U3-Pad6)*%
X114730000Y-50260000D03*
%TO.P,U3,7*%
%TO.N,Net-(U3-Pad7)*%
X114730000Y-52260000D03*
%TO.P,U3,8*%
%TO.N,Net-(U3-Pad8)*%
X114730000Y-54260000D03*
%TO.P,U3,9*%
%TO.N,Net-(U3-Pad9)*%
X114730000Y-56260000D03*
%TO.P,U3,10*%
%TO.N,Net-(U3-Pad10)*%
X35130000Y-40260000D03*
%TO.P,U3,11*%
%TO.N,Net-(U3-Pad11)*%
X35130000Y-42260000D03*
%TO.P,U3,12*%
%TO.N,Net-(U3-Pad12)*%
X35130000Y-44260000D03*
%TO.P,U3,13*%
%TO.N,Net-(U3-Pad13)*%
X35130000Y-46260000D03*
%TO.P,U3,14*%
%TO.N,LCD_RS*%
X35130000Y-48260000D03*
%TO.P,U3,15*%
%TO.N,~LCD_RESET*%
X35130000Y-50260000D03*
%TO.P,U3,16*%
%TO.N,~LCD_CS*%
X35130000Y-52260000D03*
%TO.P,U3,17*%
%TO.N,+7.5V*%
X35130000Y-54260000D03*
%TO.P,U3,18*%
%TO.N,LCD_BACKLIGHT_PWM*%
X35130000Y-56260000D03*
%TD*%
%TO.P,U1,1*%
%TO.N,+5V*%
X38240000Y-28260000D03*
%TO.P,U1,2*%
%TO.N,+7.5V*%
X38240000Y-68260000D03*
%TO.P,U1,3*%
%TO.N,GND*%
X55740000Y-28260000D03*
%TO.P,U1,4*%
X55740000Y-68260000D03*
%TD*%
D13*
%TO.P,REF\u002A\u002A,1*%
%TO.N,N/C*%
X32177056Y-69422944D03*
X30480000Y-68720000D03*
X28782944Y-69422944D03*
X28080000Y-71120000D03*
X28782944Y-72817056D03*
X30480000Y-73520000D03*
X32177056Y-72817056D03*
X32880000Y-71120000D03*
D14*
X30480000Y-71120000D03*
%TD*%
D13*
%TO.P,REF\u002A\u002A,1*%
%TO.N,N/C*%
X32177056Y-28782944D03*
X30480000Y-28080000D03*
X28782944Y-28782944D03*
X28080000Y-30480000D03*
X28782944Y-32177056D03*
X30480000Y-32880000D03*
X32177056Y-32177056D03*
X32880000Y-30480000D03*
D14*
X30480000Y-30480000D03*
%TD*%
D13*
%TO.P,REF\u002A\u002A,1*%
%TO.N,N/C*%
X121077056Y-28782944D03*
X119380000Y-28080000D03*
X117682944Y-28782944D03*
X116980000Y-30480000D03*
X117682944Y-32177056D03*
X119380000Y-32880000D03*
X121077056Y-32177056D03*
X121780000Y-30480000D03*
D14*
X119380000Y-30480000D03*
%TD*%
D13*
%TO.P,REF\u002A\u002A,1*%
%TO.N,N/C*%
X121077056Y-69422944D03*
X119380000Y-68720000D03*
X117682944Y-69422944D03*
X116980000Y-71120000D03*
X117682944Y-72817056D03*
X119380000Y-73520000D03*
X121077056Y-72817056D03*
X121780000Y-71120000D03*
D14*
X119380000Y-71120000D03*
%TD*%
D15*
%TO.P,J2,1*%
%TO.N,+5V*%
X60960000Y-72390000D03*
D16*
%TO.P,J2,2*%
%TO.N,+3V3*%
X63500000Y-72390000D03*
%TO.P,J2,3*%
%TO.N,LED_DATA_OUT*%
X66040000Y-72390000D03*
%TO.P,J2,4*%
%TO.N,D32*%
X68580000Y-72390000D03*
%TO.P,J2,5*%
%TO.N,D33*%
X71120000Y-72390000D03*
%TO.P,J2,6*%
%TO.N,D25*%
X73660000Y-72390000D03*
%TO.P,J2,7*%
%TO.N,D26*%
X76200000Y-72390000D03*
%TO.P,J2,8*%
%TO.N,D27*%
X78740000Y-72390000D03*
%TO.P,J2,9*%
%TO.N,D14*%
X81280000Y-72390000D03*
%TO.P,J2,10*%
%TO.N,D13*%
X83820000Y-72390000D03*
%TO.P,J2,11*%
%TO.N,D19*%
X86360000Y-72390000D03*
%TO.P,J2,12*%
%TO.N,GND*%
X88900000Y-72390000D03*
%TD*%
%TO.P,J3,4*%
%TO.N,GND*%
X113030000Y-72390000D03*
%TO.P,J3,3*%
%TO.N,I2C_CLK*%
X110490000Y-72390000D03*
%TO.P,J3,2*%
%TO.N,I2C_DATA*%
X107950000Y-72390000D03*
D15*
%TO.P,J3,1*%
%TO.N,+3V3*%
X105410000Y-72390000D03*
%TD*%
%TO.P,J4,1*%
%TO.N,+3V3*%
X36830000Y-72390000D03*
D16*
%TO.P,J4,2*%
%TO.N,TXDO*%
X39370000Y-72390000D03*
%TO.P,J4,3*%
%TO.N,RXDI*%
X41910000Y-72390000D03*
%TO.P,J4,4*%
%TO.N,GND*%
X44450000Y-72390000D03*
%TD*%
D17*
%TO.P,JP1,1*%
%TO.N,+5V*%
X96490000Y-63500000D03*
%TO.P,JP1,3*%
%TO.N,+3V3*%
X99090000Y-63500000D03*
%TO.P,JP1,2*%
%TO.N,/LED_Power*%
X97790000Y-63500000D03*
%TD*%
D15*
%TO.P,J1,1*%
%TO.N,+5V*%
X29210000Y-49530000D03*
D16*
%TO.P,J1,2*%
%TO.N,GND*%
X29210000Y-52070000D03*
%TD*%
D15*
%TO.P,J5,1*%
%TO.N,AMBIENT_LIGHT*%
X110560000Y-28900000D03*
D16*
%TO.P,J5,2*%
%TO.N,GND*%
X113100000Y-28900000D03*
%TD*%
D18*
%TO.N,LED_DATA*%
X96520000Y-57150000D03*
D19*
%TO.N,GND*%
X43180000Y-59690000D03*
X27940000Y-46990000D03*
%TO.N,+5V*%
X35560000Y-31750000D03*
D18*
%TO.N,D19*%
X67580644Y-70950010D03*
%TO.N,I2C_CLK*%
X66040000Y-39370000D03*
X110490000Y-68580000D03*
%TO.N,I2C_DATA*%
X107950000Y-68580000D03*
%TO.N,TXDO*%
X49530000Y-63500000D03*
%TO.N,RXDI*%
X52070000Y-63500000D03*
%TO.N,LCD_CLK*%
X99060000Y-46990000D03*
%TO.N,LCD_DATA*%
X99060000Y-44450000D03*
D19*
%TO.N,/LED_Power*%
X97790000Y-64770000D03*
D18*
%TO.N,AMBIENT_LIGHT*%
X103650000Y-33350000D03*
X95000000Y-33500000D03*
%TD*%
D20*
%TO.N,LED_DATA*%
X95250000Y-58420000D02*
X96520000Y-57150000D01*
X87630000Y-58420000D02*
X95250000Y-58420000D01*
D21*
%TO.N,+5V*%
X93950000Y-66040000D02*
X96490000Y-63500000D01*
X87630000Y-66040000D02*
X93950000Y-66040000D01*
X35560000Y-30940000D02*
X38240000Y-28260000D01*
X35560000Y-31750000D02*
X35560000Y-30940000D01*
X60960000Y-72390000D02*
X60960000Y-70540000D01*
X60960000Y-70540000D02*
X61650000Y-69850000D01*
X61650000Y-69850000D02*
X83820000Y-69850000D01*
X83820000Y-69850000D02*
X87630000Y-66040000D01*
%TO.N,+3V3*%
X99090000Y-66070000D02*
X105410000Y-72390000D01*
X99090000Y-63500000D02*
X99090000Y-66070000D01*
X63500000Y-73592081D02*
X63500000Y-72390000D01*
X62162081Y-74930000D02*
X63500000Y-73592081D01*
X38100000Y-74930000D02*
X62162081Y-74930000D01*
X36830000Y-73660000D02*
X38100000Y-74930000D01*
X36830000Y-72390000D02*
X36830000Y-73660000D01*
X102870000Y-74930000D02*
X105410000Y-72390000D01*
X62162081Y-74930000D02*
X102870000Y-74930000D01*
X99090000Y-63500000D02*
X105410000Y-63500000D01*
X105410000Y-63500000D02*
X113030000Y-55880000D01*
X114566238Y-40260000D02*
X114730000Y-40260000D01*
X113030000Y-41796238D02*
X114566238Y-40260000D01*
X113030000Y-55880000D02*
X113030000Y-41796238D01*
D20*
%TO.N,D19*%
X86360000Y-72390000D02*
X84920010Y-70950010D01*
X84920010Y-70950010D02*
X67580644Y-70950010D01*
%TO.N,I2C_CLK*%
X66040000Y-36830000D02*
X66040000Y-39370000D01*
X62230000Y-33020000D02*
X66040000Y-36830000D01*
X110490000Y-68580000D02*
X110490000Y-72390000D01*
%TO.N,I2C_DATA*%
X107950000Y-68580000D02*
X107950000Y-72390000D01*
%TO.N,TXDO*%
X62230000Y-50800000D02*
X49530000Y-63500000D01*
%TO.N,RXDI*%
X62230000Y-53340000D02*
X52070000Y-63500000D01*
D21*
%TO.N,+7.5V*%
X36207630Y-54260000D02*
X35130000Y-54260000D01*
X38240000Y-56292370D02*
X36207630Y-54260000D01*
X38240000Y-68260000D02*
X38240000Y-56292370D01*
D20*
%TO.N,LCD_CLK*%
X63500000Y-46990000D02*
X99060000Y-46990000D01*
X62230000Y-45720000D02*
X63500000Y-46990000D01*
%TO.N,LCD_DATA*%
X68580000Y-44450000D02*
X99060000Y-44450000D01*
X67310000Y-43180000D02*
X68580000Y-44450000D01*
X63825010Y-32075010D02*
X67310000Y-35560000D01*
X63365374Y-32075010D02*
X63825010Y-32075010D01*
X63174990Y-31884626D02*
X63365374Y-32075010D01*
X63174990Y-31424990D02*
X63174990Y-31884626D01*
X67310000Y-35560000D02*
X67310000Y-43180000D01*
X62230000Y-30480000D02*
X63174990Y-31424990D01*
D21*
%TO.N,/LED_Power*%
X97790000Y-64770000D02*
X97790000Y-63500000D01*
D20*
%TO.N,AMBIENT_LIGHT*%
X95150000Y-33350000D02*
X95000000Y-33500000D01*
X103650000Y-33350000D02*
X95150000Y-33350000D01*
%TD*%
D22*
%TO.N,GND*%
X60833000Y-33157592D02*
X60886686Y-33427490D01*
X60991995Y-33681727D01*
X61144880Y-33910535D01*
X61339465Y-34105120D01*
X61568273Y-34258005D01*
X61645515Y-34290000D01*
X61568273Y-34321995D01*
X61339465Y-34474880D01*
X61144880Y-34669465D01*
X60991995Y-34898273D01*
X60886686Y-35152510D01*
X60833000Y-35422408D01*
X60833000Y-35697592D01*
X60886686Y-35967490D01*
X60991995Y-36221727D01*
X61144880Y-36450535D01*
X61339465Y-36645120D01*
X61568273Y-36798005D01*
X61645515Y-36830000D01*
X61568273Y-36861995D01*
X61339465Y-37014880D01*
X61144880Y-37209465D01*
X60991995Y-37438273D01*
X60886686Y-37692510D01*
X60833000Y-37962408D01*
X60833000Y-38237592D01*
X60886686Y-38507490D01*
X60991995Y-38761727D01*
X61144880Y-38990535D01*
X61339465Y-39185120D01*
X61568273Y-39338005D01*
X61645515Y-39370000D01*
X61568273Y-39401995D01*
X61339465Y-39554880D01*
X61144880Y-39749465D01*
X60991995Y-39978273D01*
X60886686Y-40232510D01*
X60833000Y-40502408D01*
X60833000Y-40777592D01*
X60886686Y-41047490D01*
X60991995Y-41301727D01*
X61144880Y-41530535D01*
X61339465Y-41725120D01*
X61568273Y-41878005D01*
X61645515Y-41910000D01*
X61568273Y-41941995D01*
X61339465Y-42094880D01*
X61144880Y-42289465D01*
X60991995Y-42518273D01*
X60886686Y-42772510D01*
X60833000Y-43042408D01*
X60833000Y-43317592D01*
X60886686Y-43587490D01*
X60991995Y-43841727D01*
X61144880Y-44070535D01*
X61339465Y-44265120D01*
X61568273Y-44418005D01*
X61645515Y-44450000D01*
X61568273Y-44481995D01*
X61339465Y-44634880D01*
X61144880Y-44829465D01*
X60991995Y-45058273D01*
X60886686Y-45312510D01*
X60833000Y-45582408D01*
X60833000Y-45857592D01*
X60886686Y-46127490D01*
X60991995Y-46381727D01*
X61144880Y-46610535D01*
X61339465Y-46805120D01*
X61568273Y-46958005D01*
X61645515Y-46990000D01*
X61568273Y-47021995D01*
X61339465Y-47174880D01*
X61144880Y-47369465D01*
X60991995Y-47598273D01*
X60886686Y-47852510D01*
X60833000Y-48122408D01*
X60833000Y-48397592D01*
X60886686Y-48667490D01*
X60991995Y-48921727D01*
X61144880Y-49150535D01*
X61339465Y-49345120D01*
X61568273Y-49498005D01*
X61645515Y-49530000D01*
X61568273Y-49561995D01*
X61339465Y-49714880D01*
X61144880Y-49909465D01*
X60991995Y-50138273D01*
X60886686Y-50392510D01*
X60833000Y-50662408D01*
X60833000Y-50937592D01*
X60863628Y-51091570D01*
X49490199Y-62465000D01*
X49428061Y-62465000D01*
X49228102Y-62504774D01*
X49039744Y-62582795D01*
X48870226Y-62696063D01*
X48726063Y-62840226D01*
X48612795Y-63009744D01*
X48534774Y-63198102D01*
X48495000Y-63398061D01*
X48495000Y-63601939D01*
X48534774Y-63801898D01*
X48612795Y-63990256D01*
X48726063Y-64159774D01*
X48870226Y-64303937D01*
X49039744Y-64417205D01*
X49228102Y-64495226D01*
X49428061Y-64535000D01*
X49631939Y-64535000D01*
X49831898Y-64495226D01*
X50020256Y-64417205D01*
X50189774Y-64303937D01*
X50333937Y-64159774D01*
X50447205Y-63990256D01*
X50525226Y-63801898D01*
X50565000Y-63601939D01*
X50565000Y-63539801D01*
X60833000Y-53271802D01*
X60833000Y-53477592D01*
X60863628Y-53631570D01*
X52030199Y-62465000D01*
X51968061Y-62465000D01*
X51768102Y-62504774D01*
X51579744Y-62582795D01*
X51410226Y-62696063D01*
X51266063Y-62840226D01*
X51152795Y-63009744D01*
X51074774Y-63198102D01*
X51035000Y-63398061D01*
X51035000Y-63601939D01*
X51074774Y-63801898D01*
X51152795Y-63990256D01*
X51266063Y-64159774D01*
X51410226Y-64303937D01*
X51579744Y-64417205D01*
X51768102Y-64495226D01*
X51968061Y-64535000D01*
X52171939Y-64535000D01*
X52371898Y-64495226D01*
X52560256Y-64417205D01*
X52729774Y-64303937D01*
X52873937Y-64159774D01*
X52987205Y-63990256D01*
X53065226Y-63801898D01*
X53105000Y-63601939D01*
X53105000Y-63572017D01*
X60828090Y-63572017D01*
X60869078Y-63844133D01*
X60962364Y-64103023D01*
X61024344Y-64218980D01*
X61264435Y-64285960D01*
X62050395Y-63500000D01*
X62409605Y-63500000D01*
X63195565Y-64285960D01*
X63435656Y-64218980D01*
X63552756Y-63969952D01*
X63619023Y-63702865D01*
X63625157Y-63572017D01*
X86228090Y-63572017D01*
X86269078Y-63844133D01*
X86362364Y-64103023D01*
X86424344Y-64218980D01*
X86664435Y-64285960D01*
X87450395Y-63500000D01*
X87809605Y-63500000D01*
X88595565Y-64285960D01*
X88835656Y-64218980D01*
X88952756Y-63969952D01*
X89019023Y-63702865D01*
X89031910Y-63427983D01*
X88990922Y-63155867D01*
X88897636Y-62896977D01*
X88835656Y-62781020D01*
X88595565Y-62714040D01*
X87809605Y-63500000D01*
X87450395Y-63500000D01*
X86664435Y-62714040D01*
X86424344Y-62781020D01*
X86307244Y-63030048D01*
X86240977Y-63297135D01*
X86228090Y-63572017D01*
X63625157Y-63572017D01*
X63631910Y-63427983D01*
X63590922Y-63155867D01*
X63497636Y-62896977D01*
X63435656Y-62781020D01*
X63195565Y-62714040D01*
X62409605Y-63500000D01*
X62050395Y-63500000D01*
X61264435Y-62714040D01*
X61024344Y-62781020D01*
X60907244Y-63030048D01*
X60840977Y-63297135D01*
X60828090Y-63572017D01*
X53105000Y-63572017D01*
X53105000Y-63539801D01*
X60833000Y-55811802D01*
X60833000Y-56017592D01*
X60886686Y-56287490D01*
X60991995Y-56541727D01*
X61144880Y-56770535D01*
X61339465Y-56965120D01*
X61568273Y-57118005D01*
X61645515Y-57150000D01*
X61568273Y-57181995D01*
X61339465Y-57334880D01*
X61144880Y-57529465D01*
X60991995Y-57758273D01*
X60886686Y-58012510D01*
X60833000Y-58282408D01*
X60833000Y-58557592D01*
X60886686Y-58827490D01*
X60991995Y-59081727D01*
X61144880Y-59310535D01*
X61339465Y-59505120D01*
X61568273Y-59658005D01*
X61645515Y-59690000D01*
X61568273Y-59721995D01*
X61339465Y-59874880D01*
X61144880Y-60069465D01*
X60991995Y-60298273D01*
X60886686Y-60552510D01*
X60833000Y-60822408D01*
X60833000Y-61097592D01*
X60886686Y-61367490D01*
X60991995Y-61621727D01*
X61144880Y-61850535D01*
X61339465Y-62045120D01*
X61568273Y-62198005D01*
X61639943Y-62227692D01*
X61626977Y-62232364D01*
X61511020Y-62294344D01*
X61444040Y-62534435D01*
X62230000Y-63320395D01*
X63015960Y-62534435D01*
X62948980Y-62294344D01*
X62813240Y-62230515D01*
X62891727Y-62198005D01*
X63120535Y-62045120D01*
X63315120Y-61850535D01*
X63468005Y-61621727D01*
X63573314Y-61367490D01*
X63627000Y-61097592D01*
X63627000Y-60822408D01*
X63573314Y-60552510D01*
X63468005Y-60298273D01*
X63315120Y-60069465D01*
X63120535Y-59874880D01*
X62891727Y-59721995D01*
X62814485Y-59690000D01*
X62891727Y-59658005D01*
X63120535Y-59505120D01*
X63315120Y-59310535D01*
X63468005Y-59081727D01*
X63573314Y-58827490D01*
X63627000Y-58557592D01*
X63627000Y-58282408D01*
X63573314Y-58012510D01*
X63468005Y-57758273D01*
X63315120Y-57529465D01*
X63120535Y-57334880D01*
X62891727Y-57181995D01*
X62814485Y-57150000D01*
X62891727Y-57118005D01*
X63120535Y-56965120D01*
X63315120Y-56770535D01*
X63468005Y-56541727D01*
X63573314Y-56287490D01*
X63627000Y-56017592D01*
X63627000Y-55742408D01*
X63573314Y-55472510D01*
X63468005Y-55218273D01*
X63315120Y-54989465D01*
X63120535Y-54794880D01*
X62891727Y-54641995D01*
X62814485Y-54610000D01*
X62891727Y-54578005D01*
X63120535Y-54425120D01*
X63315120Y-54230535D01*
X63468005Y-54001727D01*
X63573314Y-53747490D01*
X63627000Y-53477592D01*
X63627000Y-53202408D01*
X63573314Y-52932510D01*
X63468005Y-52678273D01*
X63315120Y-52449465D01*
X63120535Y-52254880D01*
X62891727Y-52101995D01*
X62814485Y-52070000D01*
X62891727Y-52038005D01*
X63120535Y-51885120D01*
X63315120Y-51690535D01*
X63468005Y-51461727D01*
X63573314Y-51207490D01*
X63627000Y-50937592D01*
X63627000Y-50662408D01*
X63573314Y-50392510D01*
X63468005Y-50138273D01*
X63315120Y-49909465D01*
X63120535Y-49714880D01*
X62891727Y-49561995D01*
X62814485Y-49530000D01*
X62891727Y-49498005D01*
X63120535Y-49345120D01*
X63315120Y-49150535D01*
X63468005Y-48921727D01*
X63573314Y-48667490D01*
X63627000Y-48397592D01*
X63627000Y-48122408D01*
X63573314Y-47852510D01*
X63531106Y-47750612D01*
X63537322Y-47750000D01*
X86329147Y-47750000D01*
X86286686Y-47852510D01*
X86233000Y-48122408D01*
X86233000Y-48397592D01*
X86286686Y-48667490D01*
X86391995Y-48921727D01*
X86544880Y-49150535D01*
X86739465Y-49345120D01*
X86968273Y-49498005D01*
X87045515Y-49530000D01*
X86968273Y-49561995D01*
X86739465Y-49714880D01*
X86544880Y-49909465D01*
X86391995Y-50138273D01*
X86286686Y-50392510D01*
X86233000Y-50662408D01*
X86233000Y-50937592D01*
X86286686Y-51207490D01*
X86391995Y-51461727D01*
X86544880Y-51690535D01*
X86739465Y-51885120D01*
X86968273Y-52038005D01*
X87045515Y-52070000D01*
X86968273Y-52101995D01*
X86739465Y-52254880D01*
X86544880Y-52449465D01*
X86391995Y-52678273D01*
X86286686Y-52932510D01*
X86233000Y-53202408D01*
X86233000Y-53477592D01*
X86286686Y-53747490D01*
X86391995Y-54001727D01*
X86544880Y-54230535D01*
X86739465Y-54425120D01*
X86968273Y-54578005D01*
X87045515Y-54610000D01*
X86968273Y-54641995D01*
X86739465Y-54794880D01*
X86544880Y-54989465D01*
X86391995Y-55218273D01*
X86286686Y-55472510D01*
X86233000Y-55742408D01*
X86233000Y-56017592D01*
X86286686Y-56287490D01*
X86391995Y-56541727D01*
X86544880Y-56770535D01*
X86739465Y-56965120D01*
X86968273Y-57118005D01*
X87045515Y-57150000D01*
X86968273Y-57181995D01*
X86739465Y-57334880D01*
X86544880Y-57529465D01*
X86391995Y-57758273D01*
X86286686Y-58012510D01*
X86233000Y-58282408D01*
X86233000Y-58557592D01*
X86286686Y-58827490D01*
X86391995Y-59081727D01*
X86544880Y-59310535D01*
X86739465Y-59505120D01*
X86968273Y-59658005D01*
X87045515Y-59690000D01*
X86968273Y-59721995D01*
X86739465Y-59874880D01*
X86544880Y-60069465D01*
X86391995Y-60298273D01*
X86286686Y-60552510D01*
X86233000Y-60822408D01*
X86233000Y-61097592D01*
X86286686Y-61367490D01*
X86391995Y-61621727D01*
X86544880Y-61850535D01*
X86739465Y-62045120D01*
X86968273Y-62198005D01*
X87039943Y-62227692D01*
X87026977Y-62232364D01*
X86911020Y-62294344D01*
X86844040Y-62534435D01*
X87630000Y-63320395D01*
X88415960Y-62534435D01*
X88348980Y-62294344D01*
X88213240Y-62230515D01*
X88291727Y-62198005D01*
X88520535Y-62045120D01*
X88715120Y-61850535D01*
X88868005Y-61621727D01*
X88973314Y-61367490D01*
X89027000Y-61097592D01*
X89027000Y-60822408D01*
X88973314Y-60552510D01*
X88868005Y-60298273D01*
X88715120Y-60069465D01*
X88520535Y-59874880D01*
X88291727Y-59721995D01*
X88214485Y-59690000D01*
X88291727Y-59658005D01*
X88520535Y-59505120D01*
X88715120Y-59310535D01*
X88802341Y-59180000D01*
X95212678Y-59180000D01*
X95250000Y-59183676D01*
X95287322Y-59180000D01*
X95287333Y-59180000D01*
X95398986Y-59169003D01*
X95542247Y-59125546D01*
X95674276Y-59054974D01*
X95790001Y-58960001D01*
X95813804Y-58930997D01*
X96559802Y-58185000D01*
X96621939Y-58185000D01*
X96821898Y-58145226D01*
X97010256Y-58067205D01*
X97179774Y-57953937D01*
X97323937Y-57809774D01*
X97437205Y-57640256D01*
X97515226Y-57451898D01*
X97555000Y-57251939D01*
X97555000Y-57048061D01*
X97515226Y-56848102D01*
X97437205Y-56659744D01*
X97323937Y-56490226D01*
X97179774Y-56346063D01*
X97010256Y-56232795D01*
X96821898Y-56154774D01*
X96621939Y-56115000D01*
X96418061Y-56115000D01*
X96218102Y-56154774D01*
X96029744Y-56232795D01*
X95860226Y-56346063D01*
X95716063Y-56490226D01*
X95602795Y-56659744D01*
X95524774Y-56848102D01*
X95485000Y-57048061D01*
X95485000Y-57110198D01*
X94935199Y-57660000D01*
X88802341Y-57660000D01*
X88715120Y-57529465D01*
X88520535Y-57334880D01*
X88291727Y-57181995D01*
X88214485Y-57150000D01*
X88291727Y-57118005D01*
X88520535Y-56965120D01*
X88715120Y-56770535D01*
X88868005Y-56541727D01*
X88973314Y-56287490D01*
X89027000Y-56017592D01*
X89027000Y-55742408D01*
X88973314Y-55472510D01*
X88868005Y-55218273D01*
X88715120Y-54989465D01*
X88520535Y-54794880D01*
X88291727Y-54641995D01*
X88214485Y-54610000D01*
X88291727Y-54578005D01*
X88520535Y-54425120D01*
X88715120Y-54230535D01*
X88868005Y-54001727D01*
X88973314Y-53747490D01*
X89027000Y-53477592D01*
X89027000Y-53202408D01*
X88973314Y-52932510D01*
X88868005Y-52678273D01*
X88715120Y-52449465D01*
X88520535Y-52254880D01*
X88291727Y-52101995D01*
X88214485Y-52070000D01*
X88291727Y-52038005D01*
X88520535Y-51885120D01*
X88715120Y-51690535D01*
X88868005Y-51461727D01*
X88973314Y-51207490D01*
X89027000Y-50937592D01*
X89027000Y-50662408D01*
X88973314Y-50392510D01*
X88868005Y-50138273D01*
X88715120Y-49909465D01*
X88520535Y-49714880D01*
X88291727Y-49561995D01*
X88214485Y-49530000D01*
X88291727Y-49498005D01*
X88520535Y-49345120D01*
X88715120Y-49150535D01*
X88868005Y-48921727D01*
X88973314Y-48667490D01*
X89027000Y-48397592D01*
X89027000Y-48122408D01*
X88973314Y-47852510D01*
X88930853Y-47750000D01*
X98356289Y-47750000D01*
X98400226Y-47793937D01*
X98569744Y-47907205D01*
X98758102Y-47985226D01*
X98958061Y-48025000D01*
X99161939Y-48025000D01*
X99361898Y-47985226D01*
X99550256Y-47907205D01*
X99719774Y-47793937D01*
X99863937Y-47649774D01*
X99977205Y-47480256D01*
X100055226Y-47291898D01*
X100095000Y-47091939D01*
X100095000Y-46888061D01*
X100055226Y-46688102D01*
X99977205Y-46499744D01*
X99863937Y-46330226D01*
X99719774Y-46186063D01*
X99550256Y-46072795D01*
X99361898Y-45994774D01*
X99161939Y-45955000D01*
X98958061Y-45955000D01*
X98758102Y-45994774D01*
X98569744Y-46072795D01*
X98400226Y-46186063D01*
X98356289Y-46230000D01*
X88930853Y-46230000D01*
X88973314Y-46127490D01*
X89027000Y-45857592D01*
X89027000Y-45582408D01*
X88973314Y-45312510D01*
X88930853Y-45210000D01*
X98356289Y-45210000D01*
X98400226Y-45253937D01*
X98569744Y-45367205D01*
X98758102Y-45445226D01*
X98958061Y-45485000D01*
X99161939Y-45485000D01*
X99361898Y-45445226D01*
X99550256Y-45367205D01*
X99719774Y-45253937D01*
X99863937Y-45109774D01*
X99977205Y-44940256D01*
X100055226Y-44751898D01*
X100095000Y-44551939D01*
X100095000Y-44348061D01*
X100055226Y-44148102D01*
X99977205Y-43959744D01*
X99863937Y-43790226D01*
X99719774Y-43646063D01*
X99550256Y-43532795D01*
X99361898Y-43454774D01*
X99161939Y-43415000D01*
X98958061Y-43415000D01*
X98758102Y-43454774D01*
X98569744Y-43532795D01*
X98400226Y-43646063D01*
X98356289Y-43690000D01*
X88930853Y-43690000D01*
X88973314Y-43587490D01*
X89027000Y-43317592D01*
X89027000Y-43042408D01*
X88973314Y-42772510D01*
X88868005Y-42518273D01*
X88715120Y-42289465D01*
X88520535Y-42094880D01*
X88291727Y-41941995D01*
X88214485Y-41910000D01*
X88291727Y-41878005D01*
X88520535Y-41725120D01*
X88715120Y-41530535D01*
X88868005Y-41301727D01*
X88973314Y-41047490D01*
X89027000Y-40777592D01*
X89027000Y-40502408D01*
X88973314Y-40232510D01*
X88868005Y-39978273D01*
X88715120Y-39749465D01*
X88520535Y-39554880D01*
X88291727Y-39401995D01*
X88214485Y-39370000D01*
X88291727Y-39338005D01*
X88520535Y-39185120D01*
X88715120Y-38990535D01*
X88868005Y-38761727D01*
X88973314Y-38507490D01*
X89027000Y-38237592D01*
X89027000Y-37962408D01*
X88973314Y-37692510D01*
X88868005Y-37438273D01*
X88715120Y-37209465D01*
X88520535Y-37014880D01*
X88291727Y-36861995D01*
X88214485Y-36830000D01*
X88291727Y-36798005D01*
X88520535Y-36645120D01*
X88715120Y-36450535D01*
X88868005Y-36221727D01*
X88973314Y-35967490D01*
X89027000Y-35697592D01*
X89027000Y-35422408D01*
X88973314Y-35152510D01*
X88868005Y-34898273D01*
X88715120Y-34669465D01*
X88520535Y-34474880D01*
X88291727Y-34321995D01*
X88214485Y-34290000D01*
X88291727Y-34258005D01*
X88520535Y-34105120D01*
X88715120Y-33910535D01*
X88868005Y-33681727D01*
X88973314Y-33427490D01*
X88979167Y-33398061D01*
X93965000Y-33398061D01*
X93965000Y-33601939D01*
X94004774Y-33801898D01*
X94082795Y-33990256D01*
X94196063Y-34159774D01*
X94340226Y-34303937D01*
X94509744Y-34417205D01*
X94698102Y-34495226D01*
X94898061Y-34535000D01*
X95101939Y-34535000D01*
X95301898Y-34495226D01*
X95490256Y-34417205D01*
X95659774Y-34303937D01*
X95803937Y-34159774D01*
X95837195Y-34110000D01*
X102946289Y-34110000D01*
X102990226Y-34153937D01*
X103159744Y-34267205D01*
X103348102Y-34345226D01*
X103548061Y-34385000D01*
X103751939Y-34385000D01*
X103951898Y-34345226D01*
X104140256Y-34267205D01*
X104309774Y-34153937D01*
X104453937Y-34009774D01*
X104567205Y-33840256D01*
X104645226Y-33651898D01*
X104685000Y-33451939D01*
X104685000Y-33248061D01*
X104645226Y-33048102D01*
X104567205Y-32859744D01*
X104453937Y-32690226D01*
X104309774Y-32546063D01*
X104140256Y-32432795D01*
X103951898Y-32354774D01*
X103751939Y-32315000D01*
X103548061Y-32315000D01*
X103348102Y-32354774D01*
X103159744Y-32432795D01*
X102990226Y-32546063D01*
X102946289Y-32590000D01*
X95501039Y-32590000D01*
X95490256Y-32582795D01*
X95301898Y-32504774D01*
X95101939Y-32465000D01*
X94898061Y-32465000D01*
X94698102Y-32504774D01*
X94509744Y-32582795D01*
X94340226Y-32696063D01*
X94196063Y-32840226D01*
X94082795Y-33009744D01*
X94004774Y-33198102D01*
X93965000Y-33398061D01*
X88979167Y-33398061D01*
X89027000Y-33157592D01*
X89027000Y-29856993D01*
X103322612Y-29856993D01*
X103388137Y-30095860D01*
X103635116Y-30211760D01*
X103899960Y-30277250D01*
X104172492Y-30289812D01*
X104442238Y-30248965D01*
X104698832Y-30156277D01*
X104811863Y-30095860D01*
X104877388Y-29856993D01*
X104100000Y-29079605D01*
X103322612Y-29856993D01*
X89027000Y-29856993D01*
X89027000Y-28972492D01*
X102710188Y-28972492D01*
X102751035Y-29242238D01*
X102843723Y-29498832D01*
X102904140Y-29611863D01*
X103143007Y-29677388D01*
X103920395Y-28900000D01*
X104279605Y-28900000D01*
X105056993Y-29677388D01*
X105295860Y-29611863D01*
X105411760Y-29364884D01*
X105477250Y-29100040D01*
X105489812Y-28827508D01*
X105480133Y-28763589D01*
X106115000Y-28763589D01*
X106115000Y-29036411D01*
X106168225Y-29303989D01*
X106272629Y-29556043D01*
X106424201Y-29782886D01*
X106617114Y-29975799D01*
X106843957Y-30127371D01*
X107096011Y-30231775D01*
X107363589Y-30285000D01*
X107636411Y-30285000D01*
X107903989Y-30231775D01*
X108156043Y-30127371D01*
X108382886Y-29975799D01*
X108575799Y-29782886D01*
X108727371Y-29556043D01*
X108831775Y-29303989D01*
X108885000Y-29036411D01*
X108885000Y-28763589D01*
X108831775Y-28496011D01*
X108727371Y-28243957D01*
X108597773Y-28050000D01*
X109071928Y-28050000D01*
X109071928Y-29750000D01*
X109084188Y-29874482D01*
X109120498Y-29994180D01*
X109179463Y-30104494D01*
X109258815Y-30201185D01*
X109355506Y-30280537D01*
X109465820Y-30339502D01*
X109585518Y-30375812D01*
X109710000Y-30388072D01*
X111410000Y-30388072D01*
X111534482Y-30375812D01*
X111654180Y-30339502D01*
X111764494Y-30280537D01*
X111861185Y-30201185D01*
X111940537Y-30104494D01*
X111999502Y-29994180D01*
X112023966Y-29913534D01*
X112099731Y-29997588D01*
X112333080Y-30171641D01*
X112595901Y-30296825D01*
X112743110Y-30341476D01*
X112973000Y-30220155D01*
X112973000Y-29027000D01*
X113227000Y-29027000D01*
X113227000Y-30220155D01*
X113456890Y-30341476D01*
X113604099Y-30296825D01*
X113866920Y-30171641D01*
X113959904Y-30102285D01*
X115545000Y-30102285D01*
X115545000Y-30857715D01*
X115692377Y-31598628D01*
X115981467Y-32296554D01*
X116401161Y-32924670D01*
X116935330Y-33458839D01*
X117563446Y-33878533D01*
X118261372Y-34167623D01*
X119002285Y-34315000D01*
X119757715Y-34315000D01*
X120498628Y-34167623D01*
X121196554Y-33878533D01*
X121824670Y-33458839D01*
X122358839Y-32924670D01*
X122778533Y-32296554D01*
X123067623Y-31598628D01*
X123215000Y-30857715D01*
X123215000Y-30102285D01*
X123067623Y-29361372D01*
X122778533Y-28663446D01*
X122358839Y-28035330D01*
X121824670Y-27501161D01*
X121196554Y-27081467D01*
X120498628Y-26792377D01*
X119757715Y-26645000D01*
X119002285Y-26645000D01*
X118261372Y-26792377D01*
X117563446Y-27081467D01*
X116935330Y-27501161D01*
X116401161Y-28035330D01*
X115981467Y-28663446D01*
X115692377Y-29361372D01*
X115545000Y-30102285D01*
X113959904Y-30102285D01*
X114100269Y-29997588D01*
X114295178Y-29781355D01*
X114444157Y-29531252D01*
X114541481Y-29256891D01*
X114420814Y-29027000D01*
X113227000Y-29027000D01*
X112973000Y-29027000D01*
X112953000Y-29027000D01*
X112953000Y-28773000D01*
X112973000Y-28773000D01*
X112973000Y-27579845D01*
X113227000Y-27579845D01*
X113227000Y-28773000D01*
X114420814Y-28773000D01*
X114541481Y-28543109D01*
X114444157Y-28268748D01*
X114295178Y-28018645D01*
X114100269Y-27802412D01*
X113866920Y-27628359D01*
X113604099Y-27503175D01*
X113456890Y-27458524D01*
X113227000Y-27579845D01*
X112973000Y-27579845D01*
X112743110Y-27458524D01*
X112595901Y-27503175D01*
X112333080Y-27628359D01*
X112099731Y-27802412D01*
X112023966Y-27886466D01*
X111999502Y-27805820D01*
X111940537Y-27695506D01*
X111861185Y-27598815D01*
X111764494Y-27519463D01*
X111654180Y-27460498D01*
X111534482Y-27424188D01*
X111410000Y-27411928D01*
X109710000Y-27411928D01*
X109585518Y-27424188D01*
X109465820Y-27460498D01*
X109355506Y-27519463D01*
X109258815Y-27598815D01*
X109179463Y-27695506D01*
X109120498Y-27805820D01*
X109084188Y-27925518D01*
X109071928Y-28050000D01*
X108597773Y-28050000D01*
X108575799Y-28017114D01*
X108382886Y-27824201D01*
X108156043Y-27672629D01*
X107903989Y-27568225D01*
X107636411Y-27515000D01*
X107363589Y-27515000D01*
X107096011Y-27568225D01*
X106843957Y-27672629D01*
X106617114Y-27824201D01*
X106424201Y-28017114D01*
X106272629Y-28243957D01*
X106168225Y-28496011D01*
X106115000Y-28763589D01*
X105480133Y-28763589D01*
X105448965Y-28557762D01*
X105356277Y-28301168D01*
X105295860Y-28188137D01*
X105056993Y-28122612D01*
X104279605Y-28900000D01*
X103920395Y-28900000D01*
X103143007Y-28122612D01*
X102904140Y-28188137D01*
X102788240Y-28435116D01*
X102722750Y-28699960D01*
X102710188Y-28972492D01*
X89027000Y-28972492D01*
X89027000Y-27943007D01*
X103322612Y-27943007D01*
X104100000Y-28720395D01*
X104877388Y-27943007D01*
X104811863Y-27704140D01*
X104564884Y-27588240D01*
X104300040Y-27522750D01*
X104027508Y-27510188D01*
X103757762Y-27551035D01*
X103501168Y-27643723D01*
X103388137Y-27704140D01*
X103322612Y-27943007D01*
X89027000Y-27943007D01*
X89027000Y-26060000D01*
X123800000Y-26060000D01*
X123800001Y-75540000D01*
X103865131Y-75540000D01*
X105527060Y-73878072D01*
X106260000Y-73878072D01*
X106384482Y-73865812D01*
X106504180Y-73829502D01*
X106614494Y-73770537D01*
X106711185Y-73691185D01*
X106790537Y-73594494D01*
X106849502Y-73484180D01*
X106871513Y-73411620D01*
X107003368Y-73543475D01*
X107246589Y-73705990D01*
X107516842Y-73817932D01*
X107803740Y-73875000D01*
X108096260Y-73875000D01*
X108383158Y-73817932D01*
X108653411Y-73705990D01*
X108896632Y-73543475D01*
X109103475Y-73336632D01*
X109220000Y-73162240D01*
X109336525Y-73336632D01*
X109543368Y-73543475D01*
X109786589Y-73705990D01*
X110056842Y-73817932D01*
X110343740Y-73875000D01*
X110636260Y-73875000D01*
X110923158Y-73817932D01*
X111193411Y-73705990D01*
X111436632Y-73543475D01*
X111643475Y-73336632D01*
X111765195Y-73154466D01*
X111834822Y-73271355D01*
X112029731Y-73487588D01*
X112263080Y-73661641D01*
X112525901Y-73786825D01*
X112673110Y-73831476D01*
X112903000Y-73710155D01*
X112903000Y-72517000D01*
X113157000Y-72517000D01*
X113157000Y-73710155D01*
X113386890Y-73831476D01*
X113534099Y-73786825D01*
X113796920Y-73661641D01*
X114030269Y-73487588D01*
X114225178Y-73271355D01*
X114374157Y-73021252D01*
X114471481Y-72746891D01*
X114350814Y-72517000D01*
X113157000Y-72517000D01*
X112903000Y-72517000D01*
X112883000Y-72517000D01*
X112883000Y-72263000D01*
X112903000Y-72263000D01*
X112903000Y-71069845D01*
X113157000Y-71069845D01*
X113157000Y-72263000D01*
X114350814Y-72263000D01*
X114471481Y-72033109D01*
X114374157Y-71758748D01*
X114225178Y-71508645D01*
X114030269Y-71292412D01*
X113796920Y-71118359D01*
X113534099Y-70993175D01*
X113386890Y-70948524D01*
X113157000Y-71069845D01*
X112903000Y-71069845D01*
X112673110Y-70948524D01*
X112525901Y-70993175D01*
X112263080Y-71118359D01*
X112029731Y-71292412D01*
X111834822Y-71508645D01*
X111765195Y-71625534D01*
X111643475Y-71443368D01*
X111436632Y-71236525D01*
X111250000Y-71111822D01*
X111250000Y-70742285D01*
X115545000Y-70742285D01*
X115545000Y-71497715D01*
X115692377Y-72238628D01*
X115981467Y-72936554D01*
X116401161Y-73564670D01*
X116935330Y-74098839D01*
X117563446Y-74518533D01*
X118261372Y-74807623D01*
X119002285Y-74955000D01*
X119757715Y-74955000D01*
X120498628Y-74807623D01*
X121196554Y-74518533D01*
X121824670Y-74098839D01*
X122358839Y-73564670D01*
X122778533Y-72936554D01*
X123067623Y-72238628D01*
X123215000Y-71497715D01*
X123215000Y-70742285D01*
X123067623Y-70001372D01*
X122778533Y-69303446D01*
X122358839Y-68675330D01*
X121824670Y-68141161D01*
X121196554Y-67721467D01*
X120498628Y-67432377D01*
X119757715Y-67285000D01*
X119002285Y-67285000D01*
X118261372Y-67432377D01*
X117563446Y-67721467D01*
X116935330Y-68141161D01*
X116401161Y-68675330D01*
X115981467Y-69303446D01*
X115692377Y-70001372D01*
X115545000Y-70742285D01*
X111250000Y-70742285D01*
X111250000Y-69283711D01*
X111293937Y-69239774D01*
X111407205Y-69070256D01*
X111485226Y-68881898D01*
X111525000Y-68681939D01*
X111525000Y-68478061D01*
X111485226Y-68278102D01*
X111407205Y-68089744D01*
X111293937Y-67920226D01*
X111149774Y-67776063D01*
X110980256Y-67662795D01*
X110791898Y-67584774D01*
X110591939Y-67545000D01*
X110388061Y-67545000D01*
X110188102Y-67584774D01*
X109999744Y-67662795D01*
X109830226Y-67776063D01*
X109686063Y-67920226D01*
X109572795Y-68089744D01*
X109494774Y-68278102D01*
X109455000Y-68478061D01*
X109455000Y-68681939D01*
X109494774Y-68881898D01*
X109572795Y-69070256D01*
X109686063Y-69239774D01*
X109730000Y-69283711D01*
X109730001Y-71111821D01*
X109543368Y-71236525D01*
X109336525Y-71443368D01*
X109220000Y-71617760D01*
X109103475Y-71443368D01*
X108896632Y-71236525D01*
X108710000Y-71111822D01*
X108710000Y-69283711D01*
X108753937Y-69239774D01*
X108867205Y-69070256D01*
X108945226Y-68881898D01*
X108985000Y-68681939D01*
X108985000Y-68478061D01*
X108945226Y-68278102D01*
X108867205Y-68089744D01*
X108753937Y-67920226D01*
X108609774Y-67776063D01*
X108440256Y-67662795D01*
X108251898Y-67584774D01*
X108051939Y-67545000D01*
X107848061Y-67545000D01*
X107648102Y-67584774D01*
X107459744Y-67662795D01*
X107290226Y-67776063D01*
X107146063Y-67920226D01*
X107032795Y-68089744D01*
X106954774Y-68278102D01*
X106915000Y-68478061D01*
X106915000Y-68681939D01*
X106954774Y-68881898D01*
X107032795Y-69070256D01*
X107146063Y-69239774D01*
X107190000Y-69283711D01*
X107190001Y-71111821D01*
X107003368Y-71236525D01*
X106871513Y-71368380D01*
X106849502Y-71295820D01*
X106790537Y-71185506D01*
X106711185Y-71088815D01*
X106614494Y-71009463D01*
X106504180Y-70950498D01*
X106384482Y-70914188D01*
X106260000Y-70901928D01*
X105527061Y-70901928D01*
X100225000Y-65599869D01*
X100225000Y-64635000D01*
X105354249Y-64635000D01*
X105410000Y-64640491D01*
X105465751Y-64635000D01*
X105465752Y-64635000D01*
X105632499Y-64618577D01*
X105846447Y-64553676D01*
X106043623Y-64448284D01*
X106216449Y-64306449D01*
X106251996Y-64263135D01*
X113532614Y-56982518D01*
X113644880Y-57150535D01*
X113839465Y-57345120D01*
X114068273Y-57498005D01*
X114322510Y-57603314D01*
X114592408Y-57657000D01*
X114867592Y-57657000D01*
X115137490Y-57603314D01*
X115391727Y-57498005D01*
X115620535Y-57345120D01*
X115815120Y-57150535D01*
X115968005Y-56921727D01*
X116073314Y-56667490D01*
X116127000Y-56397592D01*
X116127000Y-56122408D01*
X116073314Y-55852510D01*
X115968005Y-55598273D01*
X115815120Y-55369465D01*
X115705655Y-55260000D01*
X115815120Y-55150535D01*
X115968005Y-54921727D01*
X116073314Y-54667490D01*
X116127000Y-54397592D01*
X116127000Y-54122408D01*
X116073314Y-53852510D01*
X115968005Y-53598273D01*
X115815120Y-53369465D01*
X115705655Y-53260000D01*
X115815120Y-53150535D01*
X115968005Y-52921727D01*
X116073314Y-52667490D01*
X116127000Y-52397592D01*
X116127000Y-52122408D01*
X116073314Y-51852510D01*
X115968005Y-51598273D01*
X115815120Y-51369465D01*
X115705655Y-51260000D01*
X115815120Y-51150535D01*
X115968005Y-50921727D01*
X116073314Y-50667490D01*
X116127000Y-50397592D01*
X116127000Y-50122408D01*
X116073314Y-49852510D01*
X115968005Y-49598273D01*
X115815120Y-49369465D01*
X115705655Y-49260000D01*
X115815120Y-49150535D01*
X115968005Y-48921727D01*
X116073314Y-48667490D01*
X116127000Y-48397592D01*
X116127000Y-48122408D01*
X116073314Y-47852510D01*
X115968005Y-47598273D01*
X115815120Y-47369465D01*
X115705655Y-47260000D01*
X115815120Y-47150535D01*
X115968005Y-46921727D01*
X116073314Y-46667490D01*
X116127000Y-46397592D01*
X116127000Y-46122408D01*
X116073314Y-45852510D01*
X115968005Y-45598273D01*
X115815120Y-45369465D01*
X115620535Y-45174880D01*
X115391727Y-45021995D01*
X115256290Y-44965895D01*
X114730000Y-44439605D01*
X114715858Y-44453748D01*
X114536253Y-44274143D01*
X114550395Y-44260000D01*
X114909605Y-44260000D01*
X115695565Y-45045960D01*
X115935656Y-44978980D01*
X116052756Y-44729952D01*
X116119023Y-44462865D01*
X116131910Y-44187983D01*
X116090922Y-43915867D01*
X115997636Y-43656977D01*
X115935656Y-43541020D01*
X115695565Y-43474040D01*
X114909605Y-44260000D01*
X114550395Y-44260000D01*
X114536253Y-44245858D01*
X114715858Y-44066253D01*
X114730000Y-44080395D01*
X115254445Y-43555950D01*
X115333023Y-43527636D01*
X115448980Y-43465656D01*
X115489313Y-43321082D01*
X115515960Y-43294435D01*
X115506353Y-43260000D01*
X115515960Y-43225565D01*
X115489313Y-43198918D01*
X115448980Y-43054344D01*
X115252214Y-42961819D01*
X114730000Y-42439605D01*
X114715858Y-42453748D01*
X114536253Y-42274143D01*
X114550395Y-42260000D01*
X114909605Y-42260000D01*
X115695565Y-43045960D01*
X115935656Y-42978980D01*
X116052756Y-42729952D01*
X116119023Y-42462865D01*
X116131910Y-42187983D01*
X116090922Y-41915867D01*
X115997636Y-41656977D01*
X115935656Y-41541020D01*
X115695565Y-41474040D01*
X114909605Y-42260000D01*
X114550395Y-42260000D01*
X114536253Y-42245858D01*
X114715858Y-42066253D01*
X114730000Y-42080395D01*
X115256290Y-41554105D01*
X115391727Y-41498005D01*
X115620535Y-41345120D01*
X115815120Y-41150535D01*
X115968005Y-40921727D01*
X116073314Y-40667490D01*
X116127000Y-40397592D01*
X116127000Y-40122408D01*
X116073314Y-39852510D01*
X115968005Y-39598273D01*
X115815120Y-39369465D01*
X115620535Y-39174880D01*
X115391727Y-39021995D01*
X115137490Y-38916686D01*
X114867592Y-38863000D01*
X114592408Y-38863000D01*
X114322510Y-38916686D01*
X114068273Y-39021995D01*
X113839465Y-39174880D01*
X113644880Y-39369465D01*
X113491995Y-39598273D01*
X113399478Y-39821627D01*
X112266860Y-40954247D01*
X112223552Y-40989789D01*
X112081717Y-41162615D01*
X112057307Y-41208284D01*
X111976324Y-41359792D01*
X111911423Y-41573740D01*
X111889509Y-41796238D01*
X111895001Y-41851999D01*
X111895000Y-55409868D01*
X104939869Y-62365000D01*
X100095501Y-62365000D01*
X100041185Y-62298815D01*
X99944494Y-62219463D01*
X99834180Y-62160498D01*
X99714482Y-62124188D01*
X99590000Y-62111928D01*
X98590000Y-62111928D01*
X98465518Y-62124188D01*
X98440000Y-62131929D01*
X98414482Y-62124188D01*
X98290000Y-62111928D01*
X97290000Y-62111928D01*
X97165518Y-62124188D01*
X97140000Y-62131929D01*
X97114482Y-62124188D01*
X96990000Y-62111928D01*
X95990000Y-62111928D01*
X95865518Y-62124188D01*
X95745820Y-62160498D01*
X95635506Y-62219463D01*
X95538815Y-62298815D01*
X95459463Y-62395506D01*
X95400498Y-62505820D01*
X95364188Y-62625518D01*
X95351928Y-62750000D01*
X95351928Y-63032940D01*
X93479869Y-64905000D01*
X88445884Y-64905000D01*
X88291727Y-64801995D01*
X88220057Y-64772308D01*
X88233023Y-64767636D01*
X88348980Y-64705656D01*
X88415960Y-64465565D01*
X87630000Y-63679605D01*
X86844040Y-64465565D01*
X86911020Y-64705656D01*
X87046760Y-64769485D01*
X86968273Y-64801995D01*
X86739465Y-64954880D01*
X86544880Y-65149465D01*
X86391995Y-65378273D01*
X86286686Y-65632510D01*
X86250515Y-65814352D01*
X83349869Y-68715000D01*
X61705741Y-68715000D01*
X61649999Y-68709510D01*
X61594257Y-68715000D01*
X61594248Y-68715000D01*
X61427501Y-68731423D01*
X61213553Y-68796324D01*
X61016377Y-68901716D01*
X60843551Y-69043551D01*
X60808004Y-69086865D01*
X60196860Y-69698009D01*
X60153552Y-69733551D01*
X60011717Y-69906377D01*
X59955384Y-70011770D01*
X59906324Y-70103554D01*
X59841423Y-70317502D01*
X59819509Y-70540000D01*
X59825001Y-70595761D01*
X59825001Y-70972317D01*
X59755506Y-71009463D01*
X59658815Y-71088815D01*
X59579463Y-71185506D01*
X59520498Y-71295820D01*
X59484188Y-71415518D01*
X59471928Y-71540000D01*
X59471928Y-73240000D01*
X59484188Y-73364482D01*
X59520498Y-73484180D01*
X59579463Y-73594494D01*
X59658815Y-73691185D01*
X59755506Y-73770537D01*
X59801272Y-73795000D01*
X44927147Y-73795000D01*
X44954099Y-73786825D01*
X45216920Y-73661641D01*
X45450269Y-73487588D01*
X45645178Y-73271355D01*
X45794157Y-73021252D01*
X45891481Y-72746891D01*
X45770814Y-72517000D01*
X44577000Y-72517000D01*
X44577000Y-72537000D01*
X44323000Y-72537000D01*
X44323000Y-72517000D01*
X44303000Y-72517000D01*
X44303000Y-72263000D01*
X44323000Y-72263000D01*
X44323000Y-71069845D01*
X44577000Y-71069845D01*
X44577000Y-72263000D01*
X45770814Y-72263000D01*
X45891481Y-72033109D01*
X45794157Y-71758748D01*
X45645178Y-71508645D01*
X45450269Y-71292412D01*
X45216920Y-71118359D01*
X44954099Y-70993175D01*
X44806890Y-70948524D01*
X44577000Y-71069845D01*
X44323000Y-71069845D01*
X44093110Y-70948524D01*
X43945901Y-70993175D01*
X43683080Y-71118359D01*
X43449731Y-71292412D01*
X43254822Y-71508645D01*
X43185195Y-71625534D01*
X43063475Y-71443368D01*
X42856632Y-71236525D01*
X42613411Y-71074010D01*
X42343158Y-70962068D01*
X42056260Y-70905000D01*
X41763740Y-70905000D01*
X41476842Y-70962068D01*
X41206589Y-71074010D01*
X40963368Y-71236525D01*
X40756525Y-71443368D01*
X40640000Y-71617760D01*
X40523475Y-71443368D01*
X40316632Y-71236525D01*
X40073411Y-71074010D01*
X39803158Y-70962068D01*
X39516260Y-70905000D01*
X39223740Y-70905000D01*
X38936842Y-70962068D01*
X38666589Y-71074010D01*
X38423368Y-71236525D01*
X38291513Y-71368380D01*
X38269502Y-71295820D01*
X38210537Y-71185506D01*
X38131185Y-71088815D01*
X38034494Y-71009463D01*
X37924180Y-70950498D01*
X37804482Y-70914188D01*
X37680000Y-70901928D01*
X35980000Y-70901928D01*
X35855518Y-70914188D01*
X35735820Y-70950498D01*
X35625506Y-71009463D01*
X35528815Y-71088815D01*
X35449463Y-71185506D01*
X35390498Y-71295820D01*
X35354188Y-71415518D01*
X35341928Y-71540000D01*
X35341928Y-73240000D01*
X35354188Y-73364482D01*
X35390498Y-73484180D01*
X35449463Y-73594494D01*
X35528815Y-73691185D01*
X35625506Y-73770537D01*
X35704557Y-73812792D01*
X35711423Y-73882499D01*
X35776324Y-74096447D01*
X35881717Y-74293623D01*
X36023552Y-74466449D01*
X36066860Y-74501991D01*
X37104868Y-75540000D01*
X26060000Y-75540000D01*
X26060000Y-70742285D01*
X26645000Y-70742285D01*
X26645000Y-71497715D01*
X26792377Y-72238628D01*
X27081467Y-72936554D01*
X27501161Y-73564670D01*
X28035330Y-74098839D01*
X28663446Y-74518533D01*
X29361372Y-74807623D01*
X30102285Y-74955000D01*
X30857715Y-74955000D01*
X31598628Y-74807623D01*
X32296554Y-74518533D01*
X32924670Y-74098839D01*
X33458839Y-73564670D01*
X33878533Y-72936554D01*
X34167623Y-72238628D01*
X34315000Y-71497715D01*
X34315000Y-70742285D01*
X34167623Y-70001372D01*
X33878533Y-69303446D01*
X33458839Y-68675330D01*
X32924670Y-68141161D01*
X32296554Y-67721467D01*
X31598628Y-67432377D01*
X30857715Y-67285000D01*
X30102285Y-67285000D01*
X29361372Y-67432377D01*
X28663446Y-67721467D01*
X28035330Y-68141161D01*
X27501161Y-68675330D01*
X27081467Y-69303446D01*
X26792377Y-70001372D01*
X26645000Y-70742285D01*
X26060000Y-70742285D01*
X26060000Y-52426890D01*
X27768524Y-52426890D01*
X27813175Y-52574099D01*
X27938359Y-52836920D01*
X28112412Y-53070269D01*
X28328645Y-53265178D01*
X28578748Y-53414157D01*
X28853109Y-53511481D01*
X29083000Y-53390814D01*
X29083000Y-52197000D01*
X29337000Y-52197000D01*
X29337000Y-53390814D01*
X29566891Y-53511481D01*
X29841252Y-53414157D01*
X30091355Y-53265178D01*
X30307588Y-53070269D01*
X30481641Y-52836920D01*
X30606825Y-52574099D01*
X30651476Y-52426890D01*
X30530155Y-52197000D01*
X29337000Y-52197000D01*
X29083000Y-52197000D01*
X27889845Y-52197000D01*
X27768524Y-52426890D01*
X26060000Y-52426890D01*
X26060000Y-48680000D01*
X27721928Y-48680000D01*
X27721928Y-50380000D01*
X27734188Y-50504482D01*
X27770498Y-50624180D01*
X27829463Y-50734494D01*
X27908815Y-50831185D01*
X28005506Y-50910537D01*
X28115820Y-50969502D01*
X28196466Y-50993966D01*
X28112412Y-51069731D01*
X27938359Y-51303080D01*
X27813175Y-51565901D01*
X27768524Y-51713110D01*
X27889845Y-51943000D01*
X29083000Y-51943000D01*
X29083000Y-51923000D01*
X29337000Y-51923000D01*
X29337000Y-51943000D01*
X30530155Y-51943000D01*
X30651476Y-51713110D01*
X30606825Y-51565901D01*
X30481641Y-51303080D01*
X30307588Y-51069731D01*
X30223534Y-50993966D01*
X30304180Y-50969502D01*
X30414494Y-50910537D01*
X30511185Y-50831185D01*
X30590537Y-50734494D01*
X30649502Y-50624180D01*
X30685812Y-50504482D01*
X30698072Y-50380000D01*
X30698072Y-48680000D01*
X30685812Y-48555518D01*
X30649502Y-48435820D01*
X30590537Y-48325506D01*
X30511185Y-48228815D01*
X30414494Y-48149463D01*
X30304180Y-48090498D01*
X30184482Y-48054188D01*
X30060000Y-48041928D01*
X28360000Y-48041928D01*
X28235518Y-48054188D01*
X28115820Y-48090498D01*
X28005506Y-48149463D01*
X27908815Y-48228815D01*
X27829463Y-48325506D01*
X27770498Y-48435820D01*
X27734188Y-48555518D01*
X27721928Y-48680000D01*
X26060000Y-48680000D01*
X26060000Y-40122408D01*
X33733000Y-40122408D01*
X33733000Y-40397592D01*
X33786686Y-40667490D01*
X33891995Y-40921727D01*
X34044880Y-41150535D01*
X34154345Y-41260000D01*
X34044880Y-41369465D01*
X33891995Y-41598273D01*
X33786686Y-41852510D01*
X33733000Y-42122408D01*
X33733000Y-42397592D01*
X33786686Y-42667490D01*
X33891995Y-42921727D01*
X34044880Y-43150535D01*
X34154345Y-43260000D01*
X34044880Y-43369465D01*
X33891995Y-43598273D01*
X33786686Y-43852510D01*
X33733000Y-44122408D01*
X33733000Y-44397592D01*
X33786686Y-44667490D01*
X33891995Y-44921727D01*
X34044880Y-45150535D01*
X34154345Y-45260000D01*
X34044880Y-45369465D01*
X33891995Y-45598273D01*
X33786686Y-45852510D01*
X33733000Y-46122408D01*
X33733000Y-46397592D01*
X33786686Y-46667490D01*
X33891995Y-46921727D01*
X34044880Y-47150535D01*
X34154345Y-47260000D01*
X34044880Y-47369465D01*
X33891995Y-47598273D01*
X33786686Y-47852510D01*
X33733000Y-48122408D01*
X33733000Y-48397592D01*
X33786686Y-48667490D01*
X33891995Y-48921727D01*
X34044880Y-49150535D01*
X34154345Y-49260000D01*
X34044880Y-49369465D01*
X33891995Y-49598273D01*
X33786686Y-49852510D01*
X33733000Y-50122408D01*
X33733000Y-50397592D01*
X33786686Y-50667490D01*
X33891995Y-50921727D01*
X34044880Y-51150535D01*
X34154345Y-51260000D01*
X34044880Y-51369465D01*
X33891995Y-51598273D01*
X33786686Y-51852510D01*
X33733000Y-52122408D01*
X33733000Y-52397592D01*
X33786686Y-52667490D01*
X33891995Y-52921727D01*
X34044880Y-53150535D01*
X34154345Y-53260000D01*
X34044880Y-53369465D01*
X33891995Y-53598273D01*
X33786686Y-53852510D01*
X33733000Y-54122408D01*
X33733000Y-54397592D01*
X33786686Y-54667490D01*
X33891995Y-54921727D01*
X34044880Y-55150535D01*
X34154345Y-55260000D01*
X34044880Y-55369465D01*
X33891995Y-55598273D01*
X33786686Y-55852510D01*
X33733000Y-56122408D01*
X33733000Y-56397592D01*
X33786686Y-56667490D01*
X33891995Y-56921727D01*
X34044880Y-57150535D01*
X34239465Y-57345120D01*
X34468273Y-57498005D01*
X34722510Y-57603314D01*
X34992408Y-57657000D01*
X35267592Y-57657000D01*
X35537490Y-57603314D01*
X35791727Y-57498005D01*
X36020535Y-57345120D01*
X36215120Y-57150535D01*
X36368005Y-56921727D01*
X36473314Y-56667490D01*
X36527000Y-56397592D01*
X36527000Y-56184502D01*
X37105001Y-56762503D01*
X37105000Y-67444115D01*
X37001995Y-67598273D01*
X36896686Y-67852510D01*
X36843000Y-68122408D01*
X36843000Y-68397592D01*
X36896686Y-68667490D01*
X37001995Y-68921727D01*
X37154880Y-69150535D01*
X37349465Y-69345120D01*
X37578273Y-69498005D01*
X37832510Y-69603314D01*
X38102408Y-69657000D01*
X38377592Y-69657000D01*
X38647490Y-69603314D01*
X38901727Y-69498005D01*
X39130535Y-69345120D01*
X39250090Y-69225565D01*
X54954040Y-69225565D01*
X55021020Y-69465656D01*
X55270048Y-69582756D01*
X55537135Y-69649023D01*
X55812017Y-69661910D01*
X56084133Y-69620922D01*
X56343023Y-69527636D01*
X56458980Y-69465656D01*
X56525960Y-69225565D01*
X55740000Y-68439605D01*
X54954040Y-69225565D01*
X39250090Y-69225565D01*
X39325120Y-69150535D01*
X39478005Y-68921727D01*
X39583314Y-68667490D01*
X39637000Y-68397592D01*
X39637000Y-68332017D01*
X54338090Y-68332017D01*
X54379078Y-68604133D01*
X54472364Y-68863023D01*
X54534344Y-68978980D01*
X54774435Y-69045960D01*
X55560395Y-68260000D01*
X55919605Y-68260000D01*
X56705565Y-69045960D01*
X56945656Y-68978980D01*
X57062756Y-68729952D01*
X57129023Y-68462865D01*
X57141910Y-68187983D01*
X57100922Y-67915867D01*
X57007636Y-67656977D01*
X56945656Y-67541020D01*
X56705565Y-67474040D01*
X55919605Y-68260000D01*
X55560395Y-68260000D01*
X54774435Y-67474040D01*
X54534344Y-67541020D01*
X54417244Y-67790048D01*
X54350977Y-68057135D01*
X54338090Y-68332017D01*
X39637000Y-68332017D01*
X39637000Y-68122408D01*
X39583314Y-67852510D01*
X39478005Y-67598273D01*
X39375000Y-67444116D01*
X39375000Y-67294435D01*
X54954040Y-67294435D01*
X55740000Y-68080395D01*
X56525960Y-67294435D01*
X56458980Y-67054344D01*
X56209952Y-66937244D01*
X55942865Y-66870977D01*
X55667983Y-66858090D01*
X55395867Y-66899078D01*
X55136977Y-66992364D01*
X55021020Y-67054344D01*
X54954040Y-67294435D01*
X39375000Y-67294435D01*
X39375000Y-65902408D01*
X60833000Y-65902408D01*
X60833000Y-66177592D01*
X60886686Y-66447490D01*
X60991995Y-66701727D01*
X61144880Y-66930535D01*
X61339465Y-67125120D01*
X61568273Y-67278005D01*
X61822510Y-67383314D01*
X62092408Y-67437000D01*
X62367592Y-67437000D01*
X62637490Y-67383314D01*
X62891727Y-67278005D01*
X63120535Y-67125120D01*
X63315120Y-66930535D01*
X63468005Y-66701727D01*
X63573314Y-66447490D01*
X63627000Y-66177592D01*
X63627000Y-65902408D01*
X63573314Y-65632510D01*
X63468005Y-65378273D01*
X63315120Y-65149465D01*
X63120535Y-64954880D01*
X62891727Y-64801995D01*
X62820057Y-64772308D01*
X62833023Y-64767636D01*
X62948980Y-64705656D01*
X63015960Y-64465565D01*
X62230000Y-63679605D01*
X61444040Y-64465565D01*
X61511020Y-64705656D01*
X61646760Y-64769485D01*
X61568273Y-64801995D01*
X61339465Y-64954880D01*
X61144880Y-65149465D01*
X60991995Y-65378273D01*
X60886686Y-65632510D01*
X60833000Y-65902408D01*
X39375000Y-65902408D01*
X39375000Y-56348113D01*
X39380490Y-56292369D01*
X39375000Y-56236625D01*
X39375000Y-56236618D01*
X39358577Y-56069871D01*
X39293676Y-55855923D01*
X39188284Y-55658747D01*
X39046449Y-55485921D01*
X39003141Y-55450379D01*
X37049626Y-53496865D01*
X37014079Y-53453551D01*
X36841253Y-53311716D01*
X36644077Y-53206324D01*
X36430129Y-53141423D01*
X36263382Y-53125000D01*
X36263381Y-53125000D01*
X36234108Y-53122117D01*
X36368005Y-52921727D01*
X36473314Y-52667490D01*
X36527000Y-52397592D01*
X36527000Y-52122408D01*
X36473314Y-51852510D01*
X36368005Y-51598273D01*
X36215120Y-51369465D01*
X36105655Y-51260000D01*
X36215120Y-51150535D01*
X36368005Y-50921727D01*
X36473314Y-50667490D01*
X36527000Y-50397592D01*
X36527000Y-50122408D01*
X36473314Y-49852510D01*
X36368005Y-49598273D01*
X36215120Y-49369465D01*
X36105655Y-49260000D01*
X36215120Y-49150535D01*
X36368005Y-48921727D01*
X36473314Y-48667490D01*
X36527000Y-48397592D01*
X36527000Y-48122408D01*
X36473314Y-47852510D01*
X36368005Y-47598273D01*
X36215120Y-47369465D01*
X36105655Y-47260000D01*
X36215120Y-47150535D01*
X36368005Y-46921727D01*
X36473314Y-46667490D01*
X36527000Y-46397592D01*
X36527000Y-46122408D01*
X36473314Y-45852510D01*
X36368005Y-45598273D01*
X36215120Y-45369465D01*
X36105655Y-45260000D01*
X36215120Y-45150535D01*
X36368005Y-44921727D01*
X36473314Y-44667490D01*
X36527000Y-44397592D01*
X36527000Y-44122408D01*
X36473314Y-43852510D01*
X36368005Y-43598273D01*
X36215120Y-43369465D01*
X36105655Y-43260000D01*
X36215120Y-43150535D01*
X36368005Y-42921727D01*
X36473314Y-42667490D01*
X36527000Y-42397592D01*
X36527000Y-42122408D01*
X36473314Y-41852510D01*
X36368005Y-41598273D01*
X36215120Y-41369465D01*
X36105655Y-41260000D01*
X36215120Y-41150535D01*
X36368005Y-40921727D01*
X36473314Y-40667490D01*
X36527000Y-40397592D01*
X36527000Y-40122408D01*
X36473314Y-39852510D01*
X36368005Y-39598273D01*
X36215120Y-39369465D01*
X36020535Y-39174880D01*
X35791727Y-39021995D01*
X35537490Y-38916686D01*
X35267592Y-38863000D01*
X34992408Y-38863000D01*
X34722510Y-38916686D01*
X34468273Y-39021995D01*
X34239465Y-39174880D01*
X34044880Y-39369465D01*
X33891995Y-39598273D01*
X33786686Y-39852510D01*
X33733000Y-40122408D01*
X26060000Y-40122408D01*
X26060000Y-30102285D01*
X26645000Y-30102285D01*
X26645000Y-30857715D01*
X26792377Y-31598628D01*
X27081467Y-32296554D01*
X27501161Y-32924670D01*
X28035330Y-33458839D01*
X28663446Y-33878533D01*
X29361372Y-34167623D01*
X30102285Y-34315000D01*
X30857715Y-34315000D01*
X31598628Y-34167623D01*
X32296554Y-33878533D01*
X32924670Y-33458839D01*
X33458839Y-32924670D01*
X33878533Y-32296554D01*
X34167623Y-31598628D01*
X34298632Y-30940000D01*
X34419509Y-30940000D01*
X34425000Y-30995751D01*
X34425000Y-31861788D01*
X34435932Y-31916748D01*
X34441423Y-31972498D01*
X34457684Y-32026103D01*
X34468617Y-32081067D01*
X34490064Y-32132845D01*
X34506324Y-32186446D01*
X34532730Y-32235848D01*
X34554176Y-32287624D01*
X34585307Y-32334215D01*
X34611716Y-32383623D01*
X34647259Y-32426932D01*
X34678388Y-32473520D01*
X34718009Y-32513141D01*
X34753551Y-32556449D01*
X34796859Y-32591991D01*
X34836480Y-32631612D01*
X34883068Y-32662741D01*
X34926377Y-32698284D01*
X34975786Y-32724693D01*
X35022376Y-32755824D01*
X35074149Y-32777269D01*
X35123553Y-32803676D01*
X35177158Y-32819937D01*
X35228933Y-32841383D01*
X35283894Y-32852315D01*
X35337501Y-32868577D01*
X35393253Y-32874068D01*
X35448212Y-32885000D01*
X35504248Y-32885000D01*
X35560000Y-32890491D01*
X35615751Y-32885000D01*
X35671788Y-32885000D01*
X35726748Y-32874068D01*
X35782498Y-32868577D01*
X35836103Y-32852316D01*
X35891067Y-32841383D01*
X35942845Y-32819936D01*
X35996446Y-32803676D01*
X36045848Y-32777270D01*
X36097624Y-32755824D01*
X36144215Y-32724693D01*
X36193623Y-32698284D01*
X36236932Y-32662741D01*
X36283520Y-32631612D01*
X36323141Y-32591991D01*
X36366449Y-32556449D01*
X36401991Y-32513141D01*
X36441612Y-32473520D01*
X36472741Y-32426932D01*
X36508284Y-32383623D01*
X36534693Y-32334214D01*
X36565824Y-32287624D01*
X36587269Y-32235851D01*
X36613676Y-32186447D01*
X36629937Y-32132842D01*
X36651383Y-32081067D01*
X36662315Y-32026106D01*
X36678577Y-31972499D01*
X36684068Y-31916747D01*
X36695000Y-31861788D01*
X36695000Y-31410131D01*
X38465647Y-29639485D01*
X38647490Y-29603314D01*
X38901727Y-29498005D01*
X39130535Y-29345120D01*
X39250090Y-29225565D01*
X54954040Y-29225565D01*
X55021020Y-29465656D01*
X55270048Y-29582756D01*
X55537135Y-29649023D01*
X55812017Y-29661910D01*
X56084133Y-29620922D01*
X56343023Y-29527636D01*
X56458980Y-29465656D01*
X56525960Y-29225565D01*
X55740000Y-28439605D01*
X54954040Y-29225565D01*
X39250090Y-29225565D01*
X39325120Y-29150535D01*
X39478005Y-28921727D01*
X39583314Y-28667490D01*
X39637000Y-28397592D01*
X39637000Y-28332017D01*
X54338090Y-28332017D01*
X54379078Y-28604133D01*
X54472364Y-28863023D01*
X54534344Y-28978980D01*
X54774435Y-29045960D01*
X55560395Y-28260000D01*
X55919605Y-28260000D01*
X56705565Y-29045960D01*
X56945656Y-28978980D01*
X57062756Y-28729952D01*
X57129023Y-28462865D01*
X57141910Y-28187983D01*
X57100922Y-27915867D01*
X57007636Y-27656977D01*
X56945656Y-27541020D01*
X56705565Y-27474040D01*
X55919605Y-28260000D01*
X55560395Y-28260000D01*
X54774435Y-27474040D01*
X54534344Y-27541020D01*
X54417244Y-27790048D01*
X54350977Y-28057135D01*
X54338090Y-28332017D01*
X39637000Y-28332017D01*
X39637000Y-28122408D01*
X39583314Y-27852510D01*
X39478005Y-27598273D01*
X39325120Y-27369465D01*
X39250090Y-27294435D01*
X54954040Y-27294435D01*
X55740000Y-28080395D01*
X56525960Y-27294435D01*
X56458980Y-27054344D01*
X56209952Y-26937244D01*
X55942865Y-26870977D01*
X55667983Y-26858090D01*
X55395867Y-26899078D01*
X55136977Y-26992364D01*
X55021020Y-27054344D01*
X54954040Y-27294435D01*
X39250090Y-27294435D01*
X39130535Y-27174880D01*
X38901727Y-27021995D01*
X38647490Y-26916686D01*
X38377592Y-26863000D01*
X38102408Y-26863000D01*
X37832510Y-26916686D01*
X37578273Y-27021995D01*
X37349465Y-27174880D01*
X37154880Y-27369465D01*
X37001995Y-27598273D01*
X36896686Y-27852510D01*
X36860515Y-28034353D01*
X34796860Y-30098009D01*
X34753552Y-30133551D01*
X34611717Y-30306377D01*
X34506324Y-30503553D01*
X34441423Y-30717501D01*
X34441423Y-30717502D01*
X34419509Y-30940000D01*
X34298632Y-30940000D01*
X34315000Y-30857715D01*
X34315000Y-30102285D01*
X34167623Y-29361372D01*
X33878533Y-28663446D01*
X33458839Y-28035330D01*
X32924670Y-27501161D01*
X32296554Y-27081467D01*
X31598628Y-26792377D01*
X30857715Y-26645000D01*
X30102285Y-26645000D01*
X29361372Y-26792377D01*
X28663446Y-27081467D01*
X28035330Y-27501161D01*
X27501161Y-28035330D01*
X27081467Y-28663446D01*
X26792377Y-29361372D01*
X26645000Y-30102285D01*
X26060000Y-30102285D01*
X26060000Y-26060000D01*
X60833000Y-26060000D01*
X60833000Y-33157592D01*
%TA.AperFunction,Conductor*%
D23*
G36*
X60833000Y-33157592D02*
G01*
X60886686Y-33427490D01*
X60991995Y-33681727D01*
X61144880Y-33910535D01*
X61339465Y-34105120D01*
X61568273Y-34258005D01*
X61645515Y-34290000D01*
X61568273Y-34321995D01*
X61339465Y-34474880D01*
X61144880Y-34669465D01*
X60991995Y-34898273D01*
X60886686Y-35152510D01*
X60833000Y-35422408D01*
X60833000Y-35697592D01*
X60886686Y-35967490D01*
X60991995Y-36221727D01*
X61144880Y-36450535D01*
X61339465Y-36645120D01*
X61568273Y-36798005D01*
X61645515Y-36830000D01*
X61568273Y-36861995D01*
X61339465Y-37014880D01*
X61144880Y-37209465D01*
X60991995Y-37438273D01*
X60886686Y-37692510D01*
X60833000Y-37962408D01*
X60833000Y-38237592D01*
X60886686Y-38507490D01*
X60991995Y-38761727D01*
X61144880Y-38990535D01*
X61339465Y-39185120D01*
X61568273Y-39338005D01*
X61645515Y-39370000D01*
X61568273Y-39401995D01*
X61339465Y-39554880D01*
X61144880Y-39749465D01*
X60991995Y-39978273D01*
X60886686Y-40232510D01*
X60833000Y-40502408D01*
X60833000Y-40777592D01*
X60886686Y-41047490D01*
X60991995Y-41301727D01*
X61144880Y-41530535D01*
X61339465Y-41725120D01*
X61568273Y-41878005D01*
X61645515Y-41910000D01*
X61568273Y-41941995D01*
X61339465Y-42094880D01*
X61144880Y-42289465D01*
X60991995Y-42518273D01*
X60886686Y-42772510D01*
X60833000Y-43042408D01*
X60833000Y-43317592D01*
X60886686Y-43587490D01*
X60991995Y-43841727D01*
X61144880Y-44070535D01*
X61339465Y-44265120D01*
X61568273Y-44418005D01*
X61645515Y-44450000D01*
X61568273Y-44481995D01*
X61339465Y-44634880D01*
X61144880Y-44829465D01*
X60991995Y-45058273D01*
X60886686Y-45312510D01*
X60833000Y-45582408D01*
X60833000Y-45857592D01*
X60886686Y-46127490D01*
X60991995Y-46381727D01*
X61144880Y-46610535D01*
X61339465Y-46805120D01*
X61568273Y-46958005D01*
X61645515Y-46990000D01*
X61568273Y-47021995D01*
X61339465Y-47174880D01*
X61144880Y-47369465D01*
X60991995Y-47598273D01*
X60886686Y-47852510D01*
X60833000Y-48122408D01*
X60833000Y-48397592D01*
X60886686Y-48667490D01*
X60991995Y-48921727D01*
X61144880Y-49150535D01*
X61339465Y-49345120D01*
X61568273Y-49498005D01*
X61645515Y-49530000D01*
X61568273Y-49561995D01*
X61339465Y-49714880D01*
X61144880Y-49909465D01*
X60991995Y-50138273D01*
X60886686Y-50392510D01*
X60833000Y-50662408D01*
X60833000Y-50937592D01*
X60863628Y-51091570D01*
X49490199Y-62465000D01*
X49428061Y-62465000D01*
X49228102Y-62504774D01*
X49039744Y-62582795D01*
X48870226Y-62696063D01*
X48726063Y-62840226D01*
X48612795Y-63009744D01*
X48534774Y-63198102D01*
X48495000Y-63398061D01*
X48495000Y-63601939D01*
X48534774Y-63801898D01*
X48612795Y-63990256D01*
X48726063Y-64159774D01*
X48870226Y-64303937D01*
X49039744Y-64417205D01*
X49228102Y-64495226D01*
X49428061Y-64535000D01*
X49631939Y-64535000D01*
X49831898Y-64495226D01*
X50020256Y-64417205D01*
X50189774Y-64303937D01*
X50333937Y-64159774D01*
X50447205Y-63990256D01*
X50525226Y-63801898D01*
X50565000Y-63601939D01*
X50565000Y-63539801D01*
X60833000Y-53271802D01*
X60833000Y-53477592D01*
X60863628Y-53631570D01*
X52030199Y-62465000D01*
X51968061Y-62465000D01*
X51768102Y-62504774D01*
X51579744Y-62582795D01*
X51410226Y-62696063D01*
X51266063Y-62840226D01*
X51152795Y-63009744D01*
X51074774Y-63198102D01*
X51035000Y-63398061D01*
X51035000Y-63601939D01*
X51074774Y-63801898D01*
X51152795Y-63990256D01*
X51266063Y-64159774D01*
X51410226Y-64303937D01*
X51579744Y-64417205D01*
X51768102Y-64495226D01*
X51968061Y-64535000D01*
X52171939Y-64535000D01*
X52371898Y-64495226D01*
X52560256Y-64417205D01*
X52729774Y-64303937D01*
X52873937Y-64159774D01*
X52987205Y-63990256D01*
X53065226Y-63801898D01*
X53105000Y-63601939D01*
X53105000Y-63572017D01*
X60828090Y-63572017D01*
X60869078Y-63844133D01*
X60962364Y-64103023D01*
X61024344Y-64218980D01*
X61264435Y-64285960D01*
X62050395Y-63500000D01*
X62409605Y-63500000D01*
X63195565Y-64285960D01*
X63435656Y-64218980D01*
X63552756Y-63969952D01*
X63619023Y-63702865D01*
X63625157Y-63572017D01*
X86228090Y-63572017D01*
X86269078Y-63844133D01*
X86362364Y-64103023D01*
X86424344Y-64218980D01*
X86664435Y-64285960D01*
X87450395Y-63500000D01*
X87809605Y-63500000D01*
X88595565Y-64285960D01*
X88835656Y-64218980D01*
X88952756Y-63969952D01*
X89019023Y-63702865D01*
X89031910Y-63427983D01*
X88990922Y-63155867D01*
X88897636Y-62896977D01*
X88835656Y-62781020D01*
X88595565Y-62714040D01*
X87809605Y-63500000D01*
X87450395Y-63500000D01*
X86664435Y-62714040D01*
X86424344Y-62781020D01*
X86307244Y-63030048D01*
X86240977Y-63297135D01*
X86228090Y-63572017D01*
X63625157Y-63572017D01*
X63631910Y-63427983D01*
X63590922Y-63155867D01*
X63497636Y-62896977D01*
X63435656Y-62781020D01*
X63195565Y-62714040D01*
X62409605Y-63500000D01*
X62050395Y-63500000D01*
X61264435Y-62714040D01*
X61024344Y-62781020D01*
X60907244Y-63030048D01*
X60840977Y-63297135D01*
X60828090Y-63572017D01*
X53105000Y-63572017D01*
X53105000Y-63539801D01*
X60833000Y-55811802D01*
X60833000Y-56017592D01*
X60886686Y-56287490D01*
X60991995Y-56541727D01*
X61144880Y-56770535D01*
X61339465Y-56965120D01*
X61568273Y-57118005D01*
X61645515Y-57150000D01*
X61568273Y-57181995D01*
X61339465Y-57334880D01*
X61144880Y-57529465D01*
X60991995Y-57758273D01*
X60886686Y-58012510D01*
X60833000Y-58282408D01*
X60833000Y-58557592D01*
X60886686Y-58827490D01*
X60991995Y-59081727D01*
X61144880Y-59310535D01*
X61339465Y-59505120D01*
X61568273Y-59658005D01*
X61645515Y-59690000D01*
X61568273Y-59721995D01*
X61339465Y-59874880D01*
X61144880Y-60069465D01*
X60991995Y-60298273D01*
X60886686Y-60552510D01*
X60833000Y-60822408D01*
X60833000Y-61097592D01*
X60886686Y-61367490D01*
X60991995Y-61621727D01*
X61144880Y-61850535D01*
X61339465Y-62045120D01*
X61568273Y-62198005D01*
X61639943Y-62227692D01*
X61626977Y-62232364D01*
X61511020Y-62294344D01*
X61444040Y-62534435D01*
X62230000Y-63320395D01*
X63015960Y-62534435D01*
X62948980Y-62294344D01*
X62813240Y-62230515D01*
X62891727Y-62198005D01*
X63120535Y-62045120D01*
X63315120Y-61850535D01*
X63468005Y-61621727D01*
X63573314Y-61367490D01*
X63627000Y-61097592D01*
X63627000Y-60822408D01*
X63573314Y-60552510D01*
X63468005Y-60298273D01*
X63315120Y-60069465D01*
X63120535Y-59874880D01*
X62891727Y-59721995D01*
X62814485Y-59690000D01*
X62891727Y-59658005D01*
X63120535Y-59505120D01*
X63315120Y-59310535D01*
X63468005Y-59081727D01*
X63573314Y-58827490D01*
X63627000Y-58557592D01*
X63627000Y-58282408D01*
X63573314Y-58012510D01*
X63468005Y-57758273D01*
X63315120Y-57529465D01*
X63120535Y-57334880D01*
X62891727Y-57181995D01*
X62814485Y-57150000D01*
X62891727Y-57118005D01*
X63120535Y-56965120D01*
X63315120Y-56770535D01*
X63468005Y-56541727D01*
X63573314Y-56287490D01*
X63627000Y-56017592D01*
X63627000Y-55742408D01*
X63573314Y-55472510D01*
X63468005Y-55218273D01*
X63315120Y-54989465D01*
X63120535Y-54794880D01*
X62891727Y-54641995D01*
X62814485Y-54610000D01*
X62891727Y-54578005D01*
X63120535Y-54425120D01*
X63315120Y-54230535D01*
X63468005Y-54001727D01*
X63573314Y-53747490D01*
X63627000Y-53477592D01*
X63627000Y-53202408D01*
X63573314Y-52932510D01*
X63468005Y-52678273D01*
X63315120Y-52449465D01*
X63120535Y-52254880D01*
X62891727Y-52101995D01*
X62814485Y-52070000D01*
X62891727Y-52038005D01*
X63120535Y-51885120D01*
X63315120Y-51690535D01*
X63468005Y-51461727D01*
X63573314Y-51207490D01*
X63627000Y-50937592D01*
X63627000Y-50662408D01*
X63573314Y-50392510D01*
X63468005Y-50138273D01*
X63315120Y-49909465D01*
X63120535Y-49714880D01*
X62891727Y-49561995D01*
X62814485Y-49530000D01*
X62891727Y-49498005D01*
X63120535Y-49345120D01*
X63315120Y-49150535D01*
X63468005Y-48921727D01*
X63573314Y-48667490D01*
X63627000Y-48397592D01*
X63627000Y-48122408D01*
X63573314Y-47852510D01*
X63531106Y-47750612D01*
X63537322Y-47750000D01*
X86329147Y-47750000D01*
X86286686Y-47852510D01*
X86233000Y-48122408D01*
X86233000Y-48397592D01*
X86286686Y-48667490D01*
X86391995Y-48921727D01*
X86544880Y-49150535D01*
X86739465Y-49345120D01*
X86968273Y-49498005D01*
X87045515Y-49530000D01*
X86968273Y-49561995D01*
X86739465Y-49714880D01*
X86544880Y-49909465D01*
X86391995Y-50138273D01*
X86286686Y-50392510D01*
X86233000Y-50662408D01*
X86233000Y-50937592D01*
X86286686Y-51207490D01*
X86391995Y-51461727D01*
X86544880Y-51690535D01*
X86739465Y-51885120D01*
X86968273Y-52038005D01*
X87045515Y-52070000D01*
X86968273Y-52101995D01*
X86739465Y-52254880D01*
X86544880Y-52449465D01*
X86391995Y-52678273D01*
X86286686Y-52932510D01*
X86233000Y-53202408D01*
X86233000Y-53477592D01*
X86286686Y-53747490D01*
X86391995Y-54001727D01*
X86544880Y-54230535D01*
X86739465Y-54425120D01*
X86968273Y-54578005D01*
X87045515Y-54610000D01*
X86968273Y-54641995D01*
X86739465Y-54794880D01*
X86544880Y-54989465D01*
X86391995Y-55218273D01*
X86286686Y-55472510D01*
X86233000Y-55742408D01*
X86233000Y-56017592D01*
X86286686Y-56287490D01*
X86391995Y-56541727D01*
X86544880Y-56770535D01*
X86739465Y-56965120D01*
X86968273Y-57118005D01*
X87045515Y-57150000D01*
X86968273Y-57181995D01*
X86739465Y-57334880D01*
X86544880Y-57529465D01*
X86391995Y-57758273D01*
X86286686Y-58012510D01*
X86233000Y-58282408D01*
X86233000Y-58557592D01*
X86286686Y-58827490D01*
X86391995Y-59081727D01*
X86544880Y-59310535D01*
X86739465Y-59505120D01*
X86968273Y-59658005D01*
X87045515Y-59690000D01*
X86968273Y-59721995D01*
X86739465Y-59874880D01*
X86544880Y-60069465D01*
X86391995Y-60298273D01*
X86286686Y-60552510D01*
X86233000Y-60822408D01*
X86233000Y-61097592D01*
X86286686Y-61367490D01*
X86391995Y-61621727D01*
X86544880Y-61850535D01*
X86739465Y-62045120D01*
X86968273Y-62198005D01*
X87039943Y-62227692D01*
X87026977Y-62232364D01*
X86911020Y-62294344D01*
X86844040Y-62534435D01*
X87630000Y-63320395D01*
X88415960Y-62534435D01*
X88348980Y-62294344D01*
X88213240Y-62230515D01*
X88291727Y-62198005D01*
X88520535Y-62045120D01*
X88715120Y-61850535D01*
X88868005Y-61621727D01*
X88973314Y-61367490D01*
X89027000Y-61097592D01*
X89027000Y-60822408D01*
X88973314Y-60552510D01*
X88868005Y-60298273D01*
X88715120Y-60069465D01*
X88520535Y-59874880D01*
X88291727Y-59721995D01*
X88214485Y-59690000D01*
X88291727Y-59658005D01*
X88520535Y-59505120D01*
X88715120Y-59310535D01*
X88802341Y-59180000D01*
X95212678Y-59180000D01*
X95250000Y-59183676D01*
X95287322Y-59180000D01*
X95287333Y-59180000D01*
X95398986Y-59169003D01*
X95542247Y-59125546D01*
X95674276Y-59054974D01*
X95790001Y-58960001D01*
X95813804Y-58930997D01*
X96559802Y-58185000D01*
X96621939Y-58185000D01*
X96821898Y-58145226D01*
X97010256Y-58067205D01*
X97179774Y-57953937D01*
X97323937Y-57809774D01*
X97437205Y-57640256D01*
X97515226Y-57451898D01*
X97555000Y-57251939D01*
X97555000Y-57048061D01*
X97515226Y-56848102D01*
X97437205Y-56659744D01*
X97323937Y-56490226D01*
X97179774Y-56346063D01*
X97010256Y-56232795D01*
X96821898Y-56154774D01*
X96621939Y-56115000D01*
X96418061Y-56115000D01*
X96218102Y-56154774D01*
X96029744Y-56232795D01*
X95860226Y-56346063D01*
X95716063Y-56490226D01*
X95602795Y-56659744D01*
X95524774Y-56848102D01*
X95485000Y-57048061D01*
X95485000Y-57110198D01*
X94935199Y-57660000D01*
X88802341Y-57660000D01*
X88715120Y-57529465D01*
X88520535Y-57334880D01*
X88291727Y-57181995D01*
X88214485Y-57150000D01*
X88291727Y-57118005D01*
X88520535Y-56965120D01*
X88715120Y-56770535D01*
X88868005Y-56541727D01*
X88973314Y-56287490D01*
X89027000Y-56017592D01*
X89027000Y-55742408D01*
X88973314Y-55472510D01*
X88868005Y-55218273D01*
X88715120Y-54989465D01*
X88520535Y-54794880D01*
X88291727Y-54641995D01*
X88214485Y-54610000D01*
X88291727Y-54578005D01*
X88520535Y-54425120D01*
X88715120Y-54230535D01*
X88868005Y-54001727D01*
X88973314Y-53747490D01*
X89027000Y-53477592D01*
X89027000Y-53202408D01*
X88973314Y-52932510D01*
X88868005Y-52678273D01*
X88715120Y-52449465D01*
X88520535Y-52254880D01*
X88291727Y-52101995D01*
X88214485Y-52070000D01*
X88291727Y-52038005D01*
X88520535Y-51885120D01*
X88715120Y-51690535D01*
X88868005Y-51461727D01*
X88973314Y-51207490D01*
X89027000Y-50937592D01*
X89027000Y-50662408D01*
X88973314Y-50392510D01*
X88868005Y-50138273D01*
X88715120Y-49909465D01*
X88520535Y-49714880D01*
X88291727Y-49561995D01*
X88214485Y-49530000D01*
X88291727Y-49498005D01*
X88520535Y-49345120D01*
X88715120Y-49150535D01*
X88868005Y-48921727D01*
X88973314Y-48667490D01*
X89027000Y-48397592D01*
X89027000Y-48122408D01*
X88973314Y-47852510D01*
X88930853Y-47750000D01*
X98356289Y-47750000D01*
X98400226Y-47793937D01*
X98569744Y-47907205D01*
X98758102Y-47985226D01*
X98958061Y-48025000D01*
X99161939Y-48025000D01*
X99361898Y-47985226D01*
X99550256Y-47907205D01*
X99719774Y-47793937D01*
X99863937Y-47649774D01*
X99977205Y-47480256D01*
X100055226Y-47291898D01*
X100095000Y-47091939D01*
X100095000Y-46888061D01*
X100055226Y-46688102D01*
X99977205Y-46499744D01*
X99863937Y-46330226D01*
X99719774Y-46186063D01*
X99550256Y-46072795D01*
X99361898Y-45994774D01*
X99161939Y-45955000D01*
X98958061Y-45955000D01*
X98758102Y-45994774D01*
X98569744Y-46072795D01*
X98400226Y-46186063D01*
X98356289Y-46230000D01*
X88930853Y-46230000D01*
X88973314Y-46127490D01*
X89027000Y-45857592D01*
X89027000Y-45582408D01*
X88973314Y-45312510D01*
X88930853Y-45210000D01*
X98356289Y-45210000D01*
X98400226Y-45253937D01*
X98569744Y-45367205D01*
X98758102Y-45445226D01*
X98958061Y-45485000D01*
X99161939Y-45485000D01*
X99361898Y-45445226D01*
X99550256Y-45367205D01*
X99719774Y-45253937D01*
X99863937Y-45109774D01*
X99977205Y-44940256D01*
X100055226Y-44751898D01*
X100095000Y-44551939D01*
X100095000Y-44348061D01*
X100055226Y-44148102D01*
X99977205Y-43959744D01*
X99863937Y-43790226D01*
X99719774Y-43646063D01*
X99550256Y-43532795D01*
X99361898Y-43454774D01*
X99161939Y-43415000D01*
X98958061Y-43415000D01*
X98758102Y-43454774D01*
X98569744Y-43532795D01*
X98400226Y-43646063D01*
X98356289Y-43690000D01*
X88930853Y-43690000D01*
X88973314Y-43587490D01*
X89027000Y-43317592D01*
X89027000Y-43042408D01*
X88973314Y-42772510D01*
X88868005Y-42518273D01*
X88715120Y-42289465D01*
X88520535Y-42094880D01*
X88291727Y-41941995D01*
X88214485Y-41910000D01*
X88291727Y-41878005D01*
X88520535Y-41725120D01*
X88715120Y-41530535D01*
X88868005Y-41301727D01*
X88973314Y-41047490D01*
X89027000Y-40777592D01*
X89027000Y-40502408D01*
X88973314Y-40232510D01*
X88868005Y-39978273D01*
X88715120Y-39749465D01*
X88520535Y-39554880D01*
X88291727Y-39401995D01*
X88214485Y-39370000D01*
X88291727Y-39338005D01*
X88520535Y-39185120D01*
X88715120Y-38990535D01*
X88868005Y-38761727D01*
X88973314Y-38507490D01*
X89027000Y-38237592D01*
X89027000Y-37962408D01*
X88973314Y-37692510D01*
X88868005Y-37438273D01*
X88715120Y-37209465D01*
X88520535Y-37014880D01*
X88291727Y-36861995D01*
X88214485Y-36830000D01*
X88291727Y-36798005D01*
X88520535Y-36645120D01*
X88715120Y-36450535D01*
X88868005Y-36221727D01*
X88973314Y-35967490D01*
X89027000Y-35697592D01*
X89027000Y-35422408D01*
X88973314Y-35152510D01*
X88868005Y-34898273D01*
X88715120Y-34669465D01*
X88520535Y-34474880D01*
X88291727Y-34321995D01*
X88214485Y-34290000D01*
X88291727Y-34258005D01*
X88520535Y-34105120D01*
X88715120Y-33910535D01*
X88868005Y-33681727D01*
X88973314Y-33427490D01*
X88979167Y-33398061D01*
X93965000Y-33398061D01*
X93965000Y-33601939D01*
X94004774Y-33801898D01*
X94082795Y-33990256D01*
X94196063Y-34159774D01*
X94340226Y-34303937D01*
X94509744Y-34417205D01*
X94698102Y-34495226D01*
X94898061Y-34535000D01*
X95101939Y-34535000D01*
X95301898Y-34495226D01*
X95490256Y-34417205D01*
X95659774Y-34303937D01*
X95803937Y-34159774D01*
X95837195Y-34110000D01*
X102946289Y-34110000D01*
X102990226Y-34153937D01*
X103159744Y-34267205D01*
X103348102Y-34345226D01*
X103548061Y-34385000D01*
X103751939Y-34385000D01*
X103951898Y-34345226D01*
X104140256Y-34267205D01*
X104309774Y-34153937D01*
X104453937Y-34009774D01*
X104567205Y-33840256D01*
X104645226Y-33651898D01*
X104685000Y-33451939D01*
X104685000Y-33248061D01*
X104645226Y-33048102D01*
X104567205Y-32859744D01*
X104453937Y-32690226D01*
X104309774Y-32546063D01*
X104140256Y-32432795D01*
X103951898Y-32354774D01*
X103751939Y-32315000D01*
X103548061Y-32315000D01*
X103348102Y-32354774D01*
X103159744Y-32432795D01*
X102990226Y-32546063D01*
X102946289Y-32590000D01*
X95501039Y-32590000D01*
X95490256Y-32582795D01*
X95301898Y-32504774D01*
X95101939Y-32465000D01*
X94898061Y-32465000D01*
X94698102Y-32504774D01*
X94509744Y-32582795D01*
X94340226Y-32696063D01*
X94196063Y-32840226D01*
X94082795Y-33009744D01*
X94004774Y-33198102D01*
X93965000Y-33398061D01*
X88979167Y-33398061D01*
X89027000Y-33157592D01*
X89027000Y-29856993D01*
X103322612Y-29856993D01*
X103388137Y-30095860D01*
X103635116Y-30211760D01*
X103899960Y-30277250D01*
X104172492Y-30289812D01*
X104442238Y-30248965D01*
X104698832Y-30156277D01*
X104811863Y-30095860D01*
X104877388Y-29856993D01*
X104100000Y-29079605D01*
X103322612Y-29856993D01*
X89027000Y-29856993D01*
X89027000Y-28972492D01*
X102710188Y-28972492D01*
X102751035Y-29242238D01*
X102843723Y-29498832D01*
X102904140Y-29611863D01*
X103143007Y-29677388D01*
X103920395Y-28900000D01*
X104279605Y-28900000D01*
X105056993Y-29677388D01*
X105295860Y-29611863D01*
X105411760Y-29364884D01*
X105477250Y-29100040D01*
X105489812Y-28827508D01*
X105480133Y-28763589D01*
X106115000Y-28763589D01*
X106115000Y-29036411D01*
X106168225Y-29303989D01*
X106272629Y-29556043D01*
X106424201Y-29782886D01*
X106617114Y-29975799D01*
X106843957Y-30127371D01*
X107096011Y-30231775D01*
X107363589Y-30285000D01*
X107636411Y-30285000D01*
X107903989Y-30231775D01*
X108156043Y-30127371D01*
X108382886Y-29975799D01*
X108575799Y-29782886D01*
X108727371Y-29556043D01*
X108831775Y-29303989D01*
X108885000Y-29036411D01*
X108885000Y-28763589D01*
X108831775Y-28496011D01*
X108727371Y-28243957D01*
X108597773Y-28050000D01*
X109071928Y-28050000D01*
X109071928Y-29750000D01*
X109084188Y-29874482D01*
X109120498Y-29994180D01*
X109179463Y-30104494D01*
X109258815Y-30201185D01*
X109355506Y-30280537D01*
X109465820Y-30339502D01*
X109585518Y-30375812D01*
X109710000Y-30388072D01*
X111410000Y-30388072D01*
X111534482Y-30375812D01*
X111654180Y-30339502D01*
X111764494Y-30280537D01*
X111861185Y-30201185D01*
X111940537Y-30104494D01*
X111999502Y-29994180D01*
X112023966Y-29913534D01*
X112099731Y-29997588D01*
X112333080Y-30171641D01*
X112595901Y-30296825D01*
X112743110Y-30341476D01*
X112973000Y-30220155D01*
X112973000Y-29027000D01*
X113227000Y-29027000D01*
X113227000Y-30220155D01*
X113456890Y-30341476D01*
X113604099Y-30296825D01*
X113866920Y-30171641D01*
X113959904Y-30102285D01*
X115545000Y-30102285D01*
X115545000Y-30857715D01*
X115692377Y-31598628D01*
X115981467Y-32296554D01*
X116401161Y-32924670D01*
X116935330Y-33458839D01*
X117563446Y-33878533D01*
X118261372Y-34167623D01*
X119002285Y-34315000D01*
X119757715Y-34315000D01*
X120498628Y-34167623D01*
X121196554Y-33878533D01*
X121824670Y-33458839D01*
X122358839Y-32924670D01*
X122778533Y-32296554D01*
X123067623Y-31598628D01*
X123215000Y-30857715D01*
X123215000Y-30102285D01*
X123067623Y-29361372D01*
X122778533Y-28663446D01*
X122358839Y-28035330D01*
X121824670Y-27501161D01*
X121196554Y-27081467D01*
X120498628Y-26792377D01*
X119757715Y-26645000D01*
X119002285Y-26645000D01*
X118261372Y-26792377D01*
X117563446Y-27081467D01*
X116935330Y-27501161D01*
X116401161Y-28035330D01*
X115981467Y-28663446D01*
X115692377Y-29361372D01*
X115545000Y-30102285D01*
X113959904Y-30102285D01*
X114100269Y-29997588D01*
X114295178Y-29781355D01*
X114444157Y-29531252D01*
X114541481Y-29256891D01*
X114420814Y-29027000D01*
X113227000Y-29027000D01*
X112973000Y-29027000D01*
X112953000Y-29027000D01*
X112953000Y-28773000D01*
X112973000Y-28773000D01*
X112973000Y-27579845D01*
X113227000Y-27579845D01*
X113227000Y-28773000D01*
X114420814Y-28773000D01*
X114541481Y-28543109D01*
X114444157Y-28268748D01*
X114295178Y-28018645D01*
X114100269Y-27802412D01*
X113866920Y-27628359D01*
X113604099Y-27503175D01*
X113456890Y-27458524D01*
X113227000Y-27579845D01*
X112973000Y-27579845D01*
X112743110Y-27458524D01*
X112595901Y-27503175D01*
X112333080Y-27628359D01*
X112099731Y-27802412D01*
X112023966Y-27886466D01*
X111999502Y-27805820D01*
X111940537Y-27695506D01*
X111861185Y-27598815D01*
X111764494Y-27519463D01*
X111654180Y-27460498D01*
X111534482Y-27424188D01*
X111410000Y-27411928D01*
X109710000Y-27411928D01*
X109585518Y-27424188D01*
X109465820Y-27460498D01*
X109355506Y-27519463D01*
X109258815Y-27598815D01*
X109179463Y-27695506D01*
X109120498Y-27805820D01*
X109084188Y-27925518D01*
X109071928Y-28050000D01*
X108597773Y-28050000D01*
X108575799Y-28017114D01*
X108382886Y-27824201D01*
X108156043Y-27672629D01*
X107903989Y-27568225D01*
X107636411Y-27515000D01*
X107363589Y-27515000D01*
X107096011Y-27568225D01*
X106843957Y-27672629D01*
X106617114Y-27824201D01*
X106424201Y-28017114D01*
X106272629Y-28243957D01*
X106168225Y-28496011D01*
X106115000Y-28763589D01*
X105480133Y-28763589D01*
X105448965Y-28557762D01*
X105356277Y-28301168D01*
X105295860Y-28188137D01*
X105056993Y-28122612D01*
X104279605Y-28900000D01*
X103920395Y-28900000D01*
X103143007Y-28122612D01*
X102904140Y-28188137D01*
X102788240Y-28435116D01*
X102722750Y-28699960D01*
X102710188Y-28972492D01*
X89027000Y-28972492D01*
X89027000Y-27943007D01*
X103322612Y-27943007D01*
X104100000Y-28720395D01*
X104877388Y-27943007D01*
X104811863Y-27704140D01*
X104564884Y-27588240D01*
X104300040Y-27522750D01*
X104027508Y-27510188D01*
X103757762Y-27551035D01*
X103501168Y-27643723D01*
X103388137Y-27704140D01*
X103322612Y-27943007D01*
X89027000Y-27943007D01*
X89027000Y-26060000D01*
X123800000Y-26060000D01*
X123800001Y-75540000D01*
X103865131Y-75540000D01*
X105527060Y-73878072D01*
X106260000Y-73878072D01*
X106384482Y-73865812D01*
X106504180Y-73829502D01*
X106614494Y-73770537D01*
X106711185Y-73691185D01*
X106790537Y-73594494D01*
X106849502Y-73484180D01*
X106871513Y-73411620D01*
X107003368Y-73543475D01*
X107246589Y-73705990D01*
X107516842Y-73817932D01*
X107803740Y-73875000D01*
X108096260Y-73875000D01*
X108383158Y-73817932D01*
X108653411Y-73705990D01*
X108896632Y-73543475D01*
X109103475Y-73336632D01*
X109220000Y-73162240D01*
X109336525Y-73336632D01*
X109543368Y-73543475D01*
X109786589Y-73705990D01*
X110056842Y-73817932D01*
X110343740Y-73875000D01*
X110636260Y-73875000D01*
X110923158Y-73817932D01*
X111193411Y-73705990D01*
X111436632Y-73543475D01*
X111643475Y-73336632D01*
X111765195Y-73154466D01*
X111834822Y-73271355D01*
X112029731Y-73487588D01*
X112263080Y-73661641D01*
X112525901Y-73786825D01*
X112673110Y-73831476D01*
X112903000Y-73710155D01*
X112903000Y-72517000D01*
X113157000Y-72517000D01*
X113157000Y-73710155D01*
X113386890Y-73831476D01*
X113534099Y-73786825D01*
X113796920Y-73661641D01*
X114030269Y-73487588D01*
X114225178Y-73271355D01*
X114374157Y-73021252D01*
X114471481Y-72746891D01*
X114350814Y-72517000D01*
X113157000Y-72517000D01*
X112903000Y-72517000D01*
X112883000Y-72517000D01*
X112883000Y-72263000D01*
X112903000Y-72263000D01*
X112903000Y-71069845D01*
X113157000Y-71069845D01*
X113157000Y-72263000D01*
X114350814Y-72263000D01*
X114471481Y-72033109D01*
X114374157Y-71758748D01*
X114225178Y-71508645D01*
X114030269Y-71292412D01*
X113796920Y-71118359D01*
X113534099Y-70993175D01*
X113386890Y-70948524D01*
X113157000Y-71069845D01*
X112903000Y-71069845D01*
X112673110Y-70948524D01*
X112525901Y-70993175D01*
X112263080Y-71118359D01*
X112029731Y-71292412D01*
X111834822Y-71508645D01*
X111765195Y-71625534D01*
X111643475Y-71443368D01*
X111436632Y-71236525D01*
X111250000Y-71111822D01*
X111250000Y-70742285D01*
X115545000Y-70742285D01*
X115545000Y-71497715D01*
X115692377Y-72238628D01*
X115981467Y-72936554D01*
X116401161Y-73564670D01*
X116935330Y-74098839D01*
X117563446Y-74518533D01*
X118261372Y-74807623D01*
X119002285Y-74955000D01*
X119757715Y-74955000D01*
X120498628Y-74807623D01*
X121196554Y-74518533D01*
X121824670Y-74098839D01*
X122358839Y-73564670D01*
X122778533Y-72936554D01*
X123067623Y-72238628D01*
X123215000Y-71497715D01*
X123215000Y-70742285D01*
X123067623Y-70001372D01*
X122778533Y-69303446D01*
X122358839Y-68675330D01*
X121824670Y-68141161D01*
X121196554Y-67721467D01*
X120498628Y-67432377D01*
X119757715Y-67285000D01*
X119002285Y-67285000D01*
X118261372Y-67432377D01*
X117563446Y-67721467D01*
X116935330Y-68141161D01*
X116401161Y-68675330D01*
X115981467Y-69303446D01*
X115692377Y-70001372D01*
X115545000Y-70742285D01*
X111250000Y-70742285D01*
X111250000Y-69283711D01*
X111293937Y-69239774D01*
X111407205Y-69070256D01*
X111485226Y-68881898D01*
X111525000Y-68681939D01*
X111525000Y-68478061D01*
X111485226Y-68278102D01*
X111407205Y-68089744D01*
X111293937Y-67920226D01*
X111149774Y-67776063D01*
X110980256Y-67662795D01*
X110791898Y-67584774D01*
X110591939Y-67545000D01*
X110388061Y-67545000D01*
X110188102Y-67584774D01*
X109999744Y-67662795D01*
X109830226Y-67776063D01*
X109686063Y-67920226D01*
X109572795Y-68089744D01*
X109494774Y-68278102D01*
X109455000Y-68478061D01*
X109455000Y-68681939D01*
X109494774Y-68881898D01*
X109572795Y-69070256D01*
X109686063Y-69239774D01*
X109730000Y-69283711D01*
X109730001Y-71111821D01*
X109543368Y-71236525D01*
X109336525Y-71443368D01*
X109220000Y-71617760D01*
X109103475Y-71443368D01*
X108896632Y-71236525D01*
X108710000Y-71111822D01*
X108710000Y-69283711D01*
X108753937Y-69239774D01*
X108867205Y-69070256D01*
X108945226Y-68881898D01*
X108985000Y-68681939D01*
X108985000Y-68478061D01*
X108945226Y-68278102D01*
X108867205Y-68089744D01*
X108753937Y-67920226D01*
X108609774Y-67776063D01*
X108440256Y-67662795D01*
X108251898Y-67584774D01*
X108051939Y-67545000D01*
X107848061Y-67545000D01*
X107648102Y-67584774D01*
X107459744Y-67662795D01*
X107290226Y-67776063D01*
X107146063Y-67920226D01*
X107032795Y-68089744D01*
X106954774Y-68278102D01*
X106915000Y-68478061D01*
X106915000Y-68681939D01*
X106954774Y-68881898D01*
X107032795Y-69070256D01*
X107146063Y-69239774D01*
X107190000Y-69283711D01*
X107190001Y-71111821D01*
X107003368Y-71236525D01*
X106871513Y-71368380D01*
X106849502Y-71295820D01*
X106790537Y-71185506D01*
X106711185Y-71088815D01*
X106614494Y-71009463D01*
X106504180Y-70950498D01*
X106384482Y-70914188D01*
X106260000Y-70901928D01*
X105527061Y-70901928D01*
X100225000Y-65599869D01*
X100225000Y-64635000D01*
X105354249Y-64635000D01*
X105410000Y-64640491D01*
X105465751Y-64635000D01*
X105465752Y-64635000D01*
X105632499Y-64618577D01*
X105846447Y-64553676D01*
X106043623Y-64448284D01*
X106216449Y-64306449D01*
X106251996Y-64263135D01*
X113532614Y-56982518D01*
X113644880Y-57150535D01*
X113839465Y-57345120D01*
X114068273Y-57498005D01*
X114322510Y-57603314D01*
X114592408Y-57657000D01*
X114867592Y-57657000D01*
X115137490Y-57603314D01*
X115391727Y-57498005D01*
X115620535Y-57345120D01*
X115815120Y-57150535D01*
X115968005Y-56921727D01*
X116073314Y-56667490D01*
X116127000Y-56397592D01*
X116127000Y-56122408D01*
X116073314Y-55852510D01*
X115968005Y-55598273D01*
X115815120Y-55369465D01*
X115705655Y-55260000D01*
X115815120Y-55150535D01*
X115968005Y-54921727D01*
X116073314Y-54667490D01*
X116127000Y-54397592D01*
X116127000Y-54122408D01*
X116073314Y-53852510D01*
X115968005Y-53598273D01*
X115815120Y-53369465D01*
X115705655Y-53260000D01*
X115815120Y-53150535D01*
X115968005Y-52921727D01*
X116073314Y-52667490D01*
X116127000Y-52397592D01*
X116127000Y-52122408D01*
X116073314Y-51852510D01*
X115968005Y-51598273D01*
X115815120Y-51369465D01*
X115705655Y-51260000D01*
X115815120Y-51150535D01*
X115968005Y-50921727D01*
X116073314Y-50667490D01*
X116127000Y-50397592D01*
X116127000Y-50122408D01*
X116073314Y-49852510D01*
X115968005Y-49598273D01*
X115815120Y-49369465D01*
X115705655Y-49260000D01*
X115815120Y-49150535D01*
X115968005Y-48921727D01*
X116073314Y-48667490D01*
X116127000Y-48397592D01*
X116127000Y-48122408D01*
X116073314Y-47852510D01*
X115968005Y-47598273D01*
X115815120Y-47369465D01*
X115705655Y-47260000D01*
X115815120Y-47150535D01*
X115968005Y-46921727D01*
X116073314Y-46667490D01*
X116127000Y-46397592D01*
X116127000Y-46122408D01*
X116073314Y-45852510D01*
X115968005Y-45598273D01*
X115815120Y-45369465D01*
X115620535Y-45174880D01*
X115391727Y-45021995D01*
X115256290Y-44965895D01*
X114730000Y-44439605D01*
X114715858Y-44453748D01*
X114536253Y-44274143D01*
X114550395Y-44260000D01*
X114909605Y-44260000D01*
X115695565Y-45045960D01*
X115935656Y-44978980D01*
X116052756Y-44729952D01*
X116119023Y-44462865D01*
X116131910Y-44187983D01*
X116090922Y-43915867D01*
X115997636Y-43656977D01*
X115935656Y-43541020D01*
X115695565Y-43474040D01*
X114909605Y-44260000D01*
X114550395Y-44260000D01*
X114536253Y-44245858D01*
X114715858Y-44066253D01*
X114730000Y-44080395D01*
X115254445Y-43555950D01*
X115333023Y-43527636D01*
X115448980Y-43465656D01*
X115489313Y-43321082D01*
X115515960Y-43294435D01*
X115506353Y-43260000D01*
X115515960Y-43225565D01*
X115489313Y-43198918D01*
X115448980Y-43054344D01*
X115252214Y-42961819D01*
X114730000Y-42439605D01*
X114715858Y-42453748D01*
X114536253Y-42274143D01*
X114550395Y-42260000D01*
X114909605Y-42260000D01*
X115695565Y-43045960D01*
X115935656Y-42978980D01*
X116052756Y-42729952D01*
X116119023Y-42462865D01*
X116131910Y-42187983D01*
X116090922Y-41915867D01*
X115997636Y-41656977D01*
X115935656Y-41541020D01*
X115695565Y-41474040D01*
X114909605Y-42260000D01*
X114550395Y-42260000D01*
X114536253Y-42245858D01*
X114715858Y-42066253D01*
X114730000Y-42080395D01*
X115256290Y-41554105D01*
X115391727Y-41498005D01*
X115620535Y-41345120D01*
X115815120Y-41150535D01*
X115968005Y-40921727D01*
X116073314Y-40667490D01*
X116127000Y-40397592D01*
X116127000Y-40122408D01*
X116073314Y-39852510D01*
X115968005Y-39598273D01*
X115815120Y-39369465D01*
X115620535Y-39174880D01*
X115391727Y-39021995D01*
X115137490Y-38916686D01*
X114867592Y-38863000D01*
X114592408Y-38863000D01*
X114322510Y-38916686D01*
X114068273Y-39021995D01*
X113839465Y-39174880D01*
X113644880Y-39369465D01*
X113491995Y-39598273D01*
X113399478Y-39821627D01*
X112266860Y-40954247D01*
X112223552Y-40989789D01*
X112081717Y-41162615D01*
X112057307Y-41208284D01*
X111976324Y-41359792D01*
X111911423Y-41573740D01*
X111889509Y-41796238D01*
X111895001Y-41851999D01*
X111895000Y-55409868D01*
X104939869Y-62365000D01*
X100095501Y-62365000D01*
X100041185Y-62298815D01*
X99944494Y-62219463D01*
X99834180Y-62160498D01*
X99714482Y-62124188D01*
X99590000Y-62111928D01*
X98590000Y-62111928D01*
X98465518Y-62124188D01*
X98440000Y-62131929D01*
X98414482Y-62124188D01*
X98290000Y-62111928D01*
X97290000Y-62111928D01*
X97165518Y-62124188D01*
X97140000Y-62131929D01*
X97114482Y-62124188D01*
X96990000Y-62111928D01*
X95990000Y-62111928D01*
X95865518Y-62124188D01*
X95745820Y-62160498D01*
X95635506Y-62219463D01*
X95538815Y-62298815D01*
X95459463Y-62395506D01*
X95400498Y-62505820D01*
X95364188Y-62625518D01*
X95351928Y-62750000D01*
X95351928Y-63032940D01*
X93479869Y-64905000D01*
X88445884Y-64905000D01*
X88291727Y-64801995D01*
X88220057Y-64772308D01*
X88233023Y-64767636D01*
X88348980Y-64705656D01*
X88415960Y-64465565D01*
X87630000Y-63679605D01*
X86844040Y-64465565D01*
X86911020Y-64705656D01*
X87046760Y-64769485D01*
X86968273Y-64801995D01*
X86739465Y-64954880D01*
X86544880Y-65149465D01*
X86391995Y-65378273D01*
X86286686Y-65632510D01*
X86250515Y-65814352D01*
X83349869Y-68715000D01*
X61705741Y-68715000D01*
X61649999Y-68709510D01*
X61594257Y-68715000D01*
X61594248Y-68715000D01*
X61427501Y-68731423D01*
X61213553Y-68796324D01*
X61016377Y-68901716D01*
X60843551Y-69043551D01*
X60808004Y-69086865D01*
X60196860Y-69698009D01*
X60153552Y-69733551D01*
X60011717Y-69906377D01*
X59955384Y-70011770D01*
X59906324Y-70103554D01*
X59841423Y-70317502D01*
X59819509Y-70540000D01*
X59825001Y-70595761D01*
X59825001Y-70972317D01*
X59755506Y-71009463D01*
X59658815Y-71088815D01*
X59579463Y-71185506D01*
X59520498Y-71295820D01*
X59484188Y-71415518D01*
X59471928Y-71540000D01*
X59471928Y-73240000D01*
X59484188Y-73364482D01*
X59520498Y-73484180D01*
X59579463Y-73594494D01*
X59658815Y-73691185D01*
X59755506Y-73770537D01*
X59801272Y-73795000D01*
X44927147Y-73795000D01*
X44954099Y-73786825D01*
X45216920Y-73661641D01*
X45450269Y-73487588D01*
X45645178Y-73271355D01*
X45794157Y-73021252D01*
X45891481Y-72746891D01*
X45770814Y-72517000D01*
X44577000Y-72517000D01*
X44577000Y-72537000D01*
X44323000Y-72537000D01*
X44323000Y-72517000D01*
X44303000Y-72517000D01*
X44303000Y-72263000D01*
X44323000Y-72263000D01*
X44323000Y-71069845D01*
X44577000Y-71069845D01*
X44577000Y-72263000D01*
X45770814Y-72263000D01*
X45891481Y-72033109D01*
X45794157Y-71758748D01*
X45645178Y-71508645D01*
X45450269Y-71292412D01*
X45216920Y-71118359D01*
X44954099Y-70993175D01*
X44806890Y-70948524D01*
X44577000Y-71069845D01*
X44323000Y-71069845D01*
X44093110Y-70948524D01*
X43945901Y-70993175D01*
X43683080Y-71118359D01*
X43449731Y-71292412D01*
X43254822Y-71508645D01*
X43185195Y-71625534D01*
X43063475Y-71443368D01*
X42856632Y-71236525D01*
X42613411Y-71074010D01*
X42343158Y-70962068D01*
X42056260Y-70905000D01*
X41763740Y-70905000D01*
X41476842Y-70962068D01*
X41206589Y-71074010D01*
X40963368Y-71236525D01*
X40756525Y-71443368D01*
X40640000Y-71617760D01*
X40523475Y-71443368D01*
X40316632Y-71236525D01*
X40073411Y-71074010D01*
X39803158Y-70962068D01*
X39516260Y-70905000D01*
X39223740Y-70905000D01*
X38936842Y-70962068D01*
X38666589Y-71074010D01*
X38423368Y-71236525D01*
X38291513Y-71368380D01*
X38269502Y-71295820D01*
X38210537Y-71185506D01*
X38131185Y-71088815D01*
X38034494Y-71009463D01*
X37924180Y-70950498D01*
X37804482Y-70914188D01*
X37680000Y-70901928D01*
X35980000Y-70901928D01*
X35855518Y-70914188D01*
X35735820Y-70950498D01*
X35625506Y-71009463D01*
X35528815Y-71088815D01*
X35449463Y-71185506D01*
X35390498Y-71295820D01*
X35354188Y-71415518D01*
X35341928Y-71540000D01*
X35341928Y-73240000D01*
X35354188Y-73364482D01*
X35390498Y-73484180D01*
X35449463Y-73594494D01*
X35528815Y-73691185D01*
X35625506Y-73770537D01*
X35704557Y-73812792D01*
X35711423Y-73882499D01*
X35776324Y-74096447D01*
X35881717Y-74293623D01*
X36023552Y-74466449D01*
X36066860Y-74501991D01*
X37104868Y-75540000D01*
X26060000Y-75540000D01*
X26060000Y-70742285D01*
X26645000Y-70742285D01*
X26645000Y-71497715D01*
X26792377Y-72238628D01*
X27081467Y-72936554D01*
X27501161Y-73564670D01*
X28035330Y-74098839D01*
X28663446Y-74518533D01*
X29361372Y-74807623D01*
X30102285Y-74955000D01*
X30857715Y-74955000D01*
X31598628Y-74807623D01*
X32296554Y-74518533D01*
X32924670Y-74098839D01*
X33458839Y-73564670D01*
X33878533Y-72936554D01*
X34167623Y-72238628D01*
X34315000Y-71497715D01*
X34315000Y-70742285D01*
X34167623Y-70001372D01*
X33878533Y-69303446D01*
X33458839Y-68675330D01*
X32924670Y-68141161D01*
X32296554Y-67721467D01*
X31598628Y-67432377D01*
X30857715Y-67285000D01*
X30102285Y-67285000D01*
X29361372Y-67432377D01*
X28663446Y-67721467D01*
X28035330Y-68141161D01*
X27501161Y-68675330D01*
X27081467Y-69303446D01*
X26792377Y-70001372D01*
X26645000Y-70742285D01*
X26060000Y-70742285D01*
X26060000Y-52426890D01*
X27768524Y-52426890D01*
X27813175Y-52574099D01*
X27938359Y-52836920D01*
X28112412Y-53070269D01*
X28328645Y-53265178D01*
X28578748Y-53414157D01*
X28853109Y-53511481D01*
X29083000Y-53390814D01*
X29083000Y-52197000D01*
X29337000Y-52197000D01*
X29337000Y-53390814D01*
X29566891Y-53511481D01*
X29841252Y-53414157D01*
X30091355Y-53265178D01*
X30307588Y-53070269D01*
X30481641Y-52836920D01*
X30606825Y-52574099D01*
X30651476Y-52426890D01*
X30530155Y-52197000D01*
X29337000Y-52197000D01*
X29083000Y-52197000D01*
X27889845Y-52197000D01*
X27768524Y-52426890D01*
X26060000Y-52426890D01*
X26060000Y-48680000D01*
X27721928Y-48680000D01*
X27721928Y-50380000D01*
X27734188Y-50504482D01*
X27770498Y-50624180D01*
X27829463Y-50734494D01*
X27908815Y-50831185D01*
X28005506Y-50910537D01*
X28115820Y-50969502D01*
X28196466Y-50993966D01*
X28112412Y-51069731D01*
X27938359Y-51303080D01*
X27813175Y-51565901D01*
X27768524Y-51713110D01*
X27889845Y-51943000D01*
X29083000Y-51943000D01*
X29083000Y-51923000D01*
X29337000Y-51923000D01*
X29337000Y-51943000D01*
X30530155Y-51943000D01*
X30651476Y-51713110D01*
X30606825Y-51565901D01*
X30481641Y-51303080D01*
X30307588Y-51069731D01*
X30223534Y-50993966D01*
X30304180Y-50969502D01*
X30414494Y-50910537D01*
X30511185Y-50831185D01*
X30590537Y-50734494D01*
X30649502Y-50624180D01*
X30685812Y-50504482D01*
X30698072Y-50380000D01*
X30698072Y-48680000D01*
X30685812Y-48555518D01*
X30649502Y-48435820D01*
X30590537Y-48325506D01*
X30511185Y-48228815D01*
X30414494Y-48149463D01*
X30304180Y-48090498D01*
X30184482Y-48054188D01*
X30060000Y-48041928D01*
X28360000Y-48041928D01*
X28235518Y-48054188D01*
X28115820Y-48090498D01*
X28005506Y-48149463D01*
X27908815Y-48228815D01*
X27829463Y-48325506D01*
X27770498Y-48435820D01*
X27734188Y-48555518D01*
X27721928Y-48680000D01*
X26060000Y-48680000D01*
X26060000Y-40122408D01*
X33733000Y-40122408D01*
X33733000Y-40397592D01*
X33786686Y-40667490D01*
X33891995Y-40921727D01*
X34044880Y-41150535D01*
X34154345Y-41260000D01*
X34044880Y-41369465D01*
X33891995Y-41598273D01*
X33786686Y-41852510D01*
X33733000Y-42122408D01*
X33733000Y-42397592D01*
X33786686Y-42667490D01*
X33891995Y-42921727D01*
X34044880Y-43150535D01*
X34154345Y-43260000D01*
X34044880Y-43369465D01*
X33891995Y-43598273D01*
X33786686Y-43852510D01*
X33733000Y-44122408D01*
X33733000Y-44397592D01*
X33786686Y-44667490D01*
X33891995Y-44921727D01*
X34044880Y-45150535D01*
X34154345Y-45260000D01*
X34044880Y-45369465D01*
X33891995Y-45598273D01*
X33786686Y-45852510D01*
X33733000Y-46122408D01*
X33733000Y-46397592D01*
X33786686Y-46667490D01*
X33891995Y-46921727D01*
X34044880Y-47150535D01*
X34154345Y-47260000D01*
X34044880Y-47369465D01*
X33891995Y-47598273D01*
X33786686Y-47852510D01*
X33733000Y-48122408D01*
X33733000Y-48397592D01*
X33786686Y-48667490D01*
X33891995Y-48921727D01*
X34044880Y-49150535D01*
X34154345Y-49260000D01*
X34044880Y-49369465D01*
X33891995Y-49598273D01*
X33786686Y-49852510D01*
X33733000Y-50122408D01*
X33733000Y-50397592D01*
X33786686Y-50667490D01*
X33891995Y-50921727D01*
X34044880Y-51150535D01*
X34154345Y-51260000D01*
X34044880Y-51369465D01*
X33891995Y-51598273D01*
X33786686Y-51852510D01*
X33733000Y-52122408D01*
X33733000Y-52397592D01*
X33786686Y-52667490D01*
X33891995Y-52921727D01*
X34044880Y-53150535D01*
X34154345Y-53260000D01*
X34044880Y-53369465D01*
X33891995Y-53598273D01*
X33786686Y-53852510D01*
X33733000Y-54122408D01*
X33733000Y-54397592D01*
X33786686Y-54667490D01*
X33891995Y-54921727D01*
X34044880Y-55150535D01*
X34154345Y-55260000D01*
X34044880Y-55369465D01*
X33891995Y-55598273D01*
X33786686Y-55852510D01*
X33733000Y-56122408D01*
X33733000Y-56397592D01*
X33786686Y-56667490D01*
X33891995Y-56921727D01*
X34044880Y-57150535D01*
X34239465Y-57345120D01*
X34468273Y-57498005D01*
X34722510Y-57603314D01*
X34992408Y-57657000D01*
X35267592Y-57657000D01*
X35537490Y-57603314D01*
X35791727Y-57498005D01*
X36020535Y-57345120D01*
X36215120Y-57150535D01*
X36368005Y-56921727D01*
X36473314Y-56667490D01*
X36527000Y-56397592D01*
X36527000Y-56184502D01*
X37105001Y-56762503D01*
X37105000Y-67444115D01*
X37001995Y-67598273D01*
X36896686Y-67852510D01*
X36843000Y-68122408D01*
X36843000Y-68397592D01*
X36896686Y-68667490D01*
X37001995Y-68921727D01*
X37154880Y-69150535D01*
X37349465Y-69345120D01*
X37578273Y-69498005D01*
X37832510Y-69603314D01*
X38102408Y-69657000D01*
X38377592Y-69657000D01*
X38647490Y-69603314D01*
X38901727Y-69498005D01*
X39130535Y-69345120D01*
X39250090Y-69225565D01*
X54954040Y-69225565D01*
X55021020Y-69465656D01*
X55270048Y-69582756D01*
X55537135Y-69649023D01*
X55812017Y-69661910D01*
X56084133Y-69620922D01*
X56343023Y-69527636D01*
X56458980Y-69465656D01*
X56525960Y-69225565D01*
X55740000Y-68439605D01*
X54954040Y-69225565D01*
X39250090Y-69225565D01*
X39325120Y-69150535D01*
X39478005Y-68921727D01*
X39583314Y-68667490D01*
X39637000Y-68397592D01*
X39637000Y-68332017D01*
X54338090Y-68332017D01*
X54379078Y-68604133D01*
X54472364Y-68863023D01*
X54534344Y-68978980D01*
X54774435Y-69045960D01*
X55560395Y-68260000D01*
X55919605Y-68260000D01*
X56705565Y-69045960D01*
X56945656Y-68978980D01*
X57062756Y-68729952D01*
X57129023Y-68462865D01*
X57141910Y-68187983D01*
X57100922Y-67915867D01*
X57007636Y-67656977D01*
X56945656Y-67541020D01*
X56705565Y-67474040D01*
X55919605Y-68260000D01*
X55560395Y-68260000D01*
X54774435Y-67474040D01*
X54534344Y-67541020D01*
X54417244Y-67790048D01*
X54350977Y-68057135D01*
X54338090Y-68332017D01*
X39637000Y-68332017D01*
X39637000Y-68122408D01*
X39583314Y-67852510D01*
X39478005Y-67598273D01*
X39375000Y-67444116D01*
X39375000Y-67294435D01*
X54954040Y-67294435D01*
X55740000Y-68080395D01*
X56525960Y-67294435D01*
X56458980Y-67054344D01*
X56209952Y-66937244D01*
X55942865Y-66870977D01*
X55667983Y-66858090D01*
X55395867Y-66899078D01*
X55136977Y-66992364D01*
X55021020Y-67054344D01*
X54954040Y-67294435D01*
X39375000Y-67294435D01*
X39375000Y-65902408D01*
X60833000Y-65902408D01*
X60833000Y-66177592D01*
X60886686Y-66447490D01*
X60991995Y-66701727D01*
X61144880Y-66930535D01*
X61339465Y-67125120D01*
X61568273Y-67278005D01*
X61822510Y-67383314D01*
X62092408Y-67437000D01*
X62367592Y-67437000D01*
X62637490Y-67383314D01*
X62891727Y-67278005D01*
X63120535Y-67125120D01*
X63315120Y-66930535D01*
X63468005Y-66701727D01*
X63573314Y-66447490D01*
X63627000Y-66177592D01*
X63627000Y-65902408D01*
X63573314Y-65632510D01*
X63468005Y-65378273D01*
X63315120Y-65149465D01*
X63120535Y-64954880D01*
X62891727Y-64801995D01*
X62820057Y-64772308D01*
X62833023Y-64767636D01*
X62948980Y-64705656D01*
X63015960Y-64465565D01*
X62230000Y-63679605D01*
X61444040Y-64465565D01*
X61511020Y-64705656D01*
X61646760Y-64769485D01*
X61568273Y-64801995D01*
X61339465Y-64954880D01*
X61144880Y-65149465D01*
X60991995Y-65378273D01*
X60886686Y-65632510D01*
X60833000Y-65902408D01*
X39375000Y-65902408D01*
X39375000Y-56348113D01*
X39380490Y-56292369D01*
X39375000Y-56236625D01*
X39375000Y-56236618D01*
X39358577Y-56069871D01*
X39293676Y-55855923D01*
X39188284Y-55658747D01*
X39046449Y-55485921D01*
X39003141Y-55450379D01*
X37049626Y-53496865D01*
X37014079Y-53453551D01*
X36841253Y-53311716D01*
X36644077Y-53206324D01*
X36430129Y-53141423D01*
X36263382Y-53125000D01*
X36263381Y-53125000D01*
X36234108Y-53122117D01*
X36368005Y-52921727D01*
X36473314Y-52667490D01*
X36527000Y-52397592D01*
X36527000Y-52122408D01*
X36473314Y-51852510D01*
X36368005Y-51598273D01*
X36215120Y-51369465D01*
X36105655Y-51260000D01*
X36215120Y-51150535D01*
X36368005Y-50921727D01*
X36473314Y-50667490D01*
X36527000Y-50397592D01*
X36527000Y-50122408D01*
X36473314Y-49852510D01*
X36368005Y-49598273D01*
X36215120Y-49369465D01*
X36105655Y-49260000D01*
X36215120Y-49150535D01*
X36368005Y-48921727D01*
X36473314Y-48667490D01*
X36527000Y-48397592D01*
X36527000Y-48122408D01*
X36473314Y-47852510D01*
X36368005Y-47598273D01*
X36215120Y-47369465D01*
X36105655Y-47260000D01*
X36215120Y-47150535D01*
X36368005Y-46921727D01*
X36473314Y-46667490D01*
X36527000Y-46397592D01*
X36527000Y-46122408D01*
X36473314Y-45852510D01*
X36368005Y-45598273D01*
X36215120Y-45369465D01*
X36105655Y-45260000D01*
X36215120Y-45150535D01*
X36368005Y-44921727D01*
X36473314Y-44667490D01*
X36527000Y-44397592D01*
X36527000Y-44122408D01*
X36473314Y-43852510D01*
X36368005Y-43598273D01*
X36215120Y-43369465D01*
X36105655Y-43260000D01*
X36215120Y-43150535D01*
X36368005Y-42921727D01*
X36473314Y-42667490D01*
X36527000Y-42397592D01*
X36527000Y-42122408D01*
X36473314Y-41852510D01*
X36368005Y-41598273D01*
X36215120Y-41369465D01*
X36105655Y-41260000D01*
X36215120Y-41150535D01*
X36368005Y-40921727D01*
X36473314Y-40667490D01*
X36527000Y-40397592D01*
X36527000Y-40122408D01*
X36473314Y-39852510D01*
X36368005Y-39598273D01*
X36215120Y-39369465D01*
X36020535Y-39174880D01*
X35791727Y-39021995D01*
X35537490Y-38916686D01*
X35267592Y-38863000D01*
X34992408Y-38863000D01*
X34722510Y-38916686D01*
X34468273Y-39021995D01*
X34239465Y-39174880D01*
X34044880Y-39369465D01*
X33891995Y-39598273D01*
X33786686Y-39852510D01*
X33733000Y-40122408D01*
X26060000Y-40122408D01*
X26060000Y-30102285D01*
X26645000Y-30102285D01*
X26645000Y-30857715D01*
X26792377Y-31598628D01*
X27081467Y-32296554D01*
X27501161Y-32924670D01*
X28035330Y-33458839D01*
X28663446Y-33878533D01*
X29361372Y-34167623D01*
X30102285Y-34315000D01*
X30857715Y-34315000D01*
X31598628Y-34167623D01*
X32296554Y-33878533D01*
X32924670Y-33458839D01*
X33458839Y-32924670D01*
X33878533Y-32296554D01*
X34167623Y-31598628D01*
X34298632Y-30940000D01*
X34419509Y-30940000D01*
X34425000Y-30995751D01*
X34425000Y-31861788D01*
X34435932Y-31916748D01*
X34441423Y-31972498D01*
X34457684Y-32026103D01*
X34468617Y-32081067D01*
X34490064Y-32132845D01*
X34506324Y-32186446D01*
X34532730Y-32235848D01*
X34554176Y-32287624D01*
X34585307Y-32334215D01*
X34611716Y-32383623D01*
X34647259Y-32426932D01*
X34678388Y-32473520D01*
X34718009Y-32513141D01*
X34753551Y-32556449D01*
X34796859Y-32591991D01*
X34836480Y-32631612D01*
X34883068Y-32662741D01*
X34926377Y-32698284D01*
X34975786Y-32724693D01*
X35022376Y-32755824D01*
X35074149Y-32777269D01*
X35123553Y-32803676D01*
X35177158Y-32819937D01*
X35228933Y-32841383D01*
X35283894Y-32852315D01*
X35337501Y-32868577D01*
X35393253Y-32874068D01*
X35448212Y-32885000D01*
X35504248Y-32885000D01*
X35560000Y-32890491D01*
X35615751Y-32885000D01*
X35671788Y-32885000D01*
X35726748Y-32874068D01*
X35782498Y-32868577D01*
X35836103Y-32852316D01*
X35891067Y-32841383D01*
X35942845Y-32819936D01*
X35996446Y-32803676D01*
X36045848Y-32777270D01*
X36097624Y-32755824D01*
X36144215Y-32724693D01*
X36193623Y-32698284D01*
X36236932Y-32662741D01*
X36283520Y-32631612D01*
X36323141Y-32591991D01*
X36366449Y-32556449D01*
X36401991Y-32513141D01*
X36441612Y-32473520D01*
X36472741Y-32426932D01*
X36508284Y-32383623D01*
X36534693Y-32334214D01*
X36565824Y-32287624D01*
X36587269Y-32235851D01*
X36613676Y-32186447D01*
X36629937Y-32132842D01*
X36651383Y-32081067D01*
X36662315Y-32026106D01*
X36678577Y-31972499D01*
X36684068Y-31916747D01*
X36695000Y-31861788D01*
X36695000Y-31410131D01*
X38465647Y-29639485D01*
X38647490Y-29603314D01*
X38901727Y-29498005D01*
X39130535Y-29345120D01*
X39250090Y-29225565D01*
X54954040Y-29225565D01*
X55021020Y-29465656D01*
X55270048Y-29582756D01*
X55537135Y-29649023D01*
X55812017Y-29661910D01*
X56084133Y-29620922D01*
X56343023Y-29527636D01*
X56458980Y-29465656D01*
X56525960Y-29225565D01*
X55740000Y-28439605D01*
X54954040Y-29225565D01*
X39250090Y-29225565D01*
X39325120Y-29150535D01*
X39478005Y-28921727D01*
X39583314Y-28667490D01*
X39637000Y-28397592D01*
X39637000Y-28332017D01*
X54338090Y-28332017D01*
X54379078Y-28604133D01*
X54472364Y-28863023D01*
X54534344Y-28978980D01*
X54774435Y-29045960D01*
X55560395Y-28260000D01*
X55919605Y-28260000D01*
X56705565Y-29045960D01*
X56945656Y-28978980D01*
X57062756Y-28729952D01*
X57129023Y-28462865D01*
X57141910Y-28187983D01*
X57100922Y-27915867D01*
X57007636Y-27656977D01*
X56945656Y-27541020D01*
X56705565Y-27474040D01*
X55919605Y-28260000D01*
X55560395Y-28260000D01*
X54774435Y-27474040D01*
X54534344Y-27541020D01*
X54417244Y-27790048D01*
X54350977Y-28057135D01*
X54338090Y-28332017D01*
X39637000Y-28332017D01*
X39637000Y-28122408D01*
X39583314Y-27852510D01*
X39478005Y-27598273D01*
X39325120Y-27369465D01*
X39250090Y-27294435D01*
X54954040Y-27294435D01*
X55740000Y-28080395D01*
X56525960Y-27294435D01*
X56458980Y-27054344D01*
X56209952Y-26937244D01*
X55942865Y-26870977D01*
X55667983Y-26858090D01*
X55395867Y-26899078D01*
X55136977Y-26992364D01*
X55021020Y-27054344D01*
X54954040Y-27294435D01*
X39250090Y-27294435D01*
X39130535Y-27174880D01*
X38901727Y-27021995D01*
X38647490Y-26916686D01*
X38377592Y-26863000D01*
X38102408Y-26863000D01*
X37832510Y-26916686D01*
X37578273Y-27021995D01*
X37349465Y-27174880D01*
X37154880Y-27369465D01*
X37001995Y-27598273D01*
X36896686Y-27852510D01*
X36860515Y-28034353D01*
X34796860Y-30098009D01*
X34753552Y-30133551D01*
X34611717Y-30306377D01*
X34506324Y-30503553D01*
X34441423Y-30717501D01*
X34441423Y-30717502D01*
X34419509Y-30940000D01*
X34298632Y-30940000D01*
X34315000Y-30857715D01*
X34315000Y-30102285D01*
X34167623Y-29361372D01*
X33878533Y-28663446D01*
X33458839Y-28035330D01*
X32924670Y-27501161D01*
X32296554Y-27081467D01*
X31598628Y-26792377D01*
X30857715Y-26645000D01*
X30102285Y-26645000D01*
X29361372Y-26792377D01*
X28663446Y-27081467D01*
X28035330Y-27501161D01*
X27501161Y-28035330D01*
X27081467Y-28663446D01*
X26792377Y-29361372D01*
X26645000Y-30102285D01*
X26060000Y-30102285D01*
X26060000Y-26060000D01*
X60833000Y-26060000D01*
X60833000Y-33157592D01*
G37*
%TD.AperFunction*%
D22*
X96665932Y-64936748D02*
X96671423Y-64992498D01*
X96687684Y-65046103D01*
X96698617Y-65101067D01*
X96720064Y-65152845D01*
X96736324Y-65206446D01*
X96762730Y-65255848D01*
X96784176Y-65307624D01*
X96815307Y-65354215D01*
X96841716Y-65403623D01*
X96877259Y-65446932D01*
X96908388Y-65493520D01*
X96948009Y-65533141D01*
X96983551Y-65576449D01*
X97026859Y-65611991D01*
X97066480Y-65651612D01*
X97113068Y-65682741D01*
X97156377Y-65718284D01*
X97205786Y-65744693D01*
X97252376Y-65775824D01*
X97304149Y-65797269D01*
X97353553Y-65823676D01*
X97407158Y-65839937D01*
X97458933Y-65861383D01*
X97513894Y-65872315D01*
X97567501Y-65888577D01*
X97623253Y-65894068D01*
X97678212Y-65905000D01*
X97734248Y-65905000D01*
X97790000Y-65910491D01*
X97845751Y-65905000D01*
X97901788Y-65905000D01*
X97955001Y-65894415D01*
X97955001Y-66014239D01*
X97949509Y-66070000D01*
X97971423Y-66292498D01*
X98036324Y-66506446D01*
X98036325Y-66506447D01*
X98141717Y-66703623D01*
X98283552Y-66876449D01*
X98326860Y-66911991D01*
X103804868Y-72390001D01*
X102399869Y-73795000D01*
X89377147Y-73795000D01*
X89404099Y-73786825D01*
X89666920Y-73661641D01*
X89900269Y-73487588D01*
X90095178Y-73271355D01*
X90244157Y-73021252D01*
X90341481Y-72746891D01*
X90220814Y-72517000D01*
X89027000Y-72517000D01*
X89027000Y-72537000D01*
X88773000Y-72537000D01*
X88773000Y-72517000D01*
X88753000Y-72517000D01*
X88753000Y-72263000D01*
X88773000Y-72263000D01*
X88773000Y-71069845D01*
X89027000Y-71069845D01*
X89027000Y-72263000D01*
X90220814Y-72263000D01*
X90341481Y-72033109D01*
X90244157Y-71758748D01*
X90095178Y-71508645D01*
X89900269Y-71292412D01*
X89666920Y-71118359D01*
X89404099Y-70993175D01*
X89256890Y-70948524D01*
X89027000Y-71069845D01*
X88773000Y-71069845D01*
X88543110Y-70948524D01*
X88395901Y-70993175D01*
X88133080Y-71118359D01*
X87899731Y-71292412D01*
X87704822Y-71508645D01*
X87635195Y-71625534D01*
X87513475Y-71443368D01*
X87306632Y-71236525D01*
X87063411Y-71074010D01*
X86793158Y-70962068D01*
X86506260Y-70905000D01*
X86213740Y-70905000D01*
X85993592Y-70948790D01*
X85483813Y-70439012D01*
X85460011Y-70410009D01*
X85344286Y-70315036D01*
X85212257Y-70244464D01*
X85072931Y-70202201D01*
X87855648Y-67419485D01*
X88037490Y-67383314D01*
X88291727Y-67278005D01*
X88445884Y-67175000D01*
X93894249Y-67175000D01*
X93950000Y-67180491D01*
X94005751Y-67175000D01*
X94005752Y-67175000D01*
X94172499Y-67158577D01*
X94386447Y-67093676D01*
X94583623Y-66988284D01*
X94756449Y-66846449D01*
X94791996Y-66803135D01*
X96664680Y-64930452D01*
X96665932Y-64936748D01*
%TA.AperFunction,Conductor*%
D23*
G36*
X96665932Y-64936748D02*
G01*
X96671423Y-64992498D01*
X96687684Y-65046103D01*
X96698617Y-65101067D01*
X96720064Y-65152845D01*
X96736324Y-65206446D01*
X96762730Y-65255848D01*
X96784176Y-65307624D01*
X96815307Y-65354215D01*
X96841716Y-65403623D01*
X96877259Y-65446932D01*
X96908388Y-65493520D01*
X96948009Y-65533141D01*
X96983551Y-65576449D01*
X97026859Y-65611991D01*
X97066480Y-65651612D01*
X97113068Y-65682741D01*
X97156377Y-65718284D01*
X97205786Y-65744693D01*
X97252376Y-65775824D01*
X97304149Y-65797269D01*
X97353553Y-65823676D01*
X97407158Y-65839937D01*
X97458933Y-65861383D01*
X97513894Y-65872315D01*
X97567501Y-65888577D01*
X97623253Y-65894068D01*
X97678212Y-65905000D01*
X97734248Y-65905000D01*
X97790000Y-65910491D01*
X97845751Y-65905000D01*
X97901788Y-65905000D01*
X97955001Y-65894415D01*
X97955001Y-66014239D01*
X97949509Y-66070000D01*
X97971423Y-66292498D01*
X98036324Y-66506446D01*
X98036325Y-66506447D01*
X98141717Y-66703623D01*
X98283552Y-66876449D01*
X98326860Y-66911991D01*
X103804868Y-72390001D01*
X102399869Y-73795000D01*
X89377147Y-73795000D01*
X89404099Y-73786825D01*
X89666920Y-73661641D01*
X89900269Y-73487588D01*
X90095178Y-73271355D01*
X90244157Y-73021252D01*
X90341481Y-72746891D01*
X90220814Y-72517000D01*
X89027000Y-72517000D01*
X89027000Y-72537000D01*
X88773000Y-72537000D01*
X88773000Y-72517000D01*
X88753000Y-72517000D01*
X88753000Y-72263000D01*
X88773000Y-72263000D01*
X88773000Y-71069845D01*
X89027000Y-71069845D01*
X89027000Y-72263000D01*
X90220814Y-72263000D01*
X90341481Y-72033109D01*
X90244157Y-71758748D01*
X90095178Y-71508645D01*
X89900269Y-71292412D01*
X89666920Y-71118359D01*
X89404099Y-70993175D01*
X89256890Y-70948524D01*
X89027000Y-71069845D01*
X88773000Y-71069845D01*
X88543110Y-70948524D01*
X88395901Y-70993175D01*
X88133080Y-71118359D01*
X87899731Y-71292412D01*
X87704822Y-71508645D01*
X87635195Y-71625534D01*
X87513475Y-71443368D01*
X87306632Y-71236525D01*
X87063411Y-71074010D01*
X86793158Y-70962068D01*
X86506260Y-70905000D01*
X86213740Y-70905000D01*
X85993592Y-70948790D01*
X85483813Y-70439012D01*
X85460011Y-70410009D01*
X85344286Y-70315036D01*
X85212257Y-70244464D01*
X85072931Y-70202201D01*
X87855648Y-67419485D01*
X88037490Y-67383314D01*
X88291727Y-67278005D01*
X88445884Y-67175000D01*
X93894249Y-67175000D01*
X93950000Y-67180491D01*
X94005751Y-67175000D01*
X94005752Y-67175000D01*
X94172499Y-67158577D01*
X94386447Y-67093676D01*
X94583623Y-66988284D01*
X94756449Y-66846449D01*
X94791996Y-66803135D01*
X96664680Y-64930452D01*
X96665932Y-64936748D01*
G37*
%TD.AperFunction*%
%TD*%
M02*
