%TF.GenerationSoftware,KiCad,Pcbnew,5.99.0+really5.1.10+dfsg1-1*%
%TF.CreationDate,2022-02-16T20:05:08+00:00*%
%TF.ProjectId,lcd,6c63642e-6b69-4636-9164-5f7063625858,rev?*%
%TF.SameCoordinates,Original*%
%TF.FileFunction,Soldermask,Top*%
%TF.FilePolarity,Negative*%
%FSLAX46Y46*%
G04 Gerber Fmt 4.6, Leading zero omitted, Abs format (unit mm)*
G04 Created by KiCad (PCBNEW 5.99.0+really5.1.10+dfsg1-1) date 2022-02-16 20:05:08*
%MOMM*%
%LPD*%
G01*
G04 APERTURE LIST*
%ADD10C,1.500000*%
%ADD11C,1.524000*%
%ADD12C,0.800000*%
%ADD13C,6.400000*%
%ADD14R,1.500000X1.000000*%
%ADD15R,1.000000X1.500000*%
%ADD16R,1.700000X1.700000*%
%ADD17O,1.700000X1.700000*%
%ADD18R,1.900000X0.800000*%
G04 APERTURE END LIST*
D10*
%TO.C,R2*%
X107500000Y-28900000D03*
X104100000Y-28900000D03*
%TD*%
D11*
%TO.C,U2*%
X87630000Y-48260000D03*
X87630000Y-45720000D03*
X87630000Y-43180000D03*
X87630000Y-40640000D03*
X87630000Y-38100000D03*
X87630000Y-35560000D03*
X87630000Y-33020000D03*
X87630000Y-50800000D03*
X87630000Y-53340000D03*
X87630000Y-55880000D03*
X87630000Y-58420000D03*
X87630000Y-60960000D03*
X87630000Y-63500000D03*
X87630000Y-30480000D03*
X87630000Y-66040000D03*
X62230000Y-66040000D03*
X62230000Y-63500000D03*
X62230000Y-60960000D03*
X62230000Y-58420000D03*
X62230000Y-55880000D03*
X62230000Y-53340000D03*
X62230000Y-50800000D03*
X62230000Y-48260000D03*
X62230000Y-45720000D03*
X62230000Y-43180000D03*
X62230000Y-40640000D03*
X62230000Y-38100000D03*
X62230000Y-35560000D03*
X62230000Y-33020000D03*
X62230000Y-30480000D03*
%TD*%
%TO.C,U3*%
X114730000Y-40260000D03*
X114730000Y-42260000D03*
X114730000Y-44260000D03*
X114730000Y-46260000D03*
X114730000Y-48260000D03*
X114730000Y-50260000D03*
X114730000Y-52260000D03*
X114730000Y-54260000D03*
X114730000Y-56260000D03*
X35130000Y-40260000D03*
X35130000Y-42260000D03*
X35130000Y-44260000D03*
X35130000Y-46260000D03*
X35130000Y-48260000D03*
X35130000Y-50260000D03*
X35130000Y-52260000D03*
X35130000Y-54260000D03*
X35130000Y-56260000D03*
%TD*%
%TO.C,U1*%
X38240000Y-28260000D03*
X38240000Y-68260000D03*
X55740000Y-28260000D03*
X55740000Y-68260000D03*
%TD*%
D12*
%TO.C,REF\u002A\u002A*%
X32177056Y-69422944D03*
X30480000Y-68720000D03*
X28782944Y-69422944D03*
X28080000Y-71120000D03*
X28782944Y-72817056D03*
X30480000Y-73520000D03*
X32177056Y-72817056D03*
X32880000Y-71120000D03*
D13*
X30480000Y-71120000D03*
%TD*%
D12*
%TO.C,REF\u002A\u002A*%
X32177056Y-28782944D03*
X30480000Y-28080000D03*
X28782944Y-28782944D03*
X28080000Y-30480000D03*
X28782944Y-32177056D03*
X30480000Y-32880000D03*
X32177056Y-32177056D03*
X32880000Y-30480000D03*
D13*
X30480000Y-30480000D03*
%TD*%
D12*
%TO.C,REF\u002A\u002A*%
X121077056Y-28782944D03*
X119380000Y-28080000D03*
X117682944Y-28782944D03*
X116980000Y-30480000D03*
X117682944Y-32177056D03*
X119380000Y-32880000D03*
X121077056Y-32177056D03*
X121780000Y-30480000D03*
D13*
X119380000Y-30480000D03*
%TD*%
D12*
%TO.C,REF\u002A\u002A*%
X121077056Y-69422944D03*
X119380000Y-68720000D03*
X117682944Y-69422944D03*
X116980000Y-71120000D03*
X117682944Y-72817056D03*
X119380000Y-73520000D03*
X121077056Y-72817056D03*
X121780000Y-71120000D03*
D13*
X119380000Y-71120000D03*
%TD*%
D14*
%TO.C,D1*%
X101510000Y-30810000D03*
X101510000Y-27610000D03*
X96610000Y-30810000D03*
X96610000Y-27610000D03*
%TD*%
D15*
%TO.C,D2*%
X122250000Y-39460000D03*
X119050000Y-39460000D03*
X122250000Y-44360000D03*
X119050000Y-44360000D03*
%TD*%
%TO.C,D3*%
X119050000Y-62140000D03*
X122250000Y-62140000D03*
X119050000Y-57240000D03*
X122250000Y-57240000D03*
%TD*%
D14*
%TO.C,D4*%
X101510000Y-73990000D03*
X101510000Y-70790000D03*
X96610000Y-73990000D03*
X96610000Y-70790000D03*
%TD*%
%TO.C,D5*%
X53250000Y-73990000D03*
X53250000Y-70790000D03*
X48350000Y-73990000D03*
X48350000Y-70790000D03*
%TD*%
D15*
%TO.C,D6*%
X30810000Y-57240000D03*
X27610000Y-57240000D03*
X30810000Y-62140000D03*
X27610000Y-62140000D03*
%TD*%
%TO.C,D7*%
X27610000Y-44360000D03*
X30810000Y-44360000D03*
X27610000Y-39460000D03*
X30810000Y-39460000D03*
%TD*%
D14*
%TO.C,D8*%
X53250000Y-30810000D03*
X53250000Y-27610000D03*
X48350000Y-30810000D03*
X48350000Y-27610000D03*
%TD*%
D16*
%TO.C,J2*%
X60960000Y-72390000D03*
D17*
X63500000Y-72390000D03*
X66040000Y-72390000D03*
X68580000Y-72390000D03*
X71120000Y-72390000D03*
X73660000Y-72390000D03*
X76200000Y-72390000D03*
X78740000Y-72390000D03*
X81280000Y-72390000D03*
X83820000Y-72390000D03*
X86360000Y-72390000D03*
X88900000Y-72390000D03*
%TD*%
%TO.C,J3*%
X113030000Y-72390000D03*
X110490000Y-72390000D03*
X107950000Y-72390000D03*
D16*
X105410000Y-72390000D03*
%TD*%
%TO.C,J4*%
X36830000Y-72390000D03*
D17*
X39370000Y-72390000D03*
X41910000Y-72390000D03*
X44450000Y-72390000D03*
%TD*%
D15*
%TO.C,JP2*%
X91410000Y-29210000D03*
X92710000Y-29210000D03*
%TD*%
D18*
%TO.C,Q1*%
X41100000Y-60960000D03*
X41100000Y-59060000D03*
X38100000Y-60010000D03*
%TD*%
D16*
%TO.C,J1*%
X29210000Y-49530000D03*
D17*
X29210000Y-52070000D03*
%TD*%
%TO.C,C1*%
G36*
G01*
X39127500Y-55292500D02*
X40077500Y-55292500D01*
G75*
G02*
X40327500Y-55542500I0J-250000D01*
G01*
X40327500Y-56217500D01*
G75*
G02*
X40077500Y-56467500I-250000J0D01*
G01*
X39127500Y-56467500D01*
G75*
G02*
X38877500Y-56217500I0J250000D01*
G01*
X38877500Y-55542500D01*
G75*
G02*
X39127500Y-55292500I250000J0D01*
G01*
G37*
G36*
G01*
X39127500Y-53217500D02*
X40077500Y-53217500D01*
G75*
G02*
X40327500Y-53467500I0J-250000D01*
G01*
X40327500Y-54142500D01*
G75*
G02*
X40077500Y-54392500I-250000J0D01*
G01*
X39127500Y-54392500D01*
G75*
G02*
X38877500Y-54142500I0J250000D01*
G01*
X38877500Y-53467500D01*
G75*
G02*
X39127500Y-53217500I250000J0D01*
G01*
G37*
%TD*%
%TO.C,C2*%
G36*
G01*
X95932500Y-67785000D02*
X95932500Y-66835000D01*
G75*
G02*
X96182500Y-66585000I250000J0D01*
G01*
X96857500Y-66585000D01*
G75*
G02*
X97107500Y-66835000I0J-250000D01*
G01*
X97107500Y-67785000D01*
G75*
G02*
X96857500Y-68035000I-250000J0D01*
G01*
X96182500Y-68035000D01*
G75*
G02*
X95932500Y-67785000I0J250000D01*
G01*
G37*
G36*
G01*
X98007500Y-67785000D02*
X98007500Y-66835000D01*
G75*
G02*
X98257500Y-66585000I250000J0D01*
G01*
X98932500Y-66585000D01*
G75*
G02*
X99182500Y-66835000I0J-250000D01*
G01*
X99182500Y-67785000D01*
G75*
G02*
X98932500Y-68035000I-250000J0D01*
G01*
X98257500Y-68035000D01*
G75*
G02*
X98007500Y-67785000I0J250000D01*
G01*
G37*
%TD*%
%TO.C,R1*%
G36*
G01*
X109812500Y-33112500D02*
X109812500Y-33587500D01*
G75*
G02*
X109575000Y-33825000I-237500J0D01*
G01*
X109075000Y-33825000D01*
G75*
G02*
X108837500Y-33587500I0J237500D01*
G01*
X108837500Y-33112500D01*
G75*
G02*
X109075000Y-32875000I237500J0D01*
G01*
X109575000Y-32875000D01*
G75*
G02*
X109812500Y-33112500I0J-237500D01*
G01*
G37*
G36*
G01*
X107987500Y-33112500D02*
X107987500Y-33587500D01*
G75*
G02*
X107750000Y-33825000I-237500J0D01*
G01*
X107250000Y-33825000D01*
G75*
G02*
X107012500Y-33587500I0J237500D01*
G01*
X107012500Y-33112500D01*
G75*
G02*
X107250000Y-32875000I237500J0D01*
G01*
X107750000Y-32875000D01*
G75*
G02*
X107987500Y-33112500I0J-237500D01*
G01*
G37*
%TD*%
D16*
%TO.C,J5*%
X110560000Y-28900000D03*
D17*
X113100000Y-28900000D03*
%TD*%
M02*
