%TF.GenerationSoftware,KiCad,Pcbnew,5.99.0+really5.1.10+dfsg1-1*%
%TF.CreationDate,2022-02-16T20:05:08+00:00*%
%TF.ProjectId,lcd,6c63642e-6b69-4636-9164-5f7063625858,rev?*%
%TF.SameCoordinates,Original*%
%TF.FileFunction,Paste,Top*%
%TF.FilePolarity,Positive*%
%FSLAX46Y46*%
G04 Gerber Fmt 4.6, Leading zero omitted, Abs format (unit mm)*
G04 Created by KiCad (PCBNEW 5.99.0+really5.1.10+dfsg1-1) date 2022-02-16 20:05:08*
%MOMM*%
%LPD*%
G01*
G04 APERTURE LIST*
%ADD10R,1.500000X1.000000*%
%ADD11R,1.000000X1.500000*%
%ADD12R,1.900000X0.800000*%
G04 APERTURE END LIST*
D10*
%TO.C,D1*%
X101510000Y-30810000D03*
X101510000Y-27610000D03*
X96610000Y-30810000D03*
X96610000Y-27610000D03*
%TD*%
D11*
%TO.C,D2*%
X122250000Y-39460000D03*
X119050000Y-39460000D03*
X122250000Y-44360000D03*
X119050000Y-44360000D03*
%TD*%
%TO.C,D3*%
X119050000Y-62140000D03*
X122250000Y-62140000D03*
X119050000Y-57240000D03*
X122250000Y-57240000D03*
%TD*%
D10*
%TO.C,D4*%
X101510000Y-73990000D03*
X101510000Y-70790000D03*
X96610000Y-73990000D03*
X96610000Y-70790000D03*
%TD*%
%TO.C,D5*%
X53250000Y-73990000D03*
X53250000Y-70790000D03*
X48350000Y-73990000D03*
X48350000Y-70790000D03*
%TD*%
D11*
%TO.C,D6*%
X30810000Y-57240000D03*
X27610000Y-57240000D03*
X30810000Y-62140000D03*
X27610000Y-62140000D03*
%TD*%
%TO.C,D7*%
X27610000Y-44360000D03*
X30810000Y-44360000D03*
X27610000Y-39460000D03*
X30810000Y-39460000D03*
%TD*%
D10*
%TO.C,D8*%
X53250000Y-30810000D03*
X53250000Y-27610000D03*
X48350000Y-30810000D03*
X48350000Y-27610000D03*
%TD*%
D12*
%TO.C,Q1*%
X41100000Y-60960000D03*
X41100000Y-59060000D03*
X38100000Y-60010000D03*
%TD*%
%TO.C,C1*%
G36*
G01*
X39127500Y-55292500D02*
X40077500Y-55292500D01*
G75*
G02*
X40327500Y-55542500I0J-250000D01*
G01*
X40327500Y-56217500D01*
G75*
G02*
X40077500Y-56467500I-250000J0D01*
G01*
X39127500Y-56467500D01*
G75*
G02*
X38877500Y-56217500I0J250000D01*
G01*
X38877500Y-55542500D01*
G75*
G02*
X39127500Y-55292500I250000J0D01*
G01*
G37*
G36*
G01*
X39127500Y-53217500D02*
X40077500Y-53217500D01*
G75*
G02*
X40327500Y-53467500I0J-250000D01*
G01*
X40327500Y-54142500D01*
G75*
G02*
X40077500Y-54392500I-250000J0D01*
G01*
X39127500Y-54392500D01*
G75*
G02*
X38877500Y-54142500I0J250000D01*
G01*
X38877500Y-53467500D01*
G75*
G02*
X39127500Y-53217500I250000J0D01*
G01*
G37*
%TD*%
%TO.C,C2*%
G36*
G01*
X95932500Y-67785000D02*
X95932500Y-66835000D01*
G75*
G02*
X96182500Y-66585000I250000J0D01*
G01*
X96857500Y-66585000D01*
G75*
G02*
X97107500Y-66835000I0J-250000D01*
G01*
X97107500Y-67785000D01*
G75*
G02*
X96857500Y-68035000I-250000J0D01*
G01*
X96182500Y-68035000D01*
G75*
G02*
X95932500Y-67785000I0J250000D01*
G01*
G37*
G36*
G01*
X98007500Y-67785000D02*
X98007500Y-66835000D01*
G75*
G02*
X98257500Y-66585000I250000J0D01*
G01*
X98932500Y-66585000D01*
G75*
G02*
X99182500Y-66835000I0J-250000D01*
G01*
X99182500Y-67785000D01*
G75*
G02*
X98932500Y-68035000I-250000J0D01*
G01*
X98257500Y-68035000D01*
G75*
G02*
X98007500Y-67785000I0J250000D01*
G01*
G37*
%TD*%
%TO.C,R1*%
G36*
G01*
X109812500Y-33112500D02*
X109812500Y-33587500D01*
G75*
G02*
X109575000Y-33825000I-237500J0D01*
G01*
X109075000Y-33825000D01*
G75*
G02*
X108837500Y-33587500I0J237500D01*
G01*
X108837500Y-33112500D01*
G75*
G02*
X109075000Y-32875000I237500J0D01*
G01*
X109575000Y-32875000D01*
G75*
G02*
X109812500Y-33112500I0J-237500D01*
G01*
G37*
G36*
G01*
X107987500Y-33112500D02*
X107987500Y-33587500D01*
G75*
G02*
X107750000Y-33825000I-237500J0D01*
G01*
X107250000Y-33825000D01*
G75*
G02*
X107012500Y-33587500I0J237500D01*
G01*
X107012500Y-33112500D01*
G75*
G02*
X107250000Y-32875000I237500J0D01*
G01*
X107750000Y-32875000D01*
G75*
G02*
X107987500Y-33112500I0J-237500D01*
G01*
G37*
%TD*%
M02*
