M48
; DRILL file {KiCad 5.99.0+really5.1.10+dfsg1-1} date Wed Feb 16 20:00:22 2022
; FORMAT={-:-/ absolute / metric / decimal}
; #@! TF.CreationDate,2022-02-16T20:00:22+00:00
; #@! TF.GenerationSoftware,Kicad,Pcbnew,5.99.0+really5.1.10+dfsg1-1
; #@! TF.FileFunction,Plated,1,2,PTH
FMAT,2
METRIC
T1C0.400
T2C0.500
T3C0.762
T4C0.800
T5C1.000
T6C3.200
%
G90
G05
T1
X49.53Y-63.5
X52.07Y-63.5
X66.04Y-39.37
X67.581Y-70.95
X95.0Y-33.5
X96.52Y-57.15
X99.06Y-44.45
X99.06Y-46.99
X103.65Y-33.35
X107.95Y-68.58
X110.49Y-68.58
T2
X27.94Y-46.99
X28.08Y-30.48
X28.08Y-71.12
X28.783Y-28.783
X28.783Y-32.177
X28.783Y-69.423
X28.783Y-72.817
X30.48Y-28.08
X30.48Y-32.88
X30.48Y-68.72
X30.48Y-73.52
X32.177Y-28.783
X32.177Y-32.177
X32.177Y-69.423
X32.177Y-72.817
X32.88Y-30.48
X32.88Y-71.12
X35.56Y-31.75
X43.18Y-59.69
X97.79Y-64.77
X116.98Y-30.48
X116.98Y-71.12
X117.683Y-28.783
X117.683Y-32.177
X117.683Y-69.423
X117.683Y-72.817
X119.38Y-28.08
X119.38Y-32.88
X119.38Y-68.72
X119.38Y-73.52
X121.077Y-28.783
X121.077Y-32.177
X121.077Y-69.423
X121.077Y-72.817
X121.78Y-30.48
X121.78Y-71.12
T3
X35.13Y-40.26
X35.13Y-42.26
X35.13Y-44.26
X35.13Y-46.26
X35.13Y-48.26
X35.13Y-50.26
X35.13Y-52.26
X35.13Y-54.26
X35.13Y-56.26
X38.24Y-28.26
X38.24Y-68.26
X55.74Y-28.26
X55.74Y-68.26
X62.23Y-30.48
X62.23Y-33.02
X62.23Y-35.56
X62.23Y-38.1
X62.23Y-40.64
X62.23Y-43.18
X62.23Y-45.72
X62.23Y-48.26
X62.23Y-50.8
X62.23Y-53.34
X62.23Y-55.88
X62.23Y-58.42
X62.23Y-60.96
X62.23Y-63.5
X62.23Y-66.04
X87.63Y-30.48
X87.63Y-33.02
X87.63Y-35.56
X87.63Y-38.1
X87.63Y-40.64
X87.63Y-43.18
X87.63Y-45.72
X87.63Y-48.26
X87.63Y-50.8
X87.63Y-53.34
X87.63Y-55.88
X87.63Y-58.42
X87.63Y-60.96
X87.63Y-63.5
X87.63Y-66.04
X114.73Y-40.26
X114.73Y-42.26
X114.73Y-44.26
X114.73Y-46.26
X114.73Y-48.26
X114.73Y-50.26
X114.73Y-52.26
X114.73Y-54.26
X114.73Y-56.26
T4
X104.1Y-28.9
X107.5Y-28.9
T5
X29.21Y-49.53
X29.21Y-52.07
X36.83Y-72.39
X39.37Y-72.39
X41.91Y-72.39
X44.45Y-72.39
X60.96Y-72.39
X63.5Y-72.39
X66.04Y-72.39
X68.58Y-72.39
X71.12Y-72.39
X73.66Y-72.39
X76.2Y-72.39
X78.74Y-72.39
X81.28Y-72.39
X83.82Y-72.39
X86.36Y-72.39
X88.9Y-72.39
X105.41Y-72.39
X107.95Y-72.39
X110.49Y-72.39
X110.56Y-28.9
X113.03Y-72.39
X113.1Y-28.9
T6
X30.48Y-30.48
X30.48Y-71.12
X119.38Y-30.48
X119.38Y-71.12
T0
M30
