%TF.GenerationSoftware,KiCad,Pcbnew,5.99.0+really5.1.10+dfsg1-1*%
%TF.CreationDate,2022-02-16T20:05:08+00:00*%
%TF.ProjectId,lcd,6c63642e-6b69-4636-9164-5f7063625858,rev?*%
%TF.SameCoordinates,Original*%
%TF.FileFunction,Legend,Top*%
%TF.FilePolarity,Positive*%
%FSLAX46Y46*%
G04 Gerber Fmt 4.6, Leading zero omitted, Abs format (unit mm)*
G04 Created by KiCad (PCBNEW 5.99.0+really5.1.10+dfsg1-1) date 2022-02-16 20:05:08*
%MOMM*%
%LPD*%
G01*
G04 APERTURE LIST*
%ADD10C,0.150000*%
%ADD11C,0.120000*%
%ADD12C,1.500000*%
%ADD13C,1.524000*%
%ADD14C,0.800000*%
%ADD15C,6.400000*%
%ADD16R,1.500000X1.000000*%
%ADD17R,1.000000X1.500000*%
%ADD18R,1.700000X1.700000*%
%ADD19O,1.700000X1.700000*%
%ADD20R,1.900000X0.800000*%
G04 APERTURE END LIST*
D10*
X105109523Y-26852380D02*
X104633333Y-26852380D01*
X104633333Y-25852380D01*
X105442857Y-26852380D02*
X105442857Y-25852380D01*
X105680952Y-25852380D01*
X105823809Y-25900000D01*
X105919047Y-25995238D01*
X105966666Y-26090476D01*
X106014285Y-26280952D01*
X106014285Y-26423809D01*
X105966666Y-26614285D01*
X105919047Y-26709523D01*
X105823809Y-26804761D01*
X105680952Y-26852380D01*
X105442857Y-26852380D01*
X107014285Y-26852380D02*
X106680952Y-26376190D01*
X106442857Y-26852380D02*
X106442857Y-25852380D01*
X106823809Y-25852380D01*
X106919047Y-25900000D01*
X106966666Y-25947619D01*
X107014285Y-26042857D01*
X107014285Y-26185714D01*
X106966666Y-26280952D01*
X106919047Y-26328571D01*
X106823809Y-26376190D01*
X106442857Y-26376190D01*
X110630952Y-26902380D02*
X110154761Y-26902380D01*
X110154761Y-25902380D01*
X110964285Y-26902380D02*
X110964285Y-26235714D01*
X110964285Y-25902380D02*
X110916666Y-25950000D01*
X110964285Y-25997619D01*
X111011904Y-25950000D01*
X110964285Y-25902380D01*
X110964285Y-25997619D01*
X111869047Y-26235714D02*
X111869047Y-27045238D01*
X111821428Y-27140476D01*
X111773809Y-27188095D01*
X111678571Y-27235714D01*
X111535714Y-27235714D01*
X111440476Y-27188095D01*
X111869047Y-26854761D02*
X111773809Y-26902380D01*
X111583333Y-26902380D01*
X111488095Y-26854761D01*
X111440476Y-26807142D01*
X111392857Y-26711904D01*
X111392857Y-26426190D01*
X111440476Y-26330952D01*
X111488095Y-26283333D01*
X111583333Y-26235714D01*
X111773809Y-26235714D01*
X111869047Y-26283333D01*
X112345238Y-26902380D02*
X112345238Y-25902380D01*
X112773809Y-26902380D02*
X112773809Y-26378571D01*
X112726190Y-26283333D01*
X112630952Y-26235714D01*
X112488095Y-26235714D01*
X112392857Y-26283333D01*
X112345238Y-26330952D01*
X113107142Y-26235714D02*
X113488095Y-26235714D01*
X113250000Y-25902380D02*
X113250000Y-26759523D01*
X113297619Y-26854761D01*
X113392857Y-26902380D01*
X113488095Y-26902380D01*
X74574447Y-47467828D02*
X75336352Y-47467828D01*
X74955400Y-47848780D02*
X74955400Y-47086876D01*
X90051190Y-26852571D02*
X90194047Y-26900190D01*
X90241666Y-26947809D01*
X90289285Y-27043047D01*
X90289285Y-27185904D01*
X90241666Y-27281142D01*
X90194047Y-27328761D01*
X90098809Y-27376380D01*
X89717857Y-27376380D01*
X89717857Y-26376380D01*
X90051190Y-26376380D01*
X90146428Y-26424000D01*
X90194047Y-26471619D01*
X90241666Y-26566857D01*
X90241666Y-26662095D01*
X90194047Y-26757333D01*
X90146428Y-26804952D01*
X90051190Y-26852571D01*
X89717857Y-26852571D01*
X90622619Y-26709714D02*
X90860714Y-27376380D01*
X91098809Y-26709714D02*
X90860714Y-27376380D01*
X90765476Y-27614476D01*
X90717857Y-27662095D01*
X90622619Y-27709714D01*
X91479761Y-26709714D02*
X91479761Y-27709714D01*
X91479761Y-26757333D02*
X91575000Y-26709714D01*
X91765476Y-26709714D01*
X91860714Y-26757333D01*
X91908333Y-26804952D01*
X91955952Y-26900190D01*
X91955952Y-27185904D01*
X91908333Y-27281142D01*
X91860714Y-27328761D01*
X91765476Y-27376380D01*
X91575000Y-27376380D01*
X91479761Y-27328761D01*
X92813095Y-27376380D02*
X92813095Y-26852571D01*
X92765476Y-26757333D01*
X92670238Y-26709714D01*
X92479761Y-26709714D01*
X92384523Y-26757333D01*
X92813095Y-27328761D02*
X92717857Y-27376380D01*
X92479761Y-27376380D01*
X92384523Y-27328761D01*
X92336904Y-27233523D01*
X92336904Y-27138285D01*
X92384523Y-27043047D01*
X92479761Y-26995428D01*
X92717857Y-26995428D01*
X92813095Y-26947809D01*
X93241666Y-27328761D02*
X93336904Y-27376380D01*
X93527380Y-27376380D01*
X93622619Y-27328761D01*
X93670238Y-27233523D01*
X93670238Y-27185904D01*
X93622619Y-27090666D01*
X93527380Y-27043047D01*
X93384523Y-27043047D01*
X93289285Y-26995428D01*
X93241666Y-26900190D01*
X93241666Y-26852571D01*
X93289285Y-26757333D01*
X93384523Y-26709714D01*
X93527380Y-26709714D01*
X93622619Y-26757333D01*
X94051190Y-27328761D02*
X94146428Y-27376380D01*
X94336904Y-27376380D01*
X94432142Y-27328761D01*
X94479761Y-27233523D01*
X94479761Y-27185904D01*
X94432142Y-27090666D01*
X94336904Y-27043047D01*
X94194047Y-27043047D01*
X94098809Y-26995428D01*
X94051190Y-26900190D01*
X94051190Y-26852571D01*
X94098809Y-26757333D01*
X94194047Y-26709714D01*
X94336904Y-26709714D01*
X94432142Y-26757333D01*
X108243809Y-70175380D02*
X108243809Y-69175380D01*
X108672380Y-69270619D02*
X108720000Y-69223000D01*
X108815238Y-69175380D01*
X109053333Y-69175380D01*
X109148571Y-69223000D01*
X109196190Y-69270619D01*
X109243809Y-69365857D01*
X109243809Y-69461095D01*
X109196190Y-69603952D01*
X108624761Y-70175380D01*
X109243809Y-70175380D01*
X110243809Y-70080142D02*
X110196190Y-70127761D01*
X110053333Y-70175380D01*
X109958095Y-70175380D01*
X109815238Y-70127761D01*
X109720000Y-70032523D01*
X109672380Y-69937285D01*
X109624761Y-69746809D01*
X109624761Y-69603952D01*
X109672380Y-69413476D01*
X109720000Y-69318238D01*
X109815238Y-69223000D01*
X109958095Y-69175380D01*
X110053333Y-69175380D01*
X110196190Y-69223000D01*
X110243809Y-69270619D01*
X112530000Y-75564904D02*
X112482380Y-75660142D01*
X112482380Y-75803000D01*
X112530000Y-75945857D01*
X112625238Y-76041095D01*
X112720476Y-76088714D01*
X112910952Y-76136333D01*
X113053809Y-76136333D01*
X113244285Y-76088714D01*
X113339523Y-76041095D01*
X113434761Y-75945857D01*
X113482380Y-75803000D01*
X113482380Y-75707761D01*
X113434761Y-75564904D01*
X113387142Y-75517285D01*
X113053809Y-75517285D01*
X113053809Y-75707761D01*
X113482380Y-75088714D02*
X112482380Y-75088714D01*
X113482380Y-74517285D01*
X112482380Y-74517285D01*
X113482380Y-74041095D02*
X112482380Y-74041095D01*
X112482380Y-73803000D01*
X112530000Y-73660142D01*
X112625238Y-73564904D01*
X112720476Y-73517285D01*
X112910952Y-73469666D01*
X113053809Y-73469666D01*
X113244285Y-73517285D01*
X113339523Y-73564904D01*
X113434761Y-73660142D01*
X113482380Y-73803000D01*
X113482380Y-74041095D01*
X110974142Y-75398238D02*
X111021761Y-75445857D01*
X111069380Y-75588714D01*
X111069380Y-75683952D01*
X111021761Y-75826809D01*
X110926523Y-75922047D01*
X110831285Y-75969666D01*
X110640809Y-76017285D01*
X110497952Y-76017285D01*
X110307476Y-75969666D01*
X110212238Y-75922047D01*
X110117000Y-75826809D01*
X110069380Y-75683952D01*
X110069380Y-75588714D01*
X110117000Y-75445857D01*
X110164619Y-75398238D01*
X111069380Y-74493476D02*
X111069380Y-74969666D01*
X110069380Y-74969666D01*
X111069380Y-74160142D02*
X110069380Y-74160142D01*
X111069380Y-73588714D02*
X110497952Y-74017285D01*
X110069380Y-73588714D02*
X110640809Y-74160142D01*
X108402380Y-75874428D02*
X107402380Y-75874428D01*
X107402380Y-75636333D01*
X107450000Y-75493476D01*
X107545238Y-75398238D01*
X107640476Y-75350619D01*
X107830952Y-75303000D01*
X107973809Y-75303000D01*
X108164285Y-75350619D01*
X108259523Y-75398238D01*
X108354761Y-75493476D01*
X108402380Y-75636333D01*
X108402380Y-75874428D01*
X107402380Y-75017285D02*
X107402380Y-74445857D01*
X108402380Y-74731571D02*
X107402380Y-74731571D01*
X108116666Y-74160142D02*
X108116666Y-73683952D01*
X108402380Y-74255380D02*
X107402380Y-73922047D01*
X108402380Y-73588714D01*
X104862380Y-76041095D02*
X104862380Y-75422047D01*
X105243333Y-75755380D01*
X105243333Y-75612523D01*
X105290952Y-75517285D01*
X105338571Y-75469666D01*
X105433809Y-75422047D01*
X105671904Y-75422047D01*
X105767142Y-75469666D01*
X105814761Y-75517285D01*
X105862380Y-75612523D01*
X105862380Y-75898238D01*
X105814761Y-75993476D01*
X105767142Y-76041095D01*
X104862380Y-75136333D02*
X105862380Y-74803000D01*
X104862380Y-74469666D01*
X104862380Y-74231571D02*
X104862380Y-73612523D01*
X105243333Y-73945857D01*
X105243333Y-73803000D01*
X105290952Y-73707761D01*
X105338571Y-73660142D01*
X105433809Y-73612523D01*
X105671904Y-73612523D01*
X105767142Y-73660142D01*
X105814761Y-73707761D01*
X105862380Y-73803000D01*
X105862380Y-74088714D01*
X105814761Y-74183952D01*
X105767142Y-74231571D01*
X88527000Y-75564904D02*
X88479380Y-75660142D01*
X88479380Y-75803000D01*
X88527000Y-75945857D01*
X88622238Y-76041095D01*
X88717476Y-76088714D01*
X88907952Y-76136333D01*
X89050809Y-76136333D01*
X89241285Y-76088714D01*
X89336523Y-76041095D01*
X89431761Y-75945857D01*
X89479380Y-75803000D01*
X89479380Y-75707761D01*
X89431761Y-75564904D01*
X89384142Y-75517285D01*
X89050809Y-75517285D01*
X89050809Y-75707761D01*
X89479380Y-75088714D02*
X88479380Y-75088714D01*
X89479380Y-74517285D01*
X88479380Y-74517285D01*
X89479380Y-74041095D02*
X88479380Y-74041095D01*
X88479380Y-73803000D01*
X88527000Y-73660142D01*
X88622238Y-73564904D01*
X88717476Y-73517285D01*
X88907952Y-73469666D01*
X89050809Y-73469666D01*
X89241285Y-73517285D01*
X89336523Y-73564904D01*
X89431761Y-73660142D01*
X89479380Y-73803000D01*
X89479380Y-74041095D01*
X86812380Y-76017285D02*
X85812380Y-76017285D01*
X85812380Y-75779190D01*
X85860000Y-75636333D01*
X85955238Y-75541095D01*
X86050476Y-75493476D01*
X86240952Y-75445857D01*
X86383809Y-75445857D01*
X86574285Y-75493476D01*
X86669523Y-75541095D01*
X86764761Y-75636333D01*
X86812380Y-75779190D01*
X86812380Y-76017285D01*
X86812380Y-74493476D02*
X86812380Y-75064904D01*
X86812380Y-74779190D02*
X85812380Y-74779190D01*
X85955238Y-74874428D01*
X86050476Y-74969666D01*
X86098095Y-75064904D01*
X86812380Y-74017285D02*
X86812380Y-73826809D01*
X86764761Y-73731571D01*
X86717142Y-73683952D01*
X86574285Y-73588714D01*
X86383809Y-73541095D01*
X86002857Y-73541095D01*
X85907619Y-73588714D01*
X85860000Y-73636333D01*
X85812380Y-73731571D01*
X85812380Y-73922047D01*
X85860000Y-74017285D01*
X85907619Y-74064904D01*
X86002857Y-74112523D01*
X86240952Y-74112523D01*
X86336190Y-74064904D01*
X86383809Y-74017285D01*
X86431428Y-73922047D01*
X86431428Y-73731571D01*
X86383809Y-73636333D01*
X86336190Y-73588714D01*
X86240952Y-73541095D01*
X84272380Y-76017285D02*
X83272380Y-76017285D01*
X83272380Y-75779190D01*
X83320000Y-75636333D01*
X83415238Y-75541095D01*
X83510476Y-75493476D01*
X83700952Y-75445857D01*
X83843809Y-75445857D01*
X84034285Y-75493476D01*
X84129523Y-75541095D01*
X84224761Y-75636333D01*
X84272380Y-75779190D01*
X84272380Y-76017285D01*
X84272380Y-74493476D02*
X84272380Y-75064904D01*
X84272380Y-74779190D02*
X83272380Y-74779190D01*
X83415238Y-74874428D01*
X83510476Y-74969666D01*
X83558095Y-75064904D01*
X83272380Y-74160142D02*
X83272380Y-73541095D01*
X83653333Y-73874428D01*
X83653333Y-73731571D01*
X83700952Y-73636333D01*
X83748571Y-73588714D01*
X83843809Y-73541095D01*
X84081904Y-73541095D01*
X84177142Y-73588714D01*
X84224761Y-73636333D01*
X84272380Y-73731571D01*
X84272380Y-74017285D01*
X84224761Y-74112523D01*
X84177142Y-74160142D01*
X81859380Y-76017285D02*
X80859380Y-76017285D01*
X80859380Y-75779190D01*
X80907000Y-75636333D01*
X81002238Y-75541095D01*
X81097476Y-75493476D01*
X81287952Y-75445857D01*
X81430809Y-75445857D01*
X81621285Y-75493476D01*
X81716523Y-75541095D01*
X81811761Y-75636333D01*
X81859380Y-75779190D01*
X81859380Y-76017285D01*
X81859380Y-74493476D02*
X81859380Y-75064904D01*
X81859380Y-74779190D02*
X80859380Y-74779190D01*
X81002238Y-74874428D01*
X81097476Y-74969666D01*
X81145095Y-75064904D01*
X81192714Y-73636333D02*
X81859380Y-73636333D01*
X80811761Y-73874428D02*
X81526047Y-74112523D01*
X81526047Y-73493476D01*
X79319380Y-76017285D02*
X78319380Y-76017285D01*
X78319380Y-75779190D01*
X78367000Y-75636333D01*
X78462238Y-75541095D01*
X78557476Y-75493476D01*
X78747952Y-75445857D01*
X78890809Y-75445857D01*
X79081285Y-75493476D01*
X79176523Y-75541095D01*
X79271761Y-75636333D01*
X79319380Y-75779190D01*
X79319380Y-76017285D01*
X78414619Y-75064904D02*
X78367000Y-75017285D01*
X78319380Y-74922047D01*
X78319380Y-74683952D01*
X78367000Y-74588714D01*
X78414619Y-74541095D01*
X78509857Y-74493476D01*
X78605095Y-74493476D01*
X78747952Y-74541095D01*
X79319380Y-75112523D01*
X79319380Y-74493476D01*
X78319380Y-74160142D02*
X78319380Y-73493476D01*
X79319380Y-73922047D01*
X76652380Y-76017285D02*
X75652380Y-76017285D01*
X75652380Y-75779190D01*
X75700000Y-75636333D01*
X75795238Y-75541095D01*
X75890476Y-75493476D01*
X76080952Y-75445857D01*
X76223809Y-75445857D01*
X76414285Y-75493476D01*
X76509523Y-75541095D01*
X76604761Y-75636333D01*
X76652380Y-75779190D01*
X76652380Y-76017285D01*
X75747619Y-75064904D02*
X75700000Y-75017285D01*
X75652380Y-74922047D01*
X75652380Y-74683952D01*
X75700000Y-74588714D01*
X75747619Y-74541095D01*
X75842857Y-74493476D01*
X75938095Y-74493476D01*
X76080952Y-74541095D01*
X76652380Y-75112523D01*
X76652380Y-74493476D01*
X75652380Y-73636333D02*
X75652380Y-73826809D01*
X75700000Y-73922047D01*
X75747619Y-73969666D01*
X75890476Y-74064904D01*
X76080952Y-74112523D01*
X76461904Y-74112523D01*
X76557142Y-74064904D01*
X76604761Y-74017285D01*
X76652380Y-73922047D01*
X76652380Y-73731571D01*
X76604761Y-73636333D01*
X76557142Y-73588714D01*
X76461904Y-73541095D01*
X76223809Y-73541095D01*
X76128571Y-73588714D01*
X76080952Y-73636333D01*
X76033333Y-73731571D01*
X76033333Y-73922047D01*
X76080952Y-74017285D01*
X76128571Y-74064904D01*
X76223809Y-74112523D01*
X74239380Y-76017285D02*
X73239380Y-76017285D01*
X73239380Y-75779190D01*
X73287000Y-75636333D01*
X73382238Y-75541095D01*
X73477476Y-75493476D01*
X73667952Y-75445857D01*
X73810809Y-75445857D01*
X74001285Y-75493476D01*
X74096523Y-75541095D01*
X74191761Y-75636333D01*
X74239380Y-75779190D01*
X74239380Y-76017285D01*
X73334619Y-75064904D02*
X73287000Y-75017285D01*
X73239380Y-74922047D01*
X73239380Y-74683952D01*
X73287000Y-74588714D01*
X73334619Y-74541095D01*
X73429857Y-74493476D01*
X73525095Y-74493476D01*
X73667952Y-74541095D01*
X74239380Y-75112523D01*
X74239380Y-74493476D01*
X73239380Y-73588714D02*
X73239380Y-74064904D01*
X73715571Y-74112523D01*
X73667952Y-74064904D01*
X73620333Y-73969666D01*
X73620333Y-73731571D01*
X73667952Y-73636333D01*
X73715571Y-73588714D01*
X73810809Y-73541095D01*
X74048904Y-73541095D01*
X74144142Y-73588714D01*
X74191761Y-73636333D01*
X74239380Y-73731571D01*
X74239380Y-73969666D01*
X74191761Y-74064904D01*
X74144142Y-74112523D01*
X71699380Y-76017285D02*
X70699380Y-76017285D01*
X70699380Y-75779190D01*
X70747000Y-75636333D01*
X70842238Y-75541095D01*
X70937476Y-75493476D01*
X71127952Y-75445857D01*
X71270809Y-75445857D01*
X71461285Y-75493476D01*
X71556523Y-75541095D01*
X71651761Y-75636333D01*
X71699380Y-75779190D01*
X71699380Y-76017285D01*
X70699380Y-75112523D02*
X70699380Y-74493476D01*
X71080333Y-74826809D01*
X71080333Y-74683952D01*
X71127952Y-74588714D01*
X71175571Y-74541095D01*
X71270809Y-74493476D01*
X71508904Y-74493476D01*
X71604142Y-74541095D01*
X71651761Y-74588714D01*
X71699380Y-74683952D01*
X71699380Y-74969666D01*
X71651761Y-75064904D01*
X71604142Y-75112523D01*
X70699380Y-74160142D02*
X70699380Y-73541095D01*
X71080333Y-73874428D01*
X71080333Y-73731571D01*
X71127952Y-73636333D01*
X71175571Y-73588714D01*
X71270809Y-73541095D01*
X71508904Y-73541095D01*
X71604142Y-73588714D01*
X71651761Y-73636333D01*
X71699380Y-73731571D01*
X71699380Y-74017285D01*
X71651761Y-74112523D01*
X71604142Y-74160142D01*
X69032380Y-76017285D02*
X68032380Y-76017285D01*
X68032380Y-75779190D01*
X68080000Y-75636333D01*
X68175238Y-75541095D01*
X68270476Y-75493476D01*
X68460952Y-75445857D01*
X68603809Y-75445857D01*
X68794285Y-75493476D01*
X68889523Y-75541095D01*
X68984761Y-75636333D01*
X69032380Y-75779190D01*
X69032380Y-76017285D01*
X68032380Y-75112523D02*
X68032380Y-74493476D01*
X68413333Y-74826809D01*
X68413333Y-74683952D01*
X68460952Y-74588714D01*
X68508571Y-74541095D01*
X68603809Y-74493476D01*
X68841904Y-74493476D01*
X68937142Y-74541095D01*
X68984761Y-74588714D01*
X69032380Y-74683952D01*
X69032380Y-74969666D01*
X68984761Y-75064904D01*
X68937142Y-75112523D01*
X68127619Y-74112523D02*
X68080000Y-74064904D01*
X68032380Y-73969666D01*
X68032380Y-73731571D01*
X68080000Y-73636333D01*
X68127619Y-73588714D01*
X68222857Y-73541095D01*
X68318095Y-73541095D01*
X68460952Y-73588714D01*
X69032380Y-74160142D01*
X69032380Y-73541095D01*
X66619380Y-75445857D02*
X66619380Y-75922047D01*
X65619380Y-75922047D01*
X66095571Y-75112523D02*
X66095571Y-74779190D01*
X66619380Y-74636333D02*
X66619380Y-75112523D01*
X65619380Y-75112523D01*
X65619380Y-74636333D01*
X66619380Y-74207761D02*
X65619380Y-74207761D01*
X65619380Y-73969666D01*
X65667000Y-73826809D01*
X65762238Y-73731571D01*
X65857476Y-73683952D01*
X66047952Y-73636333D01*
X66190809Y-73636333D01*
X66381285Y-73683952D01*
X66476523Y-73731571D01*
X66571761Y-73826809D01*
X66619380Y-73969666D01*
X66619380Y-74207761D01*
X63079380Y-75914095D02*
X63079380Y-75295047D01*
X63460333Y-75628380D01*
X63460333Y-75485523D01*
X63507952Y-75390285D01*
X63555571Y-75342666D01*
X63650809Y-75295047D01*
X63888904Y-75295047D01*
X63984142Y-75342666D01*
X64031761Y-75390285D01*
X64079380Y-75485523D01*
X64079380Y-75771238D01*
X64031761Y-75866476D01*
X63984142Y-75914095D01*
X63079380Y-75009333D02*
X64079380Y-74676000D01*
X63079380Y-74342666D01*
X63079380Y-74104571D02*
X63079380Y-73485523D01*
X63460333Y-73818857D01*
X63460333Y-73676000D01*
X63507952Y-73580761D01*
X63555571Y-73533142D01*
X63650809Y-73485523D01*
X63888904Y-73485523D01*
X63984142Y-73533142D01*
X64031761Y-73580761D01*
X64079380Y-73676000D01*
X64079380Y-73961714D01*
X64031761Y-74056952D01*
X63984142Y-74104571D01*
X60412380Y-74993476D02*
X60412380Y-75469666D01*
X60888571Y-75517285D01*
X60840952Y-75469666D01*
X60793333Y-75374428D01*
X60793333Y-75136333D01*
X60840952Y-75041095D01*
X60888571Y-74993476D01*
X60983809Y-74945857D01*
X61221904Y-74945857D01*
X61317142Y-74993476D01*
X61364761Y-75041095D01*
X61412380Y-75136333D01*
X61412380Y-75374428D01*
X61364761Y-75469666D01*
X61317142Y-75517285D01*
X60412380Y-74660142D02*
X61412380Y-74326809D01*
X60412380Y-73993476D01*
X43950000Y-75564904D02*
X43902380Y-75660142D01*
X43902380Y-75803000D01*
X43950000Y-75945857D01*
X44045238Y-76041095D01*
X44140476Y-76088714D01*
X44330952Y-76136333D01*
X44473809Y-76136333D01*
X44664285Y-76088714D01*
X44759523Y-76041095D01*
X44854761Y-75945857D01*
X44902380Y-75803000D01*
X44902380Y-75707761D01*
X44854761Y-75564904D01*
X44807142Y-75517285D01*
X44473809Y-75517285D01*
X44473809Y-75707761D01*
X44902380Y-75088714D02*
X43902380Y-75088714D01*
X44902380Y-74517285D01*
X43902380Y-74517285D01*
X44902380Y-74041095D02*
X43902380Y-74041095D01*
X43902380Y-73803000D01*
X43950000Y-73660142D01*
X44045238Y-73564904D01*
X44140476Y-73517285D01*
X44330952Y-73469666D01*
X44473809Y-73469666D01*
X44664285Y-73517285D01*
X44759523Y-73564904D01*
X44854761Y-73660142D01*
X44902380Y-73803000D01*
X44902380Y-74041095D01*
X42362380Y-75334761D02*
X41886190Y-75668095D01*
X42362380Y-75906190D02*
X41362380Y-75906190D01*
X41362380Y-75525238D01*
X41410000Y-75430000D01*
X41457619Y-75382380D01*
X41552857Y-75334761D01*
X41695714Y-75334761D01*
X41790952Y-75382380D01*
X41838571Y-75430000D01*
X41886190Y-75525238D01*
X41886190Y-75906190D01*
X41362380Y-75001428D02*
X42362380Y-74334761D01*
X41362380Y-74334761D02*
X42362380Y-75001428D01*
X42362380Y-73953809D02*
X41362380Y-73953809D01*
X38822380Y-75961714D02*
X38822380Y-75390285D01*
X39822380Y-75676000D02*
X38822380Y-75676000D01*
X38822380Y-75152190D02*
X39822380Y-74485523D01*
X38822380Y-74485523D02*
X39822380Y-75152190D01*
X38822380Y-73914095D02*
X38822380Y-73723619D01*
X38870000Y-73628380D01*
X38965238Y-73533142D01*
X39155714Y-73485523D01*
X39489047Y-73485523D01*
X39679523Y-73533142D01*
X39774761Y-73628380D01*
X39822380Y-73723619D01*
X39822380Y-73914095D01*
X39774761Y-74009333D01*
X39679523Y-74104571D01*
X39489047Y-74152190D01*
X39155714Y-74152190D01*
X38965238Y-74104571D01*
X38870000Y-74009333D01*
X38822380Y-73914095D01*
X36282380Y-75914095D02*
X36282380Y-75295047D01*
X36663333Y-75628380D01*
X36663333Y-75485523D01*
X36710952Y-75390285D01*
X36758571Y-75342666D01*
X36853809Y-75295047D01*
X37091904Y-75295047D01*
X37187142Y-75342666D01*
X37234761Y-75390285D01*
X37282380Y-75485523D01*
X37282380Y-75771238D01*
X37234761Y-75866476D01*
X37187142Y-75914095D01*
X36282380Y-75009333D02*
X37282380Y-74676000D01*
X36282380Y-74342666D01*
X36282380Y-74104571D02*
X36282380Y-73485523D01*
X36663333Y-73818857D01*
X36663333Y-73676000D01*
X36710952Y-73580761D01*
X36758571Y-73533142D01*
X36853809Y-73485523D01*
X37091904Y-73485523D01*
X37187142Y-73533142D01*
X37234761Y-73580761D01*
X37282380Y-73676000D01*
X37282380Y-73961714D01*
X37234761Y-74056952D01*
X37187142Y-74104571D01*
X38663809Y-70762761D02*
X38806666Y-70810380D01*
X39044761Y-70810380D01*
X39140000Y-70762761D01*
X39187619Y-70715142D01*
X39235238Y-70619904D01*
X39235238Y-70524666D01*
X39187619Y-70429428D01*
X39140000Y-70381809D01*
X39044761Y-70334190D01*
X38854285Y-70286571D01*
X38759047Y-70238952D01*
X38711428Y-70191333D01*
X38663809Y-70096095D01*
X38663809Y-70000857D01*
X38711428Y-69905619D01*
X38759047Y-69858000D01*
X38854285Y-69810380D01*
X39092380Y-69810380D01*
X39235238Y-69858000D01*
X40044761Y-70762761D02*
X39949523Y-70810380D01*
X39759047Y-70810380D01*
X39663809Y-70762761D01*
X39616190Y-70667523D01*
X39616190Y-70286571D01*
X39663809Y-70191333D01*
X39759047Y-70143714D01*
X39949523Y-70143714D01*
X40044761Y-70191333D01*
X40092380Y-70286571D01*
X40092380Y-70381809D01*
X39616190Y-70477047D01*
X40520952Y-70810380D02*
X40520952Y-70143714D01*
X40520952Y-70334190D02*
X40568571Y-70238952D01*
X40616190Y-70191333D01*
X40711428Y-70143714D01*
X40806666Y-70143714D01*
X41140000Y-70810380D02*
X41140000Y-70143714D01*
X41140000Y-69810380D02*
X41092380Y-69858000D01*
X41140000Y-69905619D01*
X41187619Y-69858000D01*
X41140000Y-69810380D01*
X41140000Y-69905619D01*
X42044761Y-70810380D02*
X42044761Y-70286571D01*
X41997142Y-70191333D01*
X41901904Y-70143714D01*
X41711428Y-70143714D01*
X41616190Y-70191333D01*
X42044761Y-70762761D02*
X41949523Y-70810380D01*
X41711428Y-70810380D01*
X41616190Y-70762761D01*
X41568571Y-70667523D01*
X41568571Y-70572285D01*
X41616190Y-70477047D01*
X41711428Y-70429428D01*
X41949523Y-70429428D01*
X42044761Y-70381809D01*
X42663809Y-70810380D02*
X42568571Y-70762761D01*
X42520952Y-70667523D01*
X42520952Y-69810380D01*
X26868380Y-52903190D02*
X25868380Y-52903190D01*
X25868380Y-52522238D01*
X25916000Y-52427000D01*
X25963619Y-52379380D01*
X26058857Y-52331761D01*
X26201714Y-52331761D01*
X26296952Y-52379380D01*
X26344571Y-52427000D01*
X26392190Y-52522238D01*
X26392190Y-52903190D01*
X26868380Y-51760333D02*
X26820761Y-51855571D01*
X26773142Y-51903190D01*
X26677904Y-51950809D01*
X26392190Y-51950809D01*
X26296952Y-51903190D01*
X26249333Y-51855571D01*
X26201714Y-51760333D01*
X26201714Y-51617476D01*
X26249333Y-51522238D01*
X26296952Y-51474619D01*
X26392190Y-51427000D01*
X26677904Y-51427000D01*
X26773142Y-51474619D01*
X26820761Y-51522238D01*
X26868380Y-51617476D01*
X26868380Y-51760333D01*
X26201714Y-51093666D02*
X26868380Y-50903190D01*
X26392190Y-50712714D01*
X26868380Y-50522238D01*
X26201714Y-50331761D01*
X26820761Y-49569857D02*
X26868380Y-49665095D01*
X26868380Y-49855571D01*
X26820761Y-49950809D01*
X26725523Y-49998428D01*
X26344571Y-49998428D01*
X26249333Y-49950809D01*
X26201714Y-49855571D01*
X26201714Y-49665095D01*
X26249333Y-49569857D01*
X26344571Y-49522238D01*
X26439809Y-49522238D01*
X26535047Y-49998428D01*
X26868380Y-49093666D02*
X26201714Y-49093666D01*
X26392190Y-49093666D02*
X26296952Y-49046047D01*
X26249333Y-48998428D01*
X26201714Y-48903190D01*
X26201714Y-48807952D01*
X31623095Y-51570000D02*
X31527857Y-51522380D01*
X31385000Y-51522380D01*
X31242142Y-51570000D01*
X31146904Y-51665238D01*
X31099285Y-51760476D01*
X31051666Y-51950952D01*
X31051666Y-52093809D01*
X31099285Y-52284285D01*
X31146904Y-52379523D01*
X31242142Y-52474761D01*
X31385000Y-52522380D01*
X31480238Y-52522380D01*
X31623095Y-52474761D01*
X31670714Y-52427142D01*
X31670714Y-52093809D01*
X31480238Y-52093809D01*
X32099285Y-52522380D02*
X32099285Y-51522380D01*
X32670714Y-52522380D01*
X32670714Y-51522380D01*
X33146904Y-52522380D02*
X33146904Y-51522380D01*
X33385000Y-51522380D01*
X33527857Y-51570000D01*
X33623095Y-51665238D01*
X33670714Y-51760476D01*
X33718333Y-51950952D01*
X33718333Y-52093809D01*
X33670714Y-52284285D01*
X33623095Y-52379523D01*
X33527857Y-52474761D01*
X33385000Y-52522380D01*
X33146904Y-52522380D01*
X31813523Y-48982380D02*
X31337333Y-48982380D01*
X31289714Y-49458571D01*
X31337333Y-49410952D01*
X31432571Y-49363333D01*
X31670666Y-49363333D01*
X31765904Y-49410952D01*
X31813523Y-49458571D01*
X31861142Y-49553809D01*
X31861142Y-49791904D01*
X31813523Y-49887142D01*
X31765904Y-49934761D01*
X31670666Y-49982380D01*
X31432571Y-49982380D01*
X31337333Y-49934761D01*
X31289714Y-49887142D01*
X32146857Y-48982380D02*
X32480190Y-49982380D01*
X32813523Y-48982380D01*
D11*
%TO.C,R2*%
X107350000Y-26750000D02*
X104300000Y-26750000D01*
X107350000Y-31050000D02*
X104300000Y-31050000D01*
X107328234Y-31065526D02*
G75*
G03*
X107350000Y-26750000I-1528234J2165526D01*
G01*
X104255487Y-26781751D02*
G75*
G03*
X104300000Y-31050000I1544513J-2118249D01*
G01*
%TO.C,U3*%
X115930000Y-67260000D02*
X115930000Y-32260000D01*
X33930000Y-67260000D02*
X115930000Y-67260000D01*
X33930000Y-32260000D02*
X33930000Y-67260000D01*
X115930000Y-32260000D02*
X33930000Y-32260000D01*
%TO.C,D1*%
X102710000Y-31960000D02*
X95410000Y-31960000D01*
X102710000Y-26460000D02*
X95410000Y-26460000D01*
X95410000Y-26460000D02*
X95410000Y-27610000D01*
%TO.C,D2*%
X123400000Y-38260000D02*
X122250000Y-38260000D01*
X123400000Y-45560000D02*
X123400000Y-38260000D01*
X117900000Y-45560000D02*
X117900000Y-38260000D01*
%TO.C,D3*%
X117900000Y-63340000D02*
X117900000Y-56040000D01*
X123400000Y-63340000D02*
X123400000Y-56040000D01*
X123400000Y-56040000D02*
X122250000Y-56040000D01*
%TO.C,D4*%
X102710000Y-75140000D02*
X102710000Y-73990000D01*
X95410000Y-75140000D02*
X102710000Y-75140000D01*
X95410000Y-69640000D02*
X102710000Y-69640000D01*
%TO.C,D5*%
X54450000Y-75140000D02*
X54450000Y-73990000D01*
X47150000Y-75140000D02*
X54450000Y-75140000D01*
X47150000Y-69640000D02*
X54450000Y-69640000D01*
%TO.C,D6*%
X31960000Y-56040000D02*
X31960000Y-63340000D01*
X26460000Y-56040000D02*
X26460000Y-63340000D01*
X26460000Y-63340000D02*
X27610000Y-63340000D01*
%TO.C,D7*%
X26460000Y-45560000D02*
X27610000Y-45560000D01*
X26460000Y-38260000D02*
X26460000Y-45560000D01*
X31960000Y-38260000D02*
X31960000Y-45560000D01*
%TO.C,D8*%
X54450000Y-31960000D02*
X47150000Y-31960000D01*
X54450000Y-26460000D02*
X47150000Y-26460000D01*
X47150000Y-26460000D02*
X47150000Y-27610000D01*
%TO.C,JP2*%
X93460000Y-30210000D02*
X90660000Y-30210000D01*
X90660000Y-30210000D02*
X90660000Y-28210000D01*
X90660000Y-28210000D02*
X93460000Y-28210000D01*
X93460000Y-28210000D02*
X93460000Y-30210000D01*
%TO.C,Q1*%
X38840000Y-58430000D02*
X40300000Y-58430000D01*
X38840000Y-61590000D02*
X42000000Y-61590000D01*
X38840000Y-61590000D02*
X38840000Y-60660000D01*
X38840000Y-58430000D02*
X38840000Y-59360000D01*
%TO.C,C1*%
X40337500Y-54581248D02*
X40337500Y-55103752D01*
X38867500Y-54581248D02*
X38867500Y-55103752D01*
%TO.C,C2*%
X97296248Y-68045000D02*
X97818752Y-68045000D01*
X97296248Y-66575000D02*
X97818752Y-66575000D01*
%TO.C,R1*%
X108667224Y-33872500D02*
X108157776Y-33872500D01*
X108667224Y-32827500D02*
X108157776Y-32827500D01*
%TO.C,J5*%
X114430000Y-30230000D02*
X114430000Y-27570000D01*
X111830000Y-30230000D02*
X114430000Y-30230000D01*
X111830000Y-27570000D02*
X114430000Y-27570000D01*
X111830000Y-30230000D02*
X111830000Y-27570000D01*
X110560000Y-30230000D02*
X109230000Y-30230000D01*
X109230000Y-30230000D02*
X109230000Y-28900000D01*
%TO.C,R2*%
D10*
X105633333Y-32252380D02*
X105300000Y-31776190D01*
X105061904Y-32252380D02*
X105061904Y-31252380D01*
X105442857Y-31252380D01*
X105538095Y-31300000D01*
X105585714Y-31347619D01*
X105633333Y-31442857D01*
X105633333Y-31585714D01*
X105585714Y-31680952D01*
X105538095Y-31728571D01*
X105442857Y-31776190D01*
X105061904Y-31776190D01*
X106014285Y-31347619D02*
X106061904Y-31300000D01*
X106157142Y-31252380D01*
X106395238Y-31252380D01*
X106490476Y-31300000D01*
X106538095Y-31347619D01*
X106585714Y-31442857D01*
X106585714Y-31538095D01*
X106538095Y-31680952D01*
X105966666Y-32252380D01*
X106585714Y-32252380D01*
%TO.C,U2*%
X84351904Y-30408571D02*
X84685238Y-30408571D01*
X84828095Y-30932380D02*
X84351904Y-30932380D01*
X84351904Y-29932380D01*
X84828095Y-29932380D01*
X85256666Y-30932380D02*
X85256666Y-29932380D01*
X85828095Y-30932380D01*
X85828095Y-29932380D01*
X84256666Y-32472380D02*
X84590000Y-33472380D01*
X84923333Y-32472380D01*
X85256666Y-33472380D02*
X85256666Y-32472380D01*
X85637619Y-32472380D01*
X85732857Y-32520000D01*
X85780476Y-32567619D01*
X85828095Y-32662857D01*
X85828095Y-32805714D01*
X85780476Y-32900952D01*
X85732857Y-32948571D01*
X85637619Y-32996190D01*
X85256666Y-32996190D01*
X84232857Y-35012380D02*
X84566190Y-36012380D01*
X84899523Y-35012380D01*
X85232857Y-36012380D02*
X85232857Y-35012380D01*
X85804285Y-36012380D01*
X85804285Y-35012380D01*
X83875714Y-38552380D02*
X83875714Y-37552380D01*
X84113809Y-37552380D01*
X84256666Y-37600000D01*
X84351904Y-37695238D01*
X84399523Y-37790476D01*
X84447142Y-37980952D01*
X84447142Y-38123809D01*
X84399523Y-38314285D01*
X84351904Y-38409523D01*
X84256666Y-38504761D01*
X84113809Y-38552380D01*
X83875714Y-38552380D01*
X84780476Y-37552380D02*
X85399523Y-37552380D01*
X85066190Y-37933333D01*
X85209047Y-37933333D01*
X85304285Y-37980952D01*
X85351904Y-38028571D01*
X85399523Y-38123809D01*
X85399523Y-38361904D01*
X85351904Y-38457142D01*
X85304285Y-38504761D01*
X85209047Y-38552380D01*
X84923333Y-38552380D01*
X84828095Y-38504761D01*
X84780476Y-38457142D01*
X86256666Y-37885714D02*
X86256666Y-38552380D01*
X86018571Y-37504761D02*
X85780476Y-38219047D01*
X86399523Y-38219047D01*
X83875714Y-41092380D02*
X83875714Y-40092380D01*
X84113809Y-40092380D01*
X84256666Y-40140000D01*
X84351904Y-40235238D01*
X84399523Y-40330476D01*
X84447142Y-40520952D01*
X84447142Y-40663809D01*
X84399523Y-40854285D01*
X84351904Y-40949523D01*
X84256666Y-41044761D01*
X84113809Y-41092380D01*
X83875714Y-41092380D01*
X84780476Y-40092380D02*
X85399523Y-40092380D01*
X85066190Y-40473333D01*
X85209047Y-40473333D01*
X85304285Y-40520952D01*
X85351904Y-40568571D01*
X85399523Y-40663809D01*
X85399523Y-40901904D01*
X85351904Y-40997142D01*
X85304285Y-41044761D01*
X85209047Y-41092380D01*
X84923333Y-41092380D01*
X84828095Y-41044761D01*
X84780476Y-40997142D01*
X86304285Y-40092380D02*
X85828095Y-40092380D01*
X85780476Y-40568571D01*
X85828095Y-40520952D01*
X85923333Y-40473333D01*
X86161428Y-40473333D01*
X86256666Y-40520952D01*
X86304285Y-40568571D01*
X86351904Y-40663809D01*
X86351904Y-40901904D01*
X86304285Y-40997142D01*
X86256666Y-41044761D01*
X86161428Y-41092380D01*
X85923333Y-41092380D01*
X85828095Y-41044761D01*
X85780476Y-40997142D01*
X83875714Y-43632380D02*
X83875714Y-42632380D01*
X84113809Y-42632380D01*
X84256666Y-42680000D01*
X84351904Y-42775238D01*
X84399523Y-42870476D01*
X84447142Y-43060952D01*
X84447142Y-43203809D01*
X84399523Y-43394285D01*
X84351904Y-43489523D01*
X84256666Y-43584761D01*
X84113809Y-43632380D01*
X83875714Y-43632380D01*
X84780476Y-42632380D02*
X85399523Y-42632380D01*
X85066190Y-43013333D01*
X85209047Y-43013333D01*
X85304285Y-43060952D01*
X85351904Y-43108571D01*
X85399523Y-43203809D01*
X85399523Y-43441904D01*
X85351904Y-43537142D01*
X85304285Y-43584761D01*
X85209047Y-43632380D01*
X84923333Y-43632380D01*
X84828095Y-43584761D01*
X84780476Y-43537142D01*
X85780476Y-42727619D02*
X85828095Y-42680000D01*
X85923333Y-42632380D01*
X86161428Y-42632380D01*
X86256666Y-42680000D01*
X86304285Y-42727619D01*
X86351904Y-42822857D01*
X86351904Y-42918095D01*
X86304285Y-43060952D01*
X85732857Y-43632380D01*
X86351904Y-43632380D01*
X83875714Y-46172380D02*
X83875714Y-45172380D01*
X84113809Y-45172380D01*
X84256666Y-45220000D01*
X84351904Y-45315238D01*
X84399523Y-45410476D01*
X84447142Y-45600952D01*
X84447142Y-45743809D01*
X84399523Y-45934285D01*
X84351904Y-46029523D01*
X84256666Y-46124761D01*
X84113809Y-46172380D01*
X83875714Y-46172380D01*
X84780476Y-45172380D02*
X85399523Y-45172380D01*
X85066190Y-45553333D01*
X85209047Y-45553333D01*
X85304285Y-45600952D01*
X85351904Y-45648571D01*
X85399523Y-45743809D01*
X85399523Y-45981904D01*
X85351904Y-46077142D01*
X85304285Y-46124761D01*
X85209047Y-46172380D01*
X84923333Y-46172380D01*
X84828095Y-46124761D01*
X84780476Y-46077142D01*
X85732857Y-45172380D02*
X86351904Y-45172380D01*
X86018571Y-45553333D01*
X86161428Y-45553333D01*
X86256666Y-45600952D01*
X86304285Y-45648571D01*
X86351904Y-45743809D01*
X86351904Y-45981904D01*
X86304285Y-46077142D01*
X86256666Y-46124761D01*
X86161428Y-46172380D01*
X85875714Y-46172380D01*
X85780476Y-46124761D01*
X85732857Y-46077142D01*
X83875714Y-48712380D02*
X83875714Y-47712380D01*
X84113809Y-47712380D01*
X84256666Y-47760000D01*
X84351904Y-47855238D01*
X84399523Y-47950476D01*
X84447142Y-48140952D01*
X84447142Y-48283809D01*
X84399523Y-48474285D01*
X84351904Y-48569523D01*
X84256666Y-48664761D01*
X84113809Y-48712380D01*
X83875714Y-48712380D01*
X84828095Y-47807619D02*
X84875714Y-47760000D01*
X84970952Y-47712380D01*
X85209047Y-47712380D01*
X85304285Y-47760000D01*
X85351904Y-47807619D01*
X85399523Y-47902857D01*
X85399523Y-47998095D01*
X85351904Y-48140952D01*
X84780476Y-48712380D01*
X85399523Y-48712380D01*
X86304285Y-47712380D02*
X85828095Y-47712380D01*
X85780476Y-48188571D01*
X85828095Y-48140952D01*
X85923333Y-48093333D01*
X86161428Y-48093333D01*
X86256666Y-48140952D01*
X86304285Y-48188571D01*
X86351904Y-48283809D01*
X86351904Y-48521904D01*
X86304285Y-48617142D01*
X86256666Y-48664761D01*
X86161428Y-48712380D01*
X85923333Y-48712380D01*
X85828095Y-48664761D01*
X85780476Y-48617142D01*
X83875714Y-51252380D02*
X83875714Y-50252380D01*
X84113809Y-50252380D01*
X84256666Y-50300000D01*
X84351904Y-50395238D01*
X84399523Y-50490476D01*
X84447142Y-50680952D01*
X84447142Y-50823809D01*
X84399523Y-51014285D01*
X84351904Y-51109523D01*
X84256666Y-51204761D01*
X84113809Y-51252380D01*
X83875714Y-51252380D01*
X84828095Y-50347619D02*
X84875714Y-50300000D01*
X84970952Y-50252380D01*
X85209047Y-50252380D01*
X85304285Y-50300000D01*
X85351904Y-50347619D01*
X85399523Y-50442857D01*
X85399523Y-50538095D01*
X85351904Y-50680952D01*
X84780476Y-51252380D01*
X85399523Y-51252380D01*
X86256666Y-50252380D02*
X86066190Y-50252380D01*
X85970952Y-50300000D01*
X85923333Y-50347619D01*
X85828095Y-50490476D01*
X85780476Y-50680952D01*
X85780476Y-51061904D01*
X85828095Y-51157142D01*
X85875714Y-51204761D01*
X85970952Y-51252380D01*
X86161428Y-51252380D01*
X86256666Y-51204761D01*
X86304285Y-51157142D01*
X86351904Y-51061904D01*
X86351904Y-50823809D01*
X86304285Y-50728571D01*
X86256666Y-50680952D01*
X86161428Y-50633333D01*
X85970952Y-50633333D01*
X85875714Y-50680952D01*
X85828095Y-50728571D01*
X85780476Y-50823809D01*
X83875714Y-53792380D02*
X83875714Y-52792380D01*
X84113809Y-52792380D01*
X84256666Y-52840000D01*
X84351904Y-52935238D01*
X84399523Y-53030476D01*
X84447142Y-53220952D01*
X84447142Y-53363809D01*
X84399523Y-53554285D01*
X84351904Y-53649523D01*
X84256666Y-53744761D01*
X84113809Y-53792380D01*
X83875714Y-53792380D01*
X84828095Y-52887619D02*
X84875714Y-52840000D01*
X84970952Y-52792380D01*
X85209047Y-52792380D01*
X85304285Y-52840000D01*
X85351904Y-52887619D01*
X85399523Y-52982857D01*
X85399523Y-53078095D01*
X85351904Y-53220952D01*
X84780476Y-53792380D01*
X85399523Y-53792380D01*
X85732857Y-52792380D02*
X86399523Y-52792380D01*
X85970952Y-53792380D01*
X83875714Y-56332380D02*
X83875714Y-55332380D01*
X84113809Y-55332380D01*
X84256666Y-55380000D01*
X84351904Y-55475238D01*
X84399523Y-55570476D01*
X84447142Y-55760952D01*
X84447142Y-55903809D01*
X84399523Y-56094285D01*
X84351904Y-56189523D01*
X84256666Y-56284761D01*
X84113809Y-56332380D01*
X83875714Y-56332380D01*
X85399523Y-56332380D02*
X84828095Y-56332380D01*
X85113809Y-56332380D02*
X85113809Y-55332380D01*
X85018571Y-55475238D01*
X84923333Y-55570476D01*
X84828095Y-55618095D01*
X86256666Y-55665714D02*
X86256666Y-56332380D01*
X86018571Y-55284761D02*
X85780476Y-55999047D01*
X86399523Y-55999047D01*
X83875714Y-58872380D02*
X83875714Y-57872380D01*
X84113809Y-57872380D01*
X84256666Y-57920000D01*
X84351904Y-58015238D01*
X84399523Y-58110476D01*
X84447142Y-58300952D01*
X84447142Y-58443809D01*
X84399523Y-58634285D01*
X84351904Y-58729523D01*
X84256666Y-58824761D01*
X84113809Y-58872380D01*
X83875714Y-58872380D01*
X85399523Y-58872380D02*
X84828095Y-58872380D01*
X85113809Y-58872380D02*
X85113809Y-57872380D01*
X85018571Y-58015238D01*
X84923333Y-58110476D01*
X84828095Y-58158095D01*
X85780476Y-57967619D02*
X85828095Y-57920000D01*
X85923333Y-57872380D01*
X86161428Y-57872380D01*
X86256666Y-57920000D01*
X86304285Y-57967619D01*
X86351904Y-58062857D01*
X86351904Y-58158095D01*
X86304285Y-58300952D01*
X85732857Y-58872380D01*
X86351904Y-58872380D01*
X83875714Y-61412380D02*
X83875714Y-60412380D01*
X84113809Y-60412380D01*
X84256666Y-60460000D01*
X84351904Y-60555238D01*
X84399523Y-60650476D01*
X84447142Y-60840952D01*
X84447142Y-60983809D01*
X84399523Y-61174285D01*
X84351904Y-61269523D01*
X84256666Y-61364761D01*
X84113809Y-61412380D01*
X83875714Y-61412380D01*
X85399523Y-61412380D02*
X84828095Y-61412380D01*
X85113809Y-61412380D02*
X85113809Y-60412380D01*
X85018571Y-60555238D01*
X84923333Y-60650476D01*
X84828095Y-60698095D01*
X85732857Y-60412380D02*
X86351904Y-60412380D01*
X86018571Y-60793333D01*
X86161428Y-60793333D01*
X86256666Y-60840952D01*
X86304285Y-60888571D01*
X86351904Y-60983809D01*
X86351904Y-61221904D01*
X86304285Y-61317142D01*
X86256666Y-61364761D01*
X86161428Y-61412380D01*
X85875714Y-61412380D01*
X85780476Y-61364761D01*
X85732857Y-61317142D01*
X84328095Y-63000000D02*
X84232857Y-62952380D01*
X84090000Y-62952380D01*
X83947142Y-63000000D01*
X83851904Y-63095238D01*
X83804285Y-63190476D01*
X83756666Y-63380952D01*
X83756666Y-63523809D01*
X83804285Y-63714285D01*
X83851904Y-63809523D01*
X83947142Y-63904761D01*
X84090000Y-63952380D01*
X84185238Y-63952380D01*
X84328095Y-63904761D01*
X84375714Y-63857142D01*
X84375714Y-63523809D01*
X84185238Y-63523809D01*
X84804285Y-63952380D02*
X84804285Y-62952380D01*
X85375714Y-63952380D01*
X85375714Y-62952380D01*
X85851904Y-63952380D02*
X85851904Y-62952380D01*
X86090000Y-62952380D01*
X86232857Y-63000000D01*
X86328095Y-63095238D01*
X86375714Y-63190476D01*
X86423333Y-63380952D01*
X86423333Y-63523809D01*
X86375714Y-63714285D01*
X86328095Y-63809523D01*
X86232857Y-63904761D01*
X86090000Y-63952380D01*
X85851904Y-63952380D01*
X83994761Y-65492380D02*
X84328095Y-66492380D01*
X84661428Y-65492380D01*
X84994761Y-66492380D02*
X84994761Y-65492380D01*
X85470952Y-66492380D02*
X85470952Y-65492380D01*
X86042380Y-66492380D01*
X86042380Y-65492380D01*
X63555714Y-30932380D02*
X63555714Y-29932380D01*
X63793809Y-29932380D01*
X63936666Y-29980000D01*
X64031904Y-30075238D01*
X64079523Y-30170476D01*
X64127142Y-30360952D01*
X64127142Y-30503809D01*
X64079523Y-30694285D01*
X64031904Y-30789523D01*
X63936666Y-30884761D01*
X63793809Y-30932380D01*
X63555714Y-30932380D01*
X64508095Y-30027619D02*
X64555714Y-29980000D01*
X64650952Y-29932380D01*
X64889047Y-29932380D01*
X64984285Y-29980000D01*
X65031904Y-30027619D01*
X65079523Y-30122857D01*
X65079523Y-30218095D01*
X65031904Y-30360952D01*
X64460476Y-30932380D01*
X65079523Y-30932380D01*
X65412857Y-29932380D02*
X66031904Y-29932380D01*
X65698571Y-30313333D01*
X65841428Y-30313333D01*
X65936666Y-30360952D01*
X65984285Y-30408571D01*
X66031904Y-30503809D01*
X66031904Y-30741904D01*
X65984285Y-30837142D01*
X65936666Y-30884761D01*
X65841428Y-30932380D01*
X65555714Y-30932380D01*
X65460476Y-30884761D01*
X65412857Y-30837142D01*
X63555714Y-33472380D02*
X63555714Y-32472380D01*
X63793809Y-32472380D01*
X63936666Y-32520000D01*
X64031904Y-32615238D01*
X64079523Y-32710476D01*
X64127142Y-32900952D01*
X64127142Y-33043809D01*
X64079523Y-33234285D01*
X64031904Y-33329523D01*
X63936666Y-33424761D01*
X63793809Y-33472380D01*
X63555714Y-33472380D01*
X64508095Y-32567619D02*
X64555714Y-32520000D01*
X64650952Y-32472380D01*
X64889047Y-32472380D01*
X64984285Y-32520000D01*
X65031904Y-32567619D01*
X65079523Y-32662857D01*
X65079523Y-32758095D01*
X65031904Y-32900952D01*
X64460476Y-33472380D01*
X65079523Y-33472380D01*
X65460476Y-32567619D02*
X65508095Y-32520000D01*
X65603333Y-32472380D01*
X65841428Y-32472380D01*
X65936666Y-32520000D01*
X65984285Y-32567619D01*
X66031904Y-32662857D01*
X66031904Y-32758095D01*
X65984285Y-32900952D01*
X65412857Y-33472380D01*
X66031904Y-33472380D01*
X63531904Y-35012380D02*
X64103333Y-35012380D01*
X63817619Y-36012380D02*
X63817619Y-35012380D01*
X64341428Y-35012380D02*
X65008095Y-36012380D01*
X65008095Y-35012380D02*
X64341428Y-36012380D01*
X65579523Y-35012380D02*
X65674761Y-35012380D01*
X65770000Y-35060000D01*
X65817619Y-35107619D01*
X65865238Y-35202857D01*
X65912857Y-35393333D01*
X65912857Y-35631428D01*
X65865238Y-35821904D01*
X65817619Y-35917142D01*
X65770000Y-35964761D01*
X65674761Y-36012380D01*
X65579523Y-36012380D01*
X65484285Y-35964761D01*
X65436666Y-35917142D01*
X65389047Y-35821904D01*
X65341428Y-35631428D01*
X65341428Y-35393333D01*
X65389047Y-35202857D01*
X65436666Y-35107619D01*
X65484285Y-35060000D01*
X65579523Y-35012380D01*
X64127142Y-38552380D02*
X63793809Y-38076190D01*
X63555714Y-38552380D02*
X63555714Y-37552380D01*
X63936666Y-37552380D01*
X64031904Y-37600000D01*
X64079523Y-37647619D01*
X64127142Y-37742857D01*
X64127142Y-37885714D01*
X64079523Y-37980952D01*
X64031904Y-38028571D01*
X63936666Y-38076190D01*
X63555714Y-38076190D01*
X64460476Y-37552380D02*
X65127142Y-38552380D01*
X65127142Y-37552380D02*
X64460476Y-38552380D01*
X65698571Y-37552380D02*
X65793809Y-37552380D01*
X65889047Y-37600000D01*
X65936666Y-37647619D01*
X65984285Y-37742857D01*
X66031904Y-37933333D01*
X66031904Y-38171428D01*
X65984285Y-38361904D01*
X65936666Y-38457142D01*
X65889047Y-38504761D01*
X65793809Y-38552380D01*
X65698571Y-38552380D01*
X65603333Y-38504761D01*
X65555714Y-38457142D01*
X65508095Y-38361904D01*
X65460476Y-38171428D01*
X65460476Y-37933333D01*
X65508095Y-37742857D01*
X65555714Y-37647619D01*
X65603333Y-37600000D01*
X65698571Y-37552380D01*
X63555714Y-41092380D02*
X63555714Y-40092380D01*
X63793809Y-40092380D01*
X63936666Y-40140000D01*
X64031904Y-40235238D01*
X64079523Y-40330476D01*
X64127142Y-40520952D01*
X64127142Y-40663809D01*
X64079523Y-40854285D01*
X64031904Y-40949523D01*
X63936666Y-41044761D01*
X63793809Y-41092380D01*
X63555714Y-41092380D01*
X64508095Y-40187619D02*
X64555714Y-40140000D01*
X64650952Y-40092380D01*
X64889047Y-40092380D01*
X64984285Y-40140000D01*
X65031904Y-40187619D01*
X65079523Y-40282857D01*
X65079523Y-40378095D01*
X65031904Y-40520952D01*
X64460476Y-41092380D01*
X65079523Y-41092380D01*
X66031904Y-41092380D02*
X65460476Y-41092380D01*
X65746190Y-41092380D02*
X65746190Y-40092380D01*
X65650952Y-40235238D01*
X65555714Y-40330476D01*
X65460476Y-40378095D01*
X63555714Y-43632380D02*
X63555714Y-42632380D01*
X63793809Y-42632380D01*
X63936666Y-42680000D01*
X64031904Y-42775238D01*
X64079523Y-42870476D01*
X64127142Y-43060952D01*
X64127142Y-43203809D01*
X64079523Y-43394285D01*
X64031904Y-43489523D01*
X63936666Y-43584761D01*
X63793809Y-43632380D01*
X63555714Y-43632380D01*
X65079523Y-43632380D02*
X64508095Y-43632380D01*
X64793809Y-43632380D02*
X64793809Y-42632380D01*
X64698571Y-42775238D01*
X64603333Y-42870476D01*
X64508095Y-42918095D01*
X65555714Y-43632380D02*
X65746190Y-43632380D01*
X65841428Y-43584761D01*
X65889047Y-43537142D01*
X65984285Y-43394285D01*
X66031904Y-43203809D01*
X66031904Y-42822857D01*
X65984285Y-42727619D01*
X65936666Y-42680000D01*
X65841428Y-42632380D01*
X65650952Y-42632380D01*
X65555714Y-42680000D01*
X65508095Y-42727619D01*
X65460476Y-42822857D01*
X65460476Y-43060952D01*
X65508095Y-43156190D01*
X65555714Y-43203809D01*
X65650952Y-43251428D01*
X65841428Y-43251428D01*
X65936666Y-43203809D01*
X65984285Y-43156190D01*
X66031904Y-43060952D01*
X63555714Y-46172380D02*
X63555714Y-45172380D01*
X63793809Y-45172380D01*
X63936666Y-45220000D01*
X64031904Y-45315238D01*
X64079523Y-45410476D01*
X64127142Y-45600952D01*
X64127142Y-45743809D01*
X64079523Y-45934285D01*
X64031904Y-46029523D01*
X63936666Y-46124761D01*
X63793809Y-46172380D01*
X63555714Y-46172380D01*
X65079523Y-46172380D02*
X64508095Y-46172380D01*
X64793809Y-46172380D02*
X64793809Y-45172380D01*
X64698571Y-45315238D01*
X64603333Y-45410476D01*
X64508095Y-45458095D01*
X65650952Y-45600952D02*
X65555714Y-45553333D01*
X65508095Y-45505714D01*
X65460476Y-45410476D01*
X65460476Y-45362857D01*
X65508095Y-45267619D01*
X65555714Y-45220000D01*
X65650952Y-45172380D01*
X65841428Y-45172380D01*
X65936666Y-45220000D01*
X65984285Y-45267619D01*
X66031904Y-45362857D01*
X66031904Y-45410476D01*
X65984285Y-45505714D01*
X65936666Y-45553333D01*
X65841428Y-45600952D01*
X65650952Y-45600952D01*
X65555714Y-45648571D01*
X65508095Y-45696190D01*
X65460476Y-45791428D01*
X65460476Y-45981904D01*
X65508095Y-46077142D01*
X65555714Y-46124761D01*
X65650952Y-46172380D01*
X65841428Y-46172380D01*
X65936666Y-46124761D01*
X65984285Y-46077142D01*
X66031904Y-45981904D01*
X66031904Y-45791428D01*
X65984285Y-45696190D01*
X65936666Y-45648571D01*
X65841428Y-45600952D01*
X64031904Y-48712380D02*
X64031904Y-47712380D01*
X64270000Y-47712380D01*
X64412857Y-47760000D01*
X64508095Y-47855238D01*
X64555714Y-47950476D01*
X64603333Y-48140952D01*
X64603333Y-48283809D01*
X64555714Y-48474285D01*
X64508095Y-48569523D01*
X64412857Y-48664761D01*
X64270000Y-48712380D01*
X64031904Y-48712380D01*
X65508095Y-47712380D02*
X65031904Y-47712380D01*
X64984285Y-48188571D01*
X65031904Y-48140952D01*
X65127142Y-48093333D01*
X65365238Y-48093333D01*
X65460476Y-48140952D01*
X65508095Y-48188571D01*
X65555714Y-48283809D01*
X65555714Y-48521904D01*
X65508095Y-48617142D01*
X65460476Y-48664761D01*
X65365238Y-48712380D01*
X65127142Y-48712380D01*
X65031904Y-48664761D01*
X64984285Y-48617142D01*
X63531904Y-50252380D02*
X64103333Y-50252380D01*
X63817619Y-51252380D02*
X63817619Y-50252380D01*
X64341428Y-50252380D02*
X65008095Y-51252380D01*
X65008095Y-50252380D02*
X64341428Y-51252380D01*
X65341428Y-50347619D02*
X65389047Y-50300000D01*
X65484285Y-50252380D01*
X65722380Y-50252380D01*
X65817619Y-50300000D01*
X65865238Y-50347619D01*
X65912857Y-50442857D01*
X65912857Y-50538095D01*
X65865238Y-50680952D01*
X65293809Y-51252380D01*
X65912857Y-51252380D01*
X64127142Y-53792380D02*
X63793809Y-53316190D01*
X63555714Y-53792380D02*
X63555714Y-52792380D01*
X63936666Y-52792380D01*
X64031904Y-52840000D01*
X64079523Y-52887619D01*
X64127142Y-52982857D01*
X64127142Y-53125714D01*
X64079523Y-53220952D01*
X64031904Y-53268571D01*
X63936666Y-53316190D01*
X63555714Y-53316190D01*
X64460476Y-52792380D02*
X65127142Y-53792380D01*
X65127142Y-52792380D02*
X64460476Y-53792380D01*
X65460476Y-52887619D02*
X65508095Y-52840000D01*
X65603333Y-52792380D01*
X65841428Y-52792380D01*
X65936666Y-52840000D01*
X65984285Y-52887619D01*
X66031904Y-52982857D01*
X66031904Y-53078095D01*
X65984285Y-53220952D01*
X65412857Y-53792380D01*
X66031904Y-53792380D01*
X64031904Y-56332380D02*
X64031904Y-55332380D01*
X64270000Y-55332380D01*
X64412857Y-55380000D01*
X64508095Y-55475238D01*
X64555714Y-55570476D01*
X64603333Y-55760952D01*
X64603333Y-55903809D01*
X64555714Y-56094285D01*
X64508095Y-56189523D01*
X64412857Y-56284761D01*
X64270000Y-56332380D01*
X64031904Y-56332380D01*
X65460476Y-55665714D02*
X65460476Y-56332380D01*
X65222380Y-55284761D02*
X64984285Y-55999047D01*
X65603333Y-55999047D01*
X64031904Y-58872380D02*
X64031904Y-57872380D01*
X64270000Y-57872380D01*
X64412857Y-57920000D01*
X64508095Y-58015238D01*
X64555714Y-58110476D01*
X64603333Y-58300952D01*
X64603333Y-58443809D01*
X64555714Y-58634285D01*
X64508095Y-58729523D01*
X64412857Y-58824761D01*
X64270000Y-58872380D01*
X64031904Y-58872380D01*
X64984285Y-57967619D02*
X65031904Y-57920000D01*
X65127142Y-57872380D01*
X65365238Y-57872380D01*
X65460476Y-57920000D01*
X65508095Y-57967619D01*
X65555714Y-58062857D01*
X65555714Y-58158095D01*
X65508095Y-58300952D01*
X64936666Y-58872380D01*
X65555714Y-58872380D01*
X63555714Y-61412380D02*
X63555714Y-60412380D01*
X63793809Y-60412380D01*
X63936666Y-60460000D01*
X64031904Y-60555238D01*
X64079523Y-60650476D01*
X64127142Y-60840952D01*
X64127142Y-60983809D01*
X64079523Y-61174285D01*
X64031904Y-61269523D01*
X63936666Y-61364761D01*
X63793809Y-61412380D01*
X63555714Y-61412380D01*
X65079523Y-61412380D02*
X64508095Y-61412380D01*
X64793809Y-61412380D02*
X64793809Y-60412380D01*
X64698571Y-60555238D01*
X64603333Y-60650476D01*
X64508095Y-60698095D01*
X65984285Y-60412380D02*
X65508095Y-60412380D01*
X65460476Y-60888571D01*
X65508095Y-60840952D01*
X65603333Y-60793333D01*
X65841428Y-60793333D01*
X65936666Y-60840952D01*
X65984285Y-60888571D01*
X66031904Y-60983809D01*
X66031904Y-61221904D01*
X65984285Y-61317142D01*
X65936666Y-61364761D01*
X65841428Y-61412380D01*
X65603333Y-61412380D01*
X65508095Y-61364761D01*
X65460476Y-61317142D01*
X64008095Y-63000000D02*
X63912857Y-62952380D01*
X63770000Y-62952380D01*
X63627142Y-63000000D01*
X63531904Y-63095238D01*
X63484285Y-63190476D01*
X63436666Y-63380952D01*
X63436666Y-63523809D01*
X63484285Y-63714285D01*
X63531904Y-63809523D01*
X63627142Y-63904761D01*
X63770000Y-63952380D01*
X63865238Y-63952380D01*
X64008095Y-63904761D01*
X64055714Y-63857142D01*
X64055714Y-63523809D01*
X63865238Y-63523809D01*
X64484285Y-63952380D02*
X64484285Y-62952380D01*
X65055714Y-63952380D01*
X65055714Y-62952380D01*
X65531904Y-63952380D02*
X65531904Y-62952380D01*
X65770000Y-62952380D01*
X65912857Y-63000000D01*
X66008095Y-63095238D01*
X66055714Y-63190476D01*
X66103333Y-63380952D01*
X66103333Y-63523809D01*
X66055714Y-63714285D01*
X66008095Y-63809523D01*
X65912857Y-63904761D01*
X65770000Y-63952380D01*
X65531904Y-63952380D01*
X63531904Y-65492380D02*
X64150952Y-65492380D01*
X63817619Y-65873333D01*
X63960476Y-65873333D01*
X64055714Y-65920952D01*
X64103333Y-65968571D01*
X64150952Y-66063809D01*
X64150952Y-66301904D01*
X64103333Y-66397142D01*
X64055714Y-66444761D01*
X63960476Y-66492380D01*
X63674761Y-66492380D01*
X63579523Y-66444761D01*
X63531904Y-66397142D01*
X64436666Y-65492380D02*
X64770000Y-66492380D01*
X65103333Y-65492380D01*
X65341428Y-65492380D02*
X65960476Y-65492380D01*
X65627142Y-65873333D01*
X65770000Y-65873333D01*
X65865238Y-65920952D01*
X65912857Y-65968571D01*
X65960476Y-66063809D01*
X65960476Y-66301904D01*
X65912857Y-66397142D01*
X65865238Y-66444761D01*
X65770000Y-66492380D01*
X65484285Y-66492380D01*
X65389047Y-66444761D01*
X65341428Y-66397142D01*
%TO.C,U3*%
X74168095Y-66712380D02*
X74168095Y-67521904D01*
X74215714Y-67617142D01*
X74263333Y-67664761D01*
X74358571Y-67712380D01*
X74549047Y-67712380D01*
X74644285Y-67664761D01*
X74691904Y-67617142D01*
X74739523Y-67521904D01*
X74739523Y-66712380D01*
X75120476Y-66712380D02*
X75739523Y-66712380D01*
X75406190Y-67093333D01*
X75549047Y-67093333D01*
X75644285Y-67140952D01*
X75691904Y-67188571D01*
X75739523Y-67283809D01*
X75739523Y-67521904D01*
X75691904Y-67617142D01*
X75644285Y-67664761D01*
X75549047Y-67712380D01*
X75263333Y-67712380D01*
X75168095Y-67664761D01*
X75120476Y-67617142D01*
%TO.C,D1*%
X103401904Y-29662380D02*
X103401904Y-28662380D01*
X103640000Y-28662380D01*
X103782857Y-28710000D01*
X103878095Y-28805238D01*
X103925714Y-28900476D01*
X103973333Y-29090952D01*
X103973333Y-29233809D01*
X103925714Y-29424285D01*
X103878095Y-29519523D01*
X103782857Y-29614761D01*
X103640000Y-29662380D01*
X103401904Y-29662380D01*
X104925714Y-29662380D02*
X104354285Y-29662380D01*
X104640000Y-29662380D02*
X104640000Y-28662380D01*
X104544761Y-28805238D01*
X104449523Y-28900476D01*
X104354285Y-28948095D01*
X103495714Y-31262380D02*
X102924285Y-31262380D01*
X103210000Y-31262380D02*
X103210000Y-30262380D01*
X103114761Y-30405238D01*
X103019523Y-30500476D01*
X102924285Y-30548095D01*
%TO.C,D2*%
X121102380Y-37568095D02*
X120102380Y-37568095D01*
X120102380Y-37330000D01*
X120150000Y-37187142D01*
X120245238Y-37091904D01*
X120340476Y-37044285D01*
X120530952Y-36996666D01*
X120673809Y-36996666D01*
X120864285Y-37044285D01*
X120959523Y-37091904D01*
X121054761Y-37187142D01*
X121102380Y-37330000D01*
X121102380Y-37568095D01*
X120197619Y-36615714D02*
X120150000Y-36568095D01*
X120102380Y-36472857D01*
X120102380Y-36234761D01*
X120150000Y-36139523D01*
X120197619Y-36091904D01*
X120292857Y-36044285D01*
X120388095Y-36044285D01*
X120530952Y-36091904D01*
X121102380Y-36663333D01*
X121102380Y-36044285D01*
X119502380Y-45774285D02*
X119502380Y-46345714D01*
X119502380Y-46060000D02*
X118502380Y-46060000D01*
X118645238Y-46155238D01*
X118740476Y-46250476D01*
X118788095Y-46345714D01*
%TO.C,D3*%
X121102380Y-65508095D02*
X120102380Y-65508095D01*
X120102380Y-65270000D01*
X120150000Y-65127142D01*
X120245238Y-65031904D01*
X120340476Y-64984285D01*
X120530952Y-64936666D01*
X120673809Y-64936666D01*
X120864285Y-64984285D01*
X120959523Y-65031904D01*
X121054761Y-65127142D01*
X121102380Y-65270000D01*
X121102380Y-65508095D01*
X120102380Y-64603333D02*
X120102380Y-63984285D01*
X120483333Y-64317619D01*
X120483333Y-64174761D01*
X120530952Y-64079523D01*
X120578571Y-64031904D01*
X120673809Y-63984285D01*
X120911904Y-63984285D01*
X121007142Y-64031904D01*
X121054761Y-64079523D01*
X121102380Y-64174761D01*
X121102380Y-64460476D01*
X121054761Y-64555714D01*
X121007142Y-64603333D01*
X119502380Y-63554285D02*
X119502380Y-64125714D01*
X119502380Y-63840000D02*
X118502380Y-63840000D01*
X118645238Y-63935238D01*
X118740476Y-64030476D01*
X118788095Y-64125714D01*
%TO.C,D4*%
X93241904Y-74112380D02*
X93241904Y-73112380D01*
X93480000Y-73112380D01*
X93622857Y-73160000D01*
X93718095Y-73255238D01*
X93765714Y-73350476D01*
X93813333Y-73540952D01*
X93813333Y-73683809D01*
X93765714Y-73874285D01*
X93718095Y-73969523D01*
X93622857Y-74064761D01*
X93480000Y-74112380D01*
X93241904Y-74112380D01*
X94670476Y-73445714D02*
X94670476Y-74112380D01*
X94432380Y-73064761D02*
X94194285Y-73779047D01*
X94813333Y-73779047D01*
X95195714Y-71242380D02*
X94624285Y-71242380D01*
X94910000Y-71242380D02*
X94910000Y-70242380D01*
X94814761Y-70385238D01*
X94719523Y-70480476D01*
X94624285Y-70528095D01*
%TO.C,D5*%
X55141904Y-74112380D02*
X55141904Y-73112380D01*
X55380000Y-73112380D01*
X55522857Y-73160000D01*
X55618095Y-73255238D01*
X55665714Y-73350476D01*
X55713333Y-73540952D01*
X55713333Y-73683809D01*
X55665714Y-73874285D01*
X55618095Y-73969523D01*
X55522857Y-74064761D01*
X55380000Y-74112380D01*
X55141904Y-74112380D01*
X56618095Y-73112380D02*
X56141904Y-73112380D01*
X56094285Y-73588571D01*
X56141904Y-73540952D01*
X56237142Y-73493333D01*
X56475238Y-73493333D01*
X56570476Y-73540952D01*
X56618095Y-73588571D01*
X56665714Y-73683809D01*
X56665714Y-73921904D01*
X56618095Y-74017142D01*
X56570476Y-74064761D01*
X56475238Y-74112380D01*
X56237142Y-74112380D01*
X56141904Y-74064761D01*
X56094285Y-74017142D01*
X46935714Y-71242380D02*
X46364285Y-71242380D01*
X46650000Y-71242380D02*
X46650000Y-70242380D01*
X46554761Y-70385238D01*
X46459523Y-70480476D01*
X46364285Y-70528095D01*
%TO.C,D6*%
X28392380Y-65508095D02*
X27392380Y-65508095D01*
X27392380Y-65270000D01*
X27440000Y-65127142D01*
X27535238Y-65031904D01*
X27630476Y-64984285D01*
X27820952Y-64936666D01*
X27963809Y-64936666D01*
X28154285Y-64984285D01*
X28249523Y-65031904D01*
X28344761Y-65127142D01*
X28392380Y-65270000D01*
X28392380Y-65508095D01*
X27392380Y-64079523D02*
X27392380Y-64270000D01*
X27440000Y-64365238D01*
X27487619Y-64412857D01*
X27630476Y-64508095D01*
X27820952Y-64555714D01*
X28201904Y-64555714D01*
X28297142Y-64508095D01*
X28344761Y-64460476D01*
X28392380Y-64365238D01*
X28392380Y-64174761D01*
X28344761Y-64079523D01*
X28297142Y-64031904D01*
X28201904Y-63984285D01*
X27963809Y-63984285D01*
X27868571Y-64031904D01*
X27820952Y-64079523D01*
X27773333Y-64174761D01*
X27773333Y-64365238D01*
X27820952Y-64460476D01*
X27868571Y-64508095D01*
X27963809Y-64555714D01*
X31262380Y-55254285D02*
X31262380Y-55825714D01*
X31262380Y-55540000D02*
X30262380Y-55540000D01*
X30405238Y-55635238D01*
X30500476Y-55730476D01*
X30548095Y-55825714D01*
%TO.C,D7*%
X29662380Y-37568095D02*
X28662380Y-37568095D01*
X28662380Y-37330000D01*
X28710000Y-37187142D01*
X28805238Y-37091904D01*
X28900476Y-37044285D01*
X29090952Y-36996666D01*
X29233809Y-36996666D01*
X29424285Y-37044285D01*
X29519523Y-37091904D01*
X29614761Y-37187142D01*
X29662380Y-37330000D01*
X29662380Y-37568095D01*
X28662380Y-36663333D02*
X28662380Y-35996666D01*
X29662380Y-36425238D01*
X31262380Y-37474285D02*
X31262380Y-38045714D01*
X31262380Y-37760000D02*
X30262380Y-37760000D01*
X30405238Y-37855238D01*
X30500476Y-37950476D01*
X30548095Y-38045714D01*
%TO.C,D8*%
X44981904Y-29662380D02*
X44981904Y-28662380D01*
X45220000Y-28662380D01*
X45362857Y-28710000D01*
X45458095Y-28805238D01*
X45505714Y-28900476D01*
X45553333Y-29090952D01*
X45553333Y-29233809D01*
X45505714Y-29424285D01*
X45458095Y-29519523D01*
X45362857Y-29614761D01*
X45220000Y-29662380D01*
X44981904Y-29662380D01*
X46124761Y-29090952D02*
X46029523Y-29043333D01*
X45981904Y-28995714D01*
X45934285Y-28900476D01*
X45934285Y-28852857D01*
X45981904Y-28757619D01*
X46029523Y-28710000D01*
X46124761Y-28662380D01*
X46315238Y-28662380D01*
X46410476Y-28710000D01*
X46458095Y-28757619D01*
X46505714Y-28852857D01*
X46505714Y-28900476D01*
X46458095Y-28995714D01*
X46410476Y-29043333D01*
X46315238Y-29090952D01*
X46124761Y-29090952D01*
X46029523Y-29138571D01*
X45981904Y-29186190D01*
X45934285Y-29281428D01*
X45934285Y-29471904D01*
X45981904Y-29567142D01*
X46029523Y-29614761D01*
X46124761Y-29662380D01*
X46315238Y-29662380D01*
X46410476Y-29614761D01*
X46458095Y-29567142D01*
X46505714Y-29471904D01*
X46505714Y-29281428D01*
X46458095Y-29186190D01*
X46410476Y-29138571D01*
X46315238Y-29090952D01*
X55235714Y-31262380D02*
X54664285Y-31262380D01*
X54950000Y-31262380D02*
X54950000Y-30262380D01*
X54854761Y-30405238D01*
X54759523Y-30500476D01*
X54664285Y-30548095D01*
%TO.C,JP2*%
X91226666Y-30462380D02*
X91226666Y-31176666D01*
X91179047Y-31319523D01*
X91083809Y-31414761D01*
X90940952Y-31462380D01*
X90845714Y-31462380D01*
X91702857Y-31462380D02*
X91702857Y-30462380D01*
X92083809Y-30462380D01*
X92179047Y-30510000D01*
X92226666Y-30557619D01*
X92274285Y-30652857D01*
X92274285Y-30795714D01*
X92226666Y-30890952D01*
X92179047Y-30938571D01*
X92083809Y-30986190D01*
X91702857Y-30986190D01*
X92655238Y-30557619D02*
X92702857Y-30510000D01*
X92798095Y-30462380D01*
X93036190Y-30462380D01*
X93131428Y-30510000D01*
X93179047Y-30557619D01*
X93226666Y-30652857D01*
X93226666Y-30748095D01*
X93179047Y-30890952D01*
X92607619Y-31462380D01*
X93226666Y-31462380D01*
%TO.C,Q1*%
X39504761Y-63057619D02*
X39409523Y-63010000D01*
X39314285Y-62914761D01*
X39171428Y-62771904D01*
X39076190Y-62724285D01*
X38980952Y-62724285D01*
X39028571Y-62962380D02*
X38933333Y-62914761D01*
X38838095Y-62819523D01*
X38790476Y-62629047D01*
X38790476Y-62295714D01*
X38838095Y-62105238D01*
X38933333Y-62010000D01*
X39028571Y-61962380D01*
X39219047Y-61962380D01*
X39314285Y-62010000D01*
X39409523Y-62105238D01*
X39457142Y-62295714D01*
X39457142Y-62629047D01*
X39409523Y-62819523D01*
X39314285Y-62914761D01*
X39219047Y-62962380D01*
X39028571Y-62962380D01*
X40409523Y-62962380D02*
X39838095Y-62962380D01*
X40123809Y-62962380D02*
X40123809Y-61962380D01*
X40028571Y-62105238D01*
X39933333Y-62200476D01*
X39838095Y-62248095D01*
%TO.C,C1*%
X41639642Y-55009166D02*
X41687261Y-55056785D01*
X41734880Y-55199642D01*
X41734880Y-55294880D01*
X41687261Y-55437738D01*
X41592023Y-55532976D01*
X41496785Y-55580595D01*
X41306309Y-55628214D01*
X41163452Y-55628214D01*
X40972976Y-55580595D01*
X40877738Y-55532976D01*
X40782500Y-55437738D01*
X40734880Y-55294880D01*
X40734880Y-55199642D01*
X40782500Y-55056785D01*
X40830119Y-55009166D01*
X41734880Y-54056785D02*
X41734880Y-54628214D01*
X41734880Y-54342500D02*
X40734880Y-54342500D01*
X40877738Y-54437738D01*
X40972976Y-54532976D01*
X41020595Y-54628214D01*
%TO.C,C2*%
X97390833Y-65987142D02*
X97343214Y-66034761D01*
X97200357Y-66082380D01*
X97105119Y-66082380D01*
X96962261Y-66034761D01*
X96867023Y-65939523D01*
X96819404Y-65844285D01*
X96771785Y-65653809D01*
X96771785Y-65510952D01*
X96819404Y-65320476D01*
X96867023Y-65225238D01*
X96962261Y-65130000D01*
X97105119Y-65082380D01*
X97200357Y-65082380D01*
X97343214Y-65130000D01*
X97390833Y-65177619D01*
X97771785Y-65177619D02*
X97819404Y-65130000D01*
X97914642Y-65082380D01*
X98152738Y-65082380D01*
X98247976Y-65130000D01*
X98295595Y-65177619D01*
X98343214Y-65272857D01*
X98343214Y-65368095D01*
X98295595Y-65510952D01*
X97724166Y-66082380D01*
X98343214Y-66082380D01*
%TO.C,R1*%
X108245833Y-35232380D02*
X107912500Y-34756190D01*
X107674404Y-35232380D02*
X107674404Y-34232380D01*
X108055357Y-34232380D01*
X108150595Y-34280000D01*
X108198214Y-34327619D01*
X108245833Y-34422857D01*
X108245833Y-34565714D01*
X108198214Y-34660952D01*
X108150595Y-34708571D01*
X108055357Y-34756190D01*
X107674404Y-34756190D01*
X109198214Y-35232380D02*
X108626785Y-35232380D01*
X108912500Y-35232380D02*
X108912500Y-34232380D01*
X108817261Y-34375238D01*
X108722023Y-34470476D01*
X108626785Y-34518095D01*
%TO.C,J5*%
X107682380Y-29233333D02*
X108396666Y-29233333D01*
X108539523Y-29280952D01*
X108634761Y-29376190D01*
X108682380Y-29519047D01*
X108682380Y-29614285D01*
X107682380Y-28280952D02*
X107682380Y-28757142D01*
X108158571Y-28804761D01*
X108110952Y-28757142D01*
X108063333Y-28661904D01*
X108063333Y-28423809D01*
X108110952Y-28328571D01*
X108158571Y-28280952D01*
X108253809Y-28233333D01*
X108491904Y-28233333D01*
X108587142Y-28280952D01*
X108634761Y-28328571D01*
X108682380Y-28423809D01*
X108682380Y-28661904D01*
X108634761Y-28757142D01*
X108587142Y-28804761D01*
%TD*%
%LPC*%
D12*
%TO.C,R2*%
X107500000Y-28900000D03*
X104100000Y-28900000D03*
%TD*%
D13*
%TO.C,U2*%
X87630000Y-48260000D03*
X87630000Y-45720000D03*
X87630000Y-43180000D03*
X87630000Y-40640000D03*
X87630000Y-38100000D03*
X87630000Y-35560000D03*
X87630000Y-33020000D03*
X87630000Y-50800000D03*
X87630000Y-53340000D03*
X87630000Y-55880000D03*
X87630000Y-58420000D03*
X87630000Y-60960000D03*
X87630000Y-63500000D03*
X87630000Y-30480000D03*
X87630000Y-66040000D03*
X62230000Y-66040000D03*
X62230000Y-63500000D03*
X62230000Y-60960000D03*
X62230000Y-58420000D03*
X62230000Y-55880000D03*
X62230000Y-53340000D03*
X62230000Y-50800000D03*
X62230000Y-48260000D03*
X62230000Y-45720000D03*
X62230000Y-43180000D03*
X62230000Y-40640000D03*
X62230000Y-38100000D03*
X62230000Y-35560000D03*
X62230000Y-33020000D03*
X62230000Y-30480000D03*
%TD*%
%TO.C,U3*%
X114730000Y-40260000D03*
X114730000Y-42260000D03*
X114730000Y-44260000D03*
X114730000Y-46260000D03*
X114730000Y-48260000D03*
X114730000Y-50260000D03*
X114730000Y-52260000D03*
X114730000Y-54260000D03*
X114730000Y-56260000D03*
X35130000Y-40260000D03*
X35130000Y-42260000D03*
X35130000Y-44260000D03*
X35130000Y-46260000D03*
X35130000Y-48260000D03*
X35130000Y-50260000D03*
X35130000Y-52260000D03*
X35130000Y-54260000D03*
X35130000Y-56260000D03*
%TD*%
%TO.C,U1*%
X38240000Y-28260000D03*
X38240000Y-68260000D03*
X55740000Y-28260000D03*
X55740000Y-68260000D03*
%TD*%
D14*
%TO.C,REF\u002A\u002A*%
X32177056Y-69422944D03*
X30480000Y-68720000D03*
X28782944Y-69422944D03*
X28080000Y-71120000D03*
X28782944Y-72817056D03*
X30480000Y-73520000D03*
X32177056Y-72817056D03*
X32880000Y-71120000D03*
D15*
X30480000Y-71120000D03*
%TD*%
D14*
%TO.C,REF\u002A\u002A*%
X32177056Y-28782944D03*
X30480000Y-28080000D03*
X28782944Y-28782944D03*
X28080000Y-30480000D03*
X28782944Y-32177056D03*
X30480000Y-32880000D03*
X32177056Y-32177056D03*
X32880000Y-30480000D03*
D15*
X30480000Y-30480000D03*
%TD*%
D14*
%TO.C,REF\u002A\u002A*%
X121077056Y-28782944D03*
X119380000Y-28080000D03*
X117682944Y-28782944D03*
X116980000Y-30480000D03*
X117682944Y-32177056D03*
X119380000Y-32880000D03*
X121077056Y-32177056D03*
X121780000Y-30480000D03*
D15*
X119380000Y-30480000D03*
%TD*%
D14*
%TO.C,REF\u002A\u002A*%
X121077056Y-69422944D03*
X119380000Y-68720000D03*
X117682944Y-69422944D03*
X116980000Y-71120000D03*
X117682944Y-72817056D03*
X119380000Y-73520000D03*
X121077056Y-72817056D03*
X121780000Y-71120000D03*
D15*
X119380000Y-71120000D03*
%TD*%
D16*
%TO.C,D1*%
X101510000Y-30810000D03*
X101510000Y-27610000D03*
X96610000Y-30810000D03*
X96610000Y-27610000D03*
%TD*%
D17*
%TO.C,D2*%
X122250000Y-39460000D03*
X119050000Y-39460000D03*
X122250000Y-44360000D03*
X119050000Y-44360000D03*
%TD*%
%TO.C,D3*%
X119050000Y-62140000D03*
X122250000Y-62140000D03*
X119050000Y-57240000D03*
X122250000Y-57240000D03*
%TD*%
D16*
%TO.C,D4*%
X101510000Y-73990000D03*
X101510000Y-70790000D03*
X96610000Y-73990000D03*
X96610000Y-70790000D03*
%TD*%
%TO.C,D5*%
X53250000Y-73990000D03*
X53250000Y-70790000D03*
X48350000Y-73990000D03*
X48350000Y-70790000D03*
%TD*%
D17*
%TO.C,D6*%
X30810000Y-57240000D03*
X27610000Y-57240000D03*
X30810000Y-62140000D03*
X27610000Y-62140000D03*
%TD*%
%TO.C,D7*%
X27610000Y-44360000D03*
X30810000Y-44360000D03*
X27610000Y-39460000D03*
X30810000Y-39460000D03*
%TD*%
D16*
%TO.C,D8*%
X53250000Y-30810000D03*
X53250000Y-27610000D03*
X48350000Y-30810000D03*
X48350000Y-27610000D03*
%TD*%
D18*
%TO.C,J2*%
X60960000Y-72390000D03*
D19*
X63500000Y-72390000D03*
X66040000Y-72390000D03*
X68580000Y-72390000D03*
X71120000Y-72390000D03*
X73660000Y-72390000D03*
X76200000Y-72390000D03*
X78740000Y-72390000D03*
X81280000Y-72390000D03*
X83820000Y-72390000D03*
X86360000Y-72390000D03*
X88900000Y-72390000D03*
%TD*%
%TO.C,J3*%
X113030000Y-72390000D03*
X110490000Y-72390000D03*
X107950000Y-72390000D03*
D18*
X105410000Y-72390000D03*
%TD*%
%TO.C,J4*%
X36830000Y-72390000D03*
D19*
X39370000Y-72390000D03*
X41910000Y-72390000D03*
X44450000Y-72390000D03*
%TD*%
D17*
%TO.C,JP2*%
X91410000Y-29210000D03*
X92710000Y-29210000D03*
%TD*%
D20*
%TO.C,Q1*%
X41100000Y-60960000D03*
X41100000Y-59060000D03*
X38100000Y-60010000D03*
%TD*%
D18*
%TO.C,J1*%
X29210000Y-49530000D03*
D19*
X29210000Y-52070000D03*
%TD*%
%TO.C,C1*%
G36*
G01*
X39127500Y-55292500D02*
X40077500Y-55292500D01*
G75*
G02*
X40327500Y-55542500I0J-250000D01*
G01*
X40327500Y-56217500D01*
G75*
G02*
X40077500Y-56467500I-250000J0D01*
G01*
X39127500Y-56467500D01*
G75*
G02*
X38877500Y-56217500I0J250000D01*
G01*
X38877500Y-55542500D01*
G75*
G02*
X39127500Y-55292500I250000J0D01*
G01*
G37*
G36*
G01*
X39127500Y-53217500D02*
X40077500Y-53217500D01*
G75*
G02*
X40327500Y-53467500I0J-250000D01*
G01*
X40327500Y-54142500D01*
G75*
G02*
X40077500Y-54392500I-250000J0D01*
G01*
X39127500Y-54392500D01*
G75*
G02*
X38877500Y-54142500I0J250000D01*
G01*
X38877500Y-53467500D01*
G75*
G02*
X39127500Y-53217500I250000J0D01*
G01*
G37*
%TD*%
%TO.C,C2*%
G36*
G01*
X95932500Y-67785000D02*
X95932500Y-66835000D01*
G75*
G02*
X96182500Y-66585000I250000J0D01*
G01*
X96857500Y-66585000D01*
G75*
G02*
X97107500Y-66835000I0J-250000D01*
G01*
X97107500Y-67785000D01*
G75*
G02*
X96857500Y-68035000I-250000J0D01*
G01*
X96182500Y-68035000D01*
G75*
G02*
X95932500Y-67785000I0J250000D01*
G01*
G37*
G36*
G01*
X98007500Y-67785000D02*
X98007500Y-66835000D01*
G75*
G02*
X98257500Y-66585000I250000J0D01*
G01*
X98932500Y-66585000D01*
G75*
G02*
X99182500Y-66835000I0J-250000D01*
G01*
X99182500Y-67785000D01*
G75*
G02*
X98932500Y-68035000I-250000J0D01*
G01*
X98257500Y-68035000D01*
G75*
G02*
X98007500Y-67785000I0J250000D01*
G01*
G37*
%TD*%
%TO.C,R1*%
G36*
G01*
X109812500Y-33112500D02*
X109812500Y-33587500D01*
G75*
G02*
X109575000Y-33825000I-237500J0D01*
G01*
X109075000Y-33825000D01*
G75*
G02*
X108837500Y-33587500I0J237500D01*
G01*
X108837500Y-33112500D01*
G75*
G02*
X109075000Y-32875000I237500J0D01*
G01*
X109575000Y-32875000D01*
G75*
G02*
X109812500Y-33112500I0J-237500D01*
G01*
G37*
G36*
G01*
X107987500Y-33112500D02*
X107987500Y-33587500D01*
G75*
G02*
X107750000Y-33825000I-237500J0D01*
G01*
X107250000Y-33825000D01*
G75*
G02*
X107012500Y-33587500I0J237500D01*
G01*
X107012500Y-33112500D01*
G75*
G02*
X107250000Y-32875000I237500J0D01*
G01*
X107750000Y-32875000D01*
G75*
G02*
X107987500Y-33112500I0J-237500D01*
G01*
G37*
%TD*%
D18*
%TO.C,J5*%
X110560000Y-28900000D03*
D19*
X113100000Y-28900000D03*
%TD*%
M02*
